<ttFont>
<head>
    <!-- Most of this table will be recalculated by the compiler -->
    <tableVersion value="1.0"/>
    <fontRevision value="0.053"/>
    <checkSumAdjustment value="0x4b110a4e"/>
    <magicNumber value="0x5f0f3cf5"/>
    <flags value="00000000 00000011"/>
    <unitsPerEm value="1024"/>
    <created value="Mon Sep 28 18:41:54 2020"/>
    <modified value="Tue May  4 09:33:13 2021"/>
    <xMin value="-192"/>
    <yMin value="-202"/>
    <xMax value="640"/>
    <yMax value="1032"/>
    <macStyle value="00000000 00000000"/>
    <lowestRecPPEM value="7"/>
    <fontDirectionHint value="2"/>
    <indexToLocFormat value="0"/>
    <glyphDataFormat value="0"/>
  </head>
    <TTGlyph name=".notdef" xMin="34" yMin="-30" xMax="414" yMax="670">
      <contour>
        <pt x="34" y="670" on="1"/>
        <pt x="414" y="670" on="1"/>
        <pt x="414" y="-30" on="1"/>
        <pt x="34" y="-30" on="1"/>
      </contour>
      <contour>
        <pt x="179" y="568" on="0"/>
        <pt x="272" y="541" on="0"/>
        <pt x="299" y="507" on="0"/>
        <pt x="299" y="485" on="1"/>
        <pt x="299" y="461" on="0"/>
        <pt x="278" y="426" on="0"/>
        <pt x="255" y="400" on="1"/>
        <pt x="230" y="372" on="0"/>
        <pt x="198" y="325" on="0"/>
        <pt x="175" y="249" on="0"/>
        <pt x="176" y="195" on="1"/>
        <pt x="264" y="192" on="1"/>
        <pt x="265" y="252" on="0"/>
        <pt x="301" y="324" on="0"/>
        <pt x="335" y="363" on="1"/>
        <pt x="364" y="396" on="0"/>
        <pt x="393" y="449" on="0"/>
        <pt x="393" y="490" on="1"/>
        <pt x="393" y="565" on="0"/>
        <pt x="257" y="643" on="0"/>
        <pt x="91" y="645" on="1"/>
        <pt x="87" y="573" on="1"/>
      </contour>
      <contour>
        <pt x="150" y="27" on="0"/>
        <pt x="192" y="-10" on="0"/>
        <pt x="224" y="-10" on="1"/>
        <pt x="256" y="-10" on="0"/>
        <pt x="298" y="26" on="0"/>
        <pt x="298" y="59" on="1"/>
        <pt x="298" y="91" on="0"/>
        <pt x="256" y="128" on="0"/>
        <pt x="224" y="128" on="1"/>
        <pt x="193" y="128" on="0"/>
        <pt x="150" y="91" on="0"/>
        <pt x="150" y="59" on="1"/>
      </contour>
    </TTGlyph>
    <TTGlyph name="A" xMin="30" yMin="0" xMax="418" yMax="642">
      <contour>
        <pt x="45" y="187" on="0"/>
        <pt x="123" y="520" on="0"/>
        <pt x="182" y="642" on="1"/>
        <pt x="266" y="642" on="1"/>
        <pt x="326" y="520" on="0"/>
        <pt x="403" y="187" on="0"/>
        <pt x="418" y="0" on="1"/>
        <pt x="323" y="0" on="1"/>
        <pt x="315" y="101" on="0"/>
        <pt x="304" y="176" on="1"/>
        <pt x="144" y="176" on="1"/>
        <pt x="131" y="70" on="0"/>
        <pt x="125" y="0" on="1"/>
        <pt x="30" y="0" on="1"/>
      </contour>
      <contour>
        <pt x="294" y="248" on="1"/>
        <pt x="265" y="420" on="0"/>
        <pt x="224" y="536" on="1"/>
        <pt x="181" y="409" on="0"/>
        <pt x="155" y="248" on="1"/>
      </contour>
    </TTGlyph>
    <TTGlyph name="A.sups" xMin="128" yMin="320" xMax="320" yMax="640">
      <contour>
        <pt x="320" y="640" on="1"/>
        <pt x="320" y="320" on="1"/>
        <pt x="256" y="320" on="1"/>
        <pt x="256" y="448" on="1"/>
        <pt x="192" y="448" on="1"/>
        <pt x="192" y="320" on="1"/>
        <pt x="128" y="320" on="1"/>
        <pt x="128" y="640" on="1"/>
      </contour>
      <contour>
        <pt x="256" y="512" on="1"/>
        <pt x="256" y="576" on="1"/>
        <pt x="192" y="576" on="1"/>
        <pt x="192" y="512" on="1"/>
      </contour>
    </TTGlyph>
    <TTGlyph name="AE" xMin="-23" yMin="0" xMax="463" yMax="640">
      <contour>
        <pt x="463" y="72" on="1"/>
        <pt x="463" y="0" on="1"/>
        <pt x="193" y="0" on="1"/>
        <pt x="193" y="176" on="1"/>
        <pt x="90" y="176" on="1"/>
        <pt x="79" y="101" on="0"/>
        <pt x="71" y="0" on="1"/>
        <pt x="-23" y="0" on="1"/>
        <pt x="-9" y="185" on="0"/>
        <pt x="63" y="517" on="0"/>
        <pt x="118" y="640" on="1"/>
        <pt x="453" y="640" on="1"/>
        <pt x="453" y="568" on="1"/>
        <pt x="285" y="568" on="1"/>
        <pt x="285" y="324" on="1"/>
        <pt x="402" y="324" on="1"/>
        <pt x="402" y="252" on="1"/>
        <pt x="285" y="252" on="1"/>
        <pt x="285" y="72" on="1"/>
      </contour>
      <contour>
        <pt x="193" y="248" on="1"/>
        <pt x="193" y="568" on="1"/>
        <pt x="176" y="568" on="1"/>
        <pt x="129" y="432" on="0"/>
        <pt x="100" y="248" on="1"/>
      </contour>
    </TTGlyph>
    <TTGlyph name="AEacute" xMin="-23" yMin="0" xMax="463" yMax="844">
      <component glyphName="AE" x="0" y="0" flags="0x0"/>
      <component glyphName="acutecomb.case" x="0" y="0" flags="0x0"/>
    </TTGlyph>
    <TTGlyph name="Aacute" xMin="30" yMin="0" xMax="418" yMax="844">
      <component glyphName="A" x="0" y="0" flags="0x0"/>
      <component glyphName="acutecomb.case" x="0" y="0" flags="0x0"/>
    </TTGlyph>
    <TTGlyph name="Abreve" xMin="30" yMin="0" xMax="418" yMax="841">
      <component glyphName="A" x="0" y="0" flags="0x0"/>
      <component glyphName="uni0306.case" x="0" y="0" flags="0x0"/>
    </TTGlyph>
    <TTGlyph name="Acircumflex" xMin="30" yMin="0" xMax="418" yMax="842">
      <component glyphName="A" x="0" y="0" flags="0x0"/>
      <component glyphName="uni0302.case" x="0" y="0" flags="0x0"/>
    </TTGlyph>
    <TTGlyph name="Adieresis" xMin="30" yMin="0" xMax="418" yMax="823">
      <component glyphName="A" x="0" y="0" flags="0x0"/>
      <component glyphName="uni0308.case" x="0" y="0" flags="0x0"/>
    </TTGlyph>
    <TTGlyph name="Agrave" xMin="30" yMin="0" xMax="418" yMax="844">
      <component glyphName="A" x="0" y="0" flags="0x0"/>
      <component glyphName="gravecomb.case" x="0" y="0" flags="0x0"/>
    </TTGlyph>
    <TTGlyph name="Alpha" xMin="30" yMin="0" xMax="418" yMax="642">
      <component glyphName="A" x="0" y="0" flags="0x0"/>
    </TTGlyph>
    <TTGlyph name="Alphatonos" xMin="-12" yMin="0" xMax="418" yMax="704">
      <component glyphName="A" x="0" y="0" flags="0x0"/>
      <component glyphName="tonos" x="-192" y="0" flags="0x0"/>
    </TTGlyph>
    <TTGlyph name="Amacron" xMin="30" yMin="0" xMax="418" yMax="773">
      <component glyphName="A" x="0" y="0" flags="0x0"/>
      <component glyphName="uni0304.case" x="0" y="0" flags="0x0"/>
    </TTGlyph>
    <TTGlyph name="Aogonek" xMin="30" yMin="-197" xMax="435" yMax="642">
      <component glyphName="A" x="0" y="0" flags="0x0"/>
      <component glyphName="uni0328" x="34" y="0" flags="0x0"/>
    </TTGlyph>
    <TTGlyph name="Aring" xMin="30" yMin="0" xMax="418" yMax="894">
      <component glyphName="A" x="0" y="0" flags="0x0"/>
      <component glyphName="uni030A.case" x="0" y="0" flags="0x0"/>
    </TTGlyph>
    <TTGlyph name="Aringacute" xMin="30" yMin="0" xMax="418" yMax="896">
      <component glyphName="A" x="0" y="0" flags="0x0"/>
      <component glyphName="uni030A.case" x="0" y="-97" flags="0x4"/>
      <component glyphName="acutecomb.case" x="0" y="52" flags="0x4"/>
    </TTGlyph>
    <TTGlyph name="Atilde" xMin="30" yMin="0" xMax="418" yMax="840">
      <component glyphName="A" x="0" y="0" flags="0x0"/>
      <component glyphName="tildecomb.case" x="0" y="0" flags="0x0"/>
    </TTGlyph>
    <TTGlyph name="B" xMin="55" yMin="0" xMax="416" yMax="640">
      <contour>
        <pt x="55" y="640" on="1"/>
        <pt x="194" y="640" on="1"/>
        <pt x="290" y="640" on="0"/>
        <pt x="395" y="557" on="0"/>
        <pt x="395" y="476" on="1"/>
        <pt x="395" y="386" on="0"/>
        <pt x="313" y="314" on="1"/>
        <pt x="362" y="299" on="0"/>
        <pt x="416" y="226" on="0"/>
        <pt x="416" y="170" on="1"/>
        <pt x="416" y="89" on="0"/>
        <pt x="307" y="0" on="0"/>
        <pt x="214" y="0" on="1"/>
        <pt x="55" y="0" on="1"/>
      </contour>
      <contour>
        <pt x="197" y="72" on="1"/>
        <pt x="265" y="72" on="0"/>
        <pt x="320" y="121" on="0"/>
        <pt x="320" y="172" on="1"/>
        <pt x="320" y="219" on="0"/>
        <pt x="263" y="268" on="0"/>
        <pt x="197" y="268" on="1"/>
        <pt x="147" y="268" on="1"/>
        <pt x="147" y="72" on="1"/>
      </contour>
      <contour>
        <pt x="237" y="340" on="1"/>
        <pt x="266" y="364" on="0"/>
        <pt x="297" y="434" on="0"/>
        <pt x="297" y="471" on="1"/>
        <pt x="297" y="520" on="0"/>
        <pt x="244" y="568" on="0"/>
        <pt x="180" y="568" on="1"/>
        <pt x="147" y="568" on="1"/>
        <pt x="147" y="340" on="1"/>
      </contour>
    </TTGlyph>
    <TTGlyph name="B.sups" xMin="128" yMin="320" xMax="320" yMax="640">
      <contour>
        <pt x="320" y="640" on="1"/>
        <pt x="320" y="512" on="1"/>
        <pt x="256" y="512" on="1"/>
        <pt x="256" y="576" on="1"/>
        <pt x="192" y="576" on="1"/>
        <pt x="192" y="512" on="1"/>
        <pt x="256" y="512" on="1"/>
        <pt x="256" y="448" on="1"/>
        <pt x="192" y="448" on="1"/>
        <pt x="192" y="384" on="1"/>
        <pt x="256" y="384" on="1"/>
        <pt x="256" y="448" on="1"/>
        <pt x="320" y="448" on="1"/>
        <pt x="320" y="320" on="1"/>
        <pt x="128" y="320" on="1"/>
        <pt x="128" y="640" on="1"/>
      </contour>
    </TTGlyph>
    <TTGlyph name="Beta" xMin="55" yMin="0" xMax="416" yMax="640">
      <component glyphName="B" x="0" y="0" flags="0x0"/>
    </TTGlyph>
    <TTGlyph name="C" xMin="55" yMin="-9" xMax="389" yMax="647">
      <contour>
        <pt x="194" y="-9" on="0"/>
        <pt x="99" y="55" on="0"/>
        <pt x="55" y="197" on="0"/>
        <pt x="55" y="319" on="1"/>
        <pt x="55" y="441" on="0"/>
        <pt x="99" y="583" on="0"/>
        <pt x="194" y="647" on="0"/>
        <pt x="276" y="647" on="1"/>
        <pt x="334" y="647" on="0"/>
        <pt x="383" y="634" on="1"/>
        <pt x="369" y="566" on="1"/>
        <pt x="329" y="575" on="0"/>
        <pt x="289" y="575" on="1"/>
        <pt x="228" y="575" on="0"/>
        <pt x="170" y="525" on="0"/>
        <pt x="153" y="421" on="0"/>
        <pt x="153" y="319" on="1"/>
        <pt x="153" y="217" on="0"/>
        <pt x="170" y="114" on="0"/>
        <pt x="228" y="63" on="0"/>
        <pt x="289" y="63" on="1"/>
        <pt x="332" y="63" on="0"/>
        <pt x="375" y="74" on="1"/>
        <pt x="389" y="7" on="1"/>
        <pt x="340" y="-9" on="0"/>
        <pt x="276" y="-9" on="1"/>
      </contour>
    </TTGlyph>
    <TTGlyph name="C.sups" xMin="128" yMin="316" xMax="326" yMax="644">
      <contour>
        <pt x="281" y="370" on="0"/>
        <pt x="316" y="377" on="1"/>
        <pt x="326" y="326" on="1"/>
        <pt x="291" y="316" on="0"/>
        <pt x="252" y="316" on="1"/>
        <pt x="193" y="316" on="0"/>
        <pt x="128" y="400" on="0"/>
        <pt x="128" y="480" on="1"/>
        <pt x="128" y="560" on="0"/>
        <pt x="193" y="644" on="0"/>
        <pt x="252" y="644" on="1"/>
        <pt x="291" y="644" on="0"/>
        <pt x="326" y="634" on="1"/>
        <pt x="316" y="583" on="1"/>
        <pt x="281" y="590" on="0"/>
        <pt x="256" y="590" on="1"/>
        <pt x="223" y="590" on="0"/>
        <pt x="192" y="546" on="0"/>
        <pt x="192" y="480" on="1"/>
        <pt x="192" y="414" on="0"/>
        <pt x="223" y="370" on="0"/>
        <pt x="256" y="370" on="1"/>
      </contour>
    </TTGlyph>
    <TTGlyph name="Cacute" xMin="55" yMin="-9" xMax="390" yMax="844">
      <component glyphName="C" x="0" y="0" flags="0x0"/>
      <component glyphName="acutecomb.case" x="32" y="0" flags="0x0"/>
    </TTGlyph>
    <TTGlyph name="Ccaron" xMin="55" yMin="-9" xMax="389" yMax="788">
      <component glyphName="C" x="0" y="0" flags="0x0"/>
      <component glyphName="uni030C.case" x="32" y="0" flags="0x0"/>
    </TTGlyph>
    <TTGlyph name="Ccedilla" xMin="55" yMin="-192" xMax="389" yMax="647">
      <component glyphName="C" x="0" y="0" flags="0x0"/>
      <component glyphName="uni0327" x="0" y="0" flags="0x0"/>
    </TTGlyph>
    <TTGlyph name="Ccircumflex" xMin="55" yMin="-9" xMax="405" yMax="842">
      <component glyphName="C" x="0" y="0" flags="0x0"/>
      <component glyphName="uni0302.case" x="32" y="0" flags="0x0"/>
    </TTGlyph>
    <TTGlyph name="Cdotaccent" xMin="55" yMin="-9" xMax="389" yMax="822">
      <component glyphName="C" x="0" y="0" flags="0x0"/>
      <component glyphName="uni0307.case" x="32" y="0" flags="0x0"/>
    </TTGlyph>
    <TTGlyph name="Chi" xMin="42" yMin="0" xMax="405" yMax="640">
      <component glyphName="X" x="0" y="0" flags="0x0"/>
    </TTGlyph>
    <TTGlyph name="D" xMin="55" yMin="0" xMax="399" yMax="640">
      <contour>
        <pt x="260" y="640" on="0"/>
        <pt x="355" y="574" on="0"/>
        <pt x="399" y="433" on="0"/>
        <pt x="399" y="317" on="1"/>
        <pt x="399" y="201" on="0"/>
        <pt x="355" y="63" on="0"/>
        <pt x="261" y="0" on="0"/>
        <pt x="182" y="0" on="1"/>
        <pt x="55" y="0" on="1"/>
        <pt x="55" y="640" on="1"/>
        <pt x="181" y="640" on="1"/>
      </contour>
      <contour>
        <pt x="175" y="72" on="1"/>
        <pt x="231" y="72" on="0"/>
        <pt x="284" y="122" on="0"/>
        <pt x="301" y="222" on="0"/>
        <pt x="301" y="317" on="1"/>
        <pt x="301" y="415" on="0"/>
        <pt x="284" y="518" on="0"/>
        <pt x="230" y="568" on="0"/>
        <pt x="175" y="568" on="1"/>
        <pt x="147" y="568" on="1"/>
        <pt x="147" y="72" on="1"/>
      </contour>
    </TTGlyph>
    <TTGlyph name="D.sups" xMin="128" yMin="320" xMax="320" yMax="640">
      <contour>
        <pt x="256" y="640" on="1"/>
        <pt x="256" y="576" on="1"/>
        <pt x="192" y="576" on="1"/>
        <pt x="192" y="384" on="1"/>
        <pt x="256" y="384" on="1"/>
        <pt x="256" y="320" on="1"/>
        <pt x="128" y="320" on="1"/>
        <pt x="128" y="640" on="1"/>
      </contour>
      <contour>
        <pt x="256" y="576" on="1"/>
        <pt x="320" y="576" on="1"/>
        <pt x="320" y="384" on="1"/>
        <pt x="256" y="384" on="1"/>
      </contour>
    </TTGlyph>
    <TTGlyph name="Dcaron" xMin="55" yMin="0" xMax="399" yMax="788">
      <component glyphName="D" x="0" y="0" flags="0x0"/>
      <component glyphName="uni030C.case" x="-12" y="0" flags="0x0"/>
    </TTGlyph>
    <TTGlyph name="Dcroat" xMin="0" yMin="0" xMax="399" yMax="640">
      <component glyphName="Eth" x="0" y="0" flags="0x0"/>
    </TTGlyph>
    <TTGlyph name="E" xMin="55" yMin="0" xMax="394" yMax="640">
      <contour>
        <pt x="55" y="640" on="1"/>
        <pt x="384" y="640" on="1"/>
        <pt x="384" y="568" on="1"/>
        <pt x="147" y="568" on="1"/>
        <pt x="147" y="324" on="1"/>
        <pt x="330" y="324" on="1"/>
        <pt x="330" y="252" on="1"/>
        <pt x="147" y="252" on="1"/>
        <pt x="147" y="72" on="1"/>
        <pt x="394" y="72" on="1"/>
        <pt x="394" y="0" on="1"/>
        <pt x="55" y="0" on="1"/>
      </contour>
    </TTGlyph>
    <TTGlyph name="E.sups" xMin="128" yMin="320" xMax="320" yMax="640">
      <contour>
        <pt x="128" y="640" on="1"/>
        <pt x="316" y="640" on="1"/>
        <pt x="316" y="584" on="1"/>
        <pt x="192" y="584" on="1"/>
        <pt x="192" y="508" on="1"/>
        <pt x="304" y="508" on="1"/>
        <pt x="304" y="452" on="1"/>
        <pt x="192" y="452" on="1"/>
        <pt x="192" y="376" on="1"/>
        <pt x="320" y="376" on="1"/>
        <pt x="320" y="320" on="1"/>
        <pt x="128" y="320" on="1"/>
      </contour>
    </TTGlyph>
    <TTGlyph name="Eacute" xMin="55" yMin="0" xMax="394" yMax="844">
      <component glyphName="E" x="0" y="0" flags="0x0"/>
      <component glyphName="acutecomb.case" x="-4" y="0" flags="0x0"/>
    </TTGlyph>
    <TTGlyph name="Ebreve" xMin="55" yMin="0" xMax="394" yMax="841">
      <component glyphName="E" x="0" y="0" flags="0x0"/>
      <component glyphName="uni0306.case" x="-4" y="0" flags="0x0"/>
    </TTGlyph>
    <TTGlyph name="Ecaron" xMin="55" yMin="0" xMax="394" yMax="788">
      <component glyphName="E" x="0" y="0" flags="0x0"/>
      <component glyphName="uni030C.case" x="-4" y="0" flags="0x0"/>
    </TTGlyph>
    <TTGlyph name="Ecircumflex" xMin="55" yMin="0" xMax="394" yMax="842">
      <component glyphName="E" x="0" y="0" flags="0x0"/>
      <component glyphName="uni0302.case" x="-4" y="0" flags="0x0"/>
    </TTGlyph>
    <TTGlyph name="Edieresis" xMin="55" yMin="0" xMax="394" yMax="823">
      <component glyphName="E" x="0" y="0" flags="0x0"/>
      <component glyphName="uni0308.case" x="-4" y="0" flags="0x0"/>
    </TTGlyph>
    <TTGlyph name="Edotaccent" xMin="55" yMin="0" xMax="394" yMax="822">
      <component glyphName="E" x="0" y="0" flags="0x0"/>
      <component glyphName="uni0307.case" x="-4" y="0" flags="0x0"/>
    </TTGlyph>
    <TTGlyph name="Egrave" xMin="55" yMin="0" xMax="394" yMax="844">
      <component glyphName="E" x="0" y="0" flags="0x0"/>
      <component glyphName="gravecomb.case" x="-4" y="0" flags="0x0"/>
    </TTGlyph>
    <TTGlyph name="Emacron" xMin="55" yMin="0" xMax="394" yMax="773">
      <component glyphName="E" x="0" y="0" flags="0x0"/>
      <component glyphName="uni0304.case" x="-4" y="0" flags="0x0"/>
    </TTGlyph>
    <TTGlyph name="Eng" xMin="55" yMin="-196" xMax="393" yMax="640">
      <contour>
        <pt x="393" y="-82" on="0"/>
        <pt x="335" y="-170" on="0"/>
        <pt x="267" y="-196" on="1"/>
        <pt x="234" y="-126" on="1"/>
        <pt x="276" y="-109" on="0"/>
        <pt x="306" y="-61" on="0"/>
        <pt x="306" y="-13" on="1"/>
        <pt x="306" y="3" on="1"/>
        <pt x="168" y="376" on="1"/>
        <pt x="138" y="500" on="1"/>
        <pt x="142" y="0" on="1"/>
        <pt x="55" y="0" on="1"/>
        <pt x="55" y="640" on="1"/>
        <pt x="152" y="640" on="1"/>
        <pt x="290" y="267" on="1"/>
        <pt x="310" y="183" on="1"/>
        <pt x="306" y="640" on="1"/>
        <pt x="393" y="640" on="1"/>
        <pt x="393" y="-5" on="1"/>
      </contour>
    </TTGlyph>
    <TTGlyph name="Eogonek" xMin="55" yMin="-197" xMax="411" yMax="640">
      <component glyphName="E" x="0" y="0" flags="0x0"/>
      <component glyphName="uni0328" x="10" y="0" flags="0x0"/>
    </TTGlyph>
    <TTGlyph name="Epsilon" xMin="55" yMin="0" xMax="394" yMax="640">
      <component glyphName="E" x="0" y="0" flags="0x0"/>
    </TTGlyph>
    <TTGlyph name="Epsilontonos" xMin="-76" yMin="0" xMax="394" yMax="704">
      <component glyphName="E" x="0" y="0" flags="0x0"/>
      <component glyphName="tonos" x="-256" y="0" flags="0x0"/>
    </TTGlyph>
    <TTGlyph name="Eta" xMin="55" yMin="0" xMax="393" yMax="640">
      <component glyphName="H" x="0" y="0" flags="0x0"/>
    </TTGlyph>
    <TTGlyph name="Etatonos" xMin="-76" yMin="0" xMax="393" yMax="704">
      <component glyphName="H" x="0" y="0" flags="0x0"/>
      <component glyphName="tonos" x="-256" y="0" flags="0x0"/>
    </TTGlyph>
    <TTGlyph name="Eth" xMin="0" yMin="0" xMax="399" yMax="640">
      <contour>
        <pt x="55" y="324" on="1"/>
        <pt x="55" y="640" on="1"/>
        <pt x="181" y="640" on="1"/>
        <pt x="260" y="640" on="0"/>
        <pt x="355" y="574" on="0"/>
        <pt x="399" y="433" on="0"/>
        <pt x="399" y="317" on="1"/>
        <pt x="399" y="201" on="0"/>
        <pt x="355" y="63" on="0"/>
        <pt x="261" y="0" on="0"/>
        <pt x="182" y="0" on="1"/>
        <pt x="55" y="0" on="1"/>
        <pt x="55" y="252" on="1"/>
        <pt x="0" y="252" on="1"/>
        <pt x="0" y="324" on="1"/>
      </contour>
      <contour>
        <pt x="175" y="72" on="1"/>
        <pt x="231" y="72" on="0"/>
        <pt x="284" y="122" on="0"/>
        <pt x="301" y="222" on="0"/>
        <pt x="301" y="317" on="1"/>
        <pt x="301" y="415" on="0"/>
        <pt x="284" y="518" on="0"/>
        <pt x="230" y="568" on="0"/>
        <pt x="175" y="568" on="1"/>
        <pt x="147" y="568" on="1"/>
        <pt x="147" y="324" on="1"/>
        <pt x="241" y="324" on="1"/>
        <pt x="241" y="252" on="1"/>
        <pt x="147" y="252" on="1"/>
        <pt x="147" y="72" on="1"/>
      </contour>
    </TTGlyph>
    <TTGlyph name="Euro" xMin="64" yMin="-7" xMax="409" yMax="583">
      <contour>
        <pt x="348" y="57" on="0"/>
        <pt x="393" y="72" on="1"/>
        <pt x="409" y="13" on="1"/>
        <pt x="386" y="3" on="0"/>
        <pt x="331" y="-7" on="0"/>
        <pt x="308" y="-7" on="1"/>
        <pt x="225" y="-7" on="0"/>
        <pt x="132" y="93" on="0"/>
        <pt x="118" y="192" on="1"/>
        <pt x="64" y="192" on="1"/>
        <pt x="64" y="254" on="1"/>
        <pt x="113" y="254" on="1"/>
        <pt x="112" y="265" on="0"/>
        <pt x="112" y="288" on="1"/>
        <pt x="113" y="322" on="1"/>
        <pt x="64" y="322" on="1"/>
        <pt x="64" y="384" on="1"/>
        <pt x="118" y="384" on="1"/>
        <pt x="146" y="583" on="0"/>
        <pt x="308" y="583" on="1"/>
        <pt x="331" y="583" on="0"/>
        <pt x="386" y="573" on="0"/>
        <pt x="409" y="563" on="1"/>
        <pt x="393" y="504" on="1"/>
        <pt x="348" y="519" on="0"/>
        <pt x="308" y="519" on="1"/>
        <pt x="259" y="519" on="0"/>
        <pt x="200" y="455" on="0"/>
        <pt x="190" y="384" on="1"/>
        <pt x="367" y="384" on="1"/>
        <pt x="352" y="322" on="1"/>
        <pt x="185" y="322" on="1"/>
        <pt x="184" y="311" on="0"/>
        <pt x="184" y="288" on="1"/>
        <pt x="185" y="254" on="1"/>
        <pt x="339" y="254" on="1"/>
        <pt x="325" y="192" on="1"/>
        <pt x="190" y="192" on="1"/>
        <pt x="200" y="119" on="0"/>
        <pt x="258" y="57" on="0"/>
        <pt x="308" y="57" on="1"/>
      </contour>
    </TTGlyph>
    <TTGlyph name="F" xMin="54" yMin="0" xMax="394" yMax="640">
      <contour>
        <pt x="54" y="640" on="1"/>
        <pt x="394" y="640" on="1"/>
        <pt x="394" y="568" on="1"/>
        <pt x="146" y="568" on="1"/>
        <pt x="146" y="324" on="1"/>
        <pt x="330" y="324" on="1"/>
        <pt x="330" y="252" on="1"/>
        <pt x="146" y="252" on="1"/>
        <pt x="146" y="0" on="1"/>
        <pt x="54" y="0" on="1"/>
      </contour>
    </TTGlyph>
    <TTGlyph name="F.sups" xMin="128" yMin="320" xMax="320" yMax="640">
      <contour>
        <pt x="128" y="640" on="1"/>
        <pt x="320" y="640" on="1"/>
        <pt x="320" y="584" on="1"/>
        <pt x="192" y="584" on="1"/>
        <pt x="192" y="504" on="1"/>
        <pt x="300" y="504" on="1"/>
        <pt x="300" y="448" on="1"/>
        <pt x="192" y="448" on="1"/>
        <pt x="192" y="320" on="1"/>
        <pt x="128" y="320" on="1"/>
      </contour>
    </TTGlyph>
    <TTGlyph name="G" xMin="49" yMin="-9" xMax="393" yMax="647">
      <contour>
        <pt x="188" y="-9" on="0"/>
        <pt x="93" y="55" on="0"/>
        <pt x="49" y="197" on="0"/>
        <pt x="49" y="319" on="1"/>
        <pt x="49" y="441" on="0"/>
        <pt x="93" y="583" on="0"/>
        <pt x="188" y="647" on="0"/>
        <pt x="270" y="647" on="1"/>
        <pt x="333" y="647" on="0"/>
        <pt x="390" y="631" on="1"/>
        <pt x="376" y="563" on="1"/>
        <pt x="328" y="575" on="0"/>
        <pt x="283" y="575" on="1"/>
        <pt x="222" y="575" on="0"/>
        <pt x="164" y="525" on="0"/>
        <pt x="147" y="421" on="0"/>
        <pt x="147" y="319" on="1"/>
        <pt x="147" y="217" on="0"/>
        <pt x="163" y="114" on="0"/>
        <pt x="218" y="63" on="0"/>
        <pt x="275" y="63" on="1"/>
        <pt x="292" y="63" on="0"/>
        <pt x="301" y="64" on="1"/>
        <pt x="301" y="252" on="1"/>
        <pt x="219" y="252" on="1"/>
        <pt x="219" y="324" on="1"/>
        <pt x="393" y="324" on="1"/>
        <pt x="393" y="7" on="1"/>
        <pt x="366" y="-1" on="0"/>
        <pt x="298" y="-9" on="0"/>
        <pt x="270" y="-9" on="1"/>
      </contour>
    </TTGlyph>
    <TTGlyph name="G.sups" xMin="128" yMin="320" xMax="320" yMax="640">
      <contour>
        <pt x="192" y="576" on="1"/>
        <pt x="192" y="384" on="1"/>
        <pt x="128" y="384" on="1"/>
        <pt x="128" y="576" on="1"/>
      </contour>
      <contour>
        <pt x="192" y="384" on="1"/>
        <pt x="256" y="384" on="1"/>
        <pt x="256" y="512" on="1"/>
        <pt x="320" y="512" on="1"/>
        <pt x="320" y="320" on="1"/>
        <pt x="192" y="320" on="1"/>
      </contour>
      <contour>
        <pt x="192" y="640" on="1"/>
        <pt x="320" y="640" on="1"/>
        <pt x="320" y="576" on="1"/>
        <pt x="192" y="576" on="1"/>
      </contour>
    </TTGlyph>
    <TTGlyph name="Gamma" xMin="55" yMin="0" xMax="389" yMax="640">
      <component glyphName="uni0413" x="0" y="0" flags="0x0"/>
    </TTGlyph>
    <TTGlyph name="Gbreve" xMin="49" yMin="-9" xMax="393" yMax="841">
      <component glyphName="G" x="0" y="0" flags="0x0"/>
      <component glyphName="uni0306.case" x="20" y="0" flags="0x0"/>
    </TTGlyph>
    <TTGlyph name="Gcaron" xMin="49" yMin="-9" xMax="393" yMax="788">
      <component glyphName="G" x="0" y="0" flags="0x0"/>
      <component glyphName="uni030C.case" x="20" y="0" flags="0x0"/>
    </TTGlyph>
    <TTGlyph name="Gcircumflex" xMin="49" yMin="-9" xMax="393" yMax="842">
      <component glyphName="G" x="0" y="0" flags="0x0"/>
      <component glyphName="uni0302.case" x="20" y="0" flags="0x0"/>
    </TTGlyph>
    <TTGlyph name="Gdotaccent" xMin="49" yMin="-9" xMax="393" yMax="822">
      <component glyphName="G" x="0" y="0" flags="0x0"/>
      <component glyphName="uni0307.case" x="20" y="0" flags="0x0"/>
    </TTGlyph>
    <TTGlyph name="H" xMin="55" yMin="0" xMax="393" yMax="640">
      <contour>
        <pt x="55" y="640" on="1"/>
        <pt x="147" y="640" on="1"/>
        <pt x="147" y="324" on="1"/>
        <pt x="301" y="324" on="1"/>
        <pt x="301" y="640" on="1"/>
        <pt x="393" y="640" on="1"/>
        <pt x="393" y="0" on="1"/>
        <pt x="301" y="0" on="1"/>
        <pt x="301" y="252" on="1"/>
        <pt x="147" y="252" on="1"/>
        <pt x="147" y="0" on="1"/>
        <pt x="55" y="0" on="1"/>
      </contour>
    </TTGlyph>
    <TTGlyph name="H.sups" xMin="128" yMin="320" xMax="320" yMax="640">
      <contour>
        <pt x="192" y="508" on="1"/>
        <pt x="256" y="508" on="1"/>
        <pt x="256" y="640" on="1"/>
        <pt x="320" y="640" on="1"/>
        <pt x="320" y="320" on="1"/>
        <pt x="256" y="320" on="1"/>
        <pt x="256" y="452" on="1"/>
        <pt x="192" y="452" on="1"/>
        <pt x="192" y="320" on="1"/>
        <pt x="128" y="320" on="1"/>
        <pt x="128" y="640" on="1"/>
        <pt x="192" y="640" on="1"/>
      </contour>
    </TTGlyph>
    <TTGlyph name="Hbar" xMin="5" yMin="0" xMax="443" yMax="640">
      <contour>
        <pt x="55" y="508" on="1"/>
        <pt x="55" y="640" on="1"/>
        <pt x="147" y="640" on="1"/>
        <pt x="147" y="508" on="1"/>
        <pt x="301" y="508" on="1"/>
        <pt x="301" y="640" on="1"/>
        <pt x="393" y="640" on="1"/>
        <pt x="393" y="508" on="1"/>
        <pt x="443" y="508" on="1"/>
        <pt x="443" y="440" on="1"/>
        <pt x="393" y="440" on="1"/>
        <pt x="393" y="0" on="1"/>
        <pt x="301" y="0" on="1"/>
        <pt x="301" y="252" on="1"/>
        <pt x="147" y="252" on="1"/>
        <pt x="147" y="0" on="1"/>
        <pt x="55" y="0" on="1"/>
        <pt x="55" y="440" on="1"/>
        <pt x="5" y="440" on="1"/>
        <pt x="5" y="508" on="1"/>
      </contour>
      <contour>
        <pt x="301" y="324" on="1"/>
        <pt x="301" y="440" on="1"/>
        <pt x="147" y="440" on="1"/>
        <pt x="147" y="324" on="1"/>
      </contour>
    </TTGlyph>
    <TTGlyph name="Hcircumflex" xMin="55" yMin="0" xMax="393" yMax="842">
      <component glyphName="H" x="0" y="0" flags="0x0"/>
      <component glyphName="uni0302.case" x="0" y="0" flags="0x0"/>
    </TTGlyph>
    <TTGlyph name="I" xMin="58" yMin="0" xMax="390" yMax="640">
      <contour>
        <pt x="58" y="61" on="1"/>
        <pt x="178" y="72" on="1"/>
        <pt x="178" y="568" on="1"/>
        <pt x="62" y="579" on="1"/>
        <pt x="62" y="640" on="1"/>
        <pt x="386" y="640" on="1"/>
        <pt x="386" y="579" on="1"/>
        <pt x="270" y="568" on="1"/>
        <pt x="270" y="72" on="1"/>
        <pt x="390" y="61" on="1"/>
        <pt x="390" y="0" on="1"/>
        <pt x="58" y="0" on="1"/>
      </contour>
    </TTGlyph>
    <TTGlyph name="I.sups" xMin="128" yMin="320" xMax="320" yMax="640">
      <contour>
        <pt x="320" y="320" on="1"/>
        <pt x="128" y="320" on="1"/>
        <pt x="128" y="368" on="1"/>
        <pt x="192" y="376" on="1"/>
        <pt x="192" y="584" on="1"/>
        <pt x="128" y="592" on="1"/>
        <pt x="128" y="640" on="1"/>
        <pt x="320" y="640" on="1"/>
        <pt x="320" y="592" on="1"/>
        <pt x="256" y="584" on="1"/>
        <pt x="256" y="376" on="1"/>
        <pt x="320" y="368" on="1"/>
      </contour>
    </TTGlyph>
    <TTGlyph name="IJ" xMin="3" yMin="0" xMax="406" yMax="640">
      <contour>
        <pt x="3" y="61" on="1"/>
        <pt x="54" y="72" on="1"/>
        <pt x="54" y="568" on="1"/>
        <pt x="5" y="579" on="1"/>
        <pt x="5" y="640" on="1"/>
        <pt x="191" y="640" on="1"/>
        <pt x="191" y="579" on="1"/>
        <pt x="146" y="568" on="1"/>
        <pt x="146" y="72" on="1"/>
        <pt x="232" y="72" on="1"/>
        <pt x="278" y="72" on="0"/>
        <pt x="314" y="125" on="0"/>
        <pt x="314" y="177" on="1"/>
        <pt x="314" y="568" on="1"/>
        <pt x="230" y="568" on="1"/>
        <pt x="230" y="640" on="1"/>
        <pt x="406" y="640" on="1"/>
        <pt x="406" y="181" on="1"/>
        <pt x="406" y="88" on="0"/>
        <pt x="313" y="0" on="0"/>
        <pt x="232" y="0" on="1"/>
        <pt x="3" y="0" on="1"/>
      </contour>
    </TTGlyph>
    <TTGlyph name="Iacute" xMin="58" yMin="0" xMax="390" yMax="844">
      <component glyphName="I" x="0" y="0" flags="0x0"/>
      <component glyphName="acutecomb.case" x="0" y="0" flags="0x0"/>
    </TTGlyph>
    <TTGlyph name="Iacute_J.loclNLD" xMin="3" yMin="0" xMax="406" yMax="844">
      <component glyphName="IJ" x="0" y="0" flags="0x0"/>
      <component glyphName="acutecomb.case" x="0" y="0" flags="0x0"/>
    </TTGlyph>
    <TTGlyph name="Ibreve" xMin="58" yMin="0" xMax="390" yMax="841">
      <component glyphName="I" x="0" y="0" flags="0x0"/>
      <component glyphName="uni0306.case" x="0" y="0" flags="0x0"/>
    </TTGlyph>
    <TTGlyph name="Icircumflex" xMin="58" yMin="0" xMax="390" yMax="842">
      <component glyphName="I" x="0" y="0" flags="0x0"/>
      <component glyphName="uni0302.case" x="0" y="0" flags="0x0"/>
    </TTGlyph>
    <TTGlyph name="Idieresis" xMin="58" yMin="0" xMax="390" yMax="823">
      <component glyphName="I" x="0" y="0" flags="0x0"/>
      <component glyphName="uni0308.case" x="0" y="0" flags="0x0"/>
    </TTGlyph>
    <TTGlyph name="Idotaccent" xMin="58" yMin="0" xMax="390" yMax="822">
      <component glyphName="I" x="0" y="0" flags="0x0"/>
      <component glyphName="uni0307.case" x="0" y="0" flags="0x0"/>
    </TTGlyph>
    <TTGlyph name="Igrave" xMin="58" yMin="0" xMax="390" yMax="844">
      <component glyphName="I" x="0" y="0" flags="0x0"/>
      <component glyphName="gravecomb.case" x="0" y="0" flags="0x0"/>
    </TTGlyph>
    <TTGlyph name="Imacron" xMin="58" yMin="0" xMax="390" yMax="773">
      <component glyphName="I" x="0" y="0" flags="0x0"/>
      <component glyphName="uni0304.case" x="0" y="0" flags="0x0"/>
    </TTGlyph>
    <TTGlyph name="Iogonek" xMin="58" yMin="-197" xMax="407" yMax="640">
      <component glyphName="I" x="0" y="0" flags="0x0"/>
      <component glyphName="uni0328" x="6" y="0" flags="0x0"/>
    </TTGlyph>
    <TTGlyph name="Iota" xMin="58" yMin="0" xMax="390" yMax="640">
      <component glyphName="I" x="0" y="0" flags="0x0"/>
    </TTGlyph>
    <TTGlyph name="Iotadieresis" xMin="58" yMin="0" xMax="390" yMax="823">
      <component glyphName="I" x="0" y="0" flags="0x0"/>
      <component glyphName="uni0308.case" x="0" y="0" flags="0x0"/>
    </TTGlyph>
    <TTGlyph name="Iotatonos" xMin="-76" yMin="0" xMax="390" yMax="704">
      <component glyphName="I" x="0" y="0" flags="0x0"/>
      <component glyphName="tonos" x="-256" y="0" flags="0x0"/>
    </TTGlyph>
    <TTGlyph name="Itilde" xMin="58" yMin="0" xMax="390" yMax="840">
      <component glyphName="I" x="0" y="0" flags="0x0"/>
      <component glyphName="tildecomb.case" x="0" y="0" flags="0x0"/>
    </TTGlyph>
    <TTGlyph name="J" xMin="57" yMin="-8" xMax="393" yMax="640">
      <contour>
        <pt x="153" y="106" on="0"/>
        <pt x="191" y="64" on="0"/>
        <pt x="224" y="64" on="1"/>
        <pt x="267" y="64" on="0"/>
        <pt x="301" y="117" on="0"/>
        <pt x="301" y="169" on="1"/>
        <pt x="301" y="564" on="1"/>
        <pt x="147" y="564" on="1"/>
        <pt x="147" y="640" on="1"/>
        <pt x="393" y="640" on="1"/>
        <pt x="393" y="173" on="1"/>
        <pt x="393" y="80" on="0"/>
        <pt x="303" y="-8" on="0"/>
        <pt x="224" y="-8" on="1"/>
        <pt x="87" y="-8" on="0"/>
        <pt x="57" y="128" on="1"/>
        <pt x="143" y="149" on="1"/>
      </contour>
    </TTGlyph>
    <TTGlyph name="J.sups" xMin="128" yMin="320" xMax="320" yMax="640">
      <contour>
        <pt x="320" y="640" on="1"/>
        <pt x="320" y="384" on="1"/>
        <pt x="256" y="384" on="1"/>
        <pt x="256" y="576" on="1"/>
        <pt x="128" y="576" on="1"/>
        <pt x="128" y="640" on="1"/>
      </contour>
      <contour>
        <pt x="128" y="384" on="1"/>
        <pt x="256" y="384" on="1"/>
        <pt x="256" y="320" on="1"/>
        <pt x="128" y="320" on="1"/>
      </contour>
    </TTGlyph>
    <TTGlyph name="Jcircumflex" xMin="57" yMin="-8" xMax="419" yMax="842">
      <component glyphName="J" x="0" y="0" flags="0x0"/>
      <component glyphName="uni0302.case" x="46" y="0" flags="0x0"/>
    </TTGlyph>
    <TTGlyph name="K" xMin="55" yMin="0" xMax="407" yMax="640">
      <contour>
        <pt x="55" y="640" on="1"/>
        <pt x="147" y="640" on="1"/>
        <pt x="147" y="329" on="1"/>
        <pt x="177" y="329" on="1"/>
        <pt x="231" y="398" on="0"/>
        <pt x="293" y="540" on="0"/>
        <pt x="310" y="640" on="1"/>
        <pt x="407" y="640" on="1"/>
        <pt x="389" y="537" on="0"/>
        <pt x="328" y="391" on="0"/>
        <pt x="273" y="321" on="1"/>
        <pt x="331" y="306" on="0"/>
        <pt x="389" y="220" on="0"/>
        <pt x="394" y="150" on="1"/>
        <pt x="406" y="0" on="1"/>
        <pt x="310" y="0" on="1"/>
        <pt x="302" y="144" on="1"/>
        <pt x="299" y="206" on="0"/>
        <pt x="253" y="257" on="0"/>
        <pt x="199" y="257" on="1"/>
        <pt x="147" y="257" on="1"/>
        <pt x="147" y="0" on="1"/>
        <pt x="55" y="0" on="1"/>
      </contour>
    </TTGlyph>
    <TTGlyph name="K.sups" xMin="128" yMin="320" xMax="320" yMax="640">
      <contour>
        <pt x="192" y="640" on="1"/>
        <pt x="192" y="512" on="1"/>
        <pt x="256" y="512" on="1"/>
        <pt x="256" y="448" on="1"/>
        <pt x="192" y="448" on="1"/>
        <pt x="192" y="320" on="1"/>
        <pt x="128" y="320" on="1"/>
        <pt x="128" y="640" on="1"/>
      </contour>
      <contour>
        <pt x="256" y="448" on="1"/>
        <pt x="320" y="448" on="1"/>
        <pt x="320" y="320" on="1"/>
        <pt x="256" y="320" on="1"/>
      </contour>
      <contour>
        <pt x="256" y="640" on="1"/>
        <pt x="320" y="640" on="1"/>
        <pt x="320" y="512" on="1"/>
        <pt x="256" y="512" on="1"/>
      </contour>
    </TTGlyph>
    <TTGlyph name="Kappa" xMin="55" yMin="0" xMax="407" yMax="640">
      <component glyphName="K" x="0" y="0" flags="0x0"/>
    </TTGlyph>
    <TTGlyph name="L" xMin="55" yMin="0" xMax="389" yMax="640">
      <contour>
        <pt x="55" y="640" on="1"/>
        <pt x="147" y="640" on="1"/>
        <pt x="147" y="76" on="1"/>
        <pt x="389" y="76" on="1"/>
        <pt x="389" y="0" on="1"/>
        <pt x="55" y="0" on="1"/>
      </contour>
    </TTGlyph>
    <TTGlyph name="L.sups" xMin="128" yMin="320" xMax="320" yMax="640">
      <contour>
        <pt x="320" y="320" on="1"/>
        <pt x="128" y="320" on="1"/>
        <pt x="128" y="640" on="1"/>
        <pt x="192" y="640" on="1"/>
        <pt x="192" y="376" on="1"/>
        <pt x="320" y="376" on="1"/>
      </contour>
    </TTGlyph>
    <TTGlyph name="Lacute" xMin="55" yMin="0" xMax="389" yMax="844">
      <component glyphName="L" x="0" y="0" flags="0x0"/>
      <component glyphName="acutecomb.case" x="-123" y="0" flags="0x0"/>
    </TTGlyph>
    <TTGlyph name="Lambda" xMin="30" yMin="0" xMax="418" yMax="642">
      <contour>
        <pt x="45" y="187" on="0"/>
        <pt x="123" y="520" on="0"/>
        <pt x="182" y="642" on="1"/>
        <pt x="266" y="642" on="1"/>
        <pt x="326" y="520" on="0"/>
        <pt x="403" y="187" on="0"/>
        <pt x="418" y="0" on="1"/>
        <pt x="323" y="0" on="1"/>
        <pt x="310" y="161" on="0"/>
        <pt x="260" y="434" on="0"/>
        <pt x="224" y="536" on="1"/>
        <pt x="152" y="325" on="0"/>
        <pt x="125" y="0" on="1"/>
        <pt x="30" y="0" on="1"/>
      </contour>
    </TTGlyph>
    <TTGlyph name="Lcaron" xMin="55" yMin="0" xMax="389" yMax="640">
      <component glyphName="L" x="0" y="0" flags="0x0"/>
      <component glyphName="uni0315" x="-64" y="0" flags="0x0"/>
    </TTGlyph>
    <TTGlyph name="Ldot" xMin="55" yMin="0" xMax="394" yMax="640">
      <component glyphName="L" x="0" y="0" flags="0x0"/>
      <component glyphName="period" x="128" y="256" flags="0x4"/>
    </TTGlyph>
    <TTGlyph name="Lslash" xMin="-39" yMin="0" xMax="389" yMax="640">
      <component glyphName="L" x="0" y="0" flags="0x0"/>
      <component glyphName="_part.slash.comp" x="-112" y="0" flags="0x0"/>
    </TTGlyph>
    <TTGlyph name="M" xMin="9" yMin="0" xMax="439" yMax="640">
      <contour>
        <pt x="14" y="356" on="0"/>
        <pt x="34" y="640" on="1"/>
        <pt x="131" y="640" on="1"/>
        <pt x="223" y="289" on="1"/>
        <pt x="225" y="289" on="1"/>
        <pt x="318" y="640" on="1"/>
        <pt x="414" y="640" on="1"/>
        <pt x="434" y="356" on="0"/>
        <pt x="439" y="0" on="1"/>
        <pt x="346" y="0" on="1"/>
        <pt x="346" y="226" on="0"/>
        <pt x="337" y="442" on="1"/>
        <pt x="335" y="442" on="1"/>
        <pt x="252" y="139" on="1"/>
        <pt x="196" y="139" on="1"/>
        <pt x="112" y="442" on="1"/>
        <pt x="110" y="442" on="1"/>
        <pt x="102" y="212" on="0"/>
        <pt x="102" y="0" on="1"/>
        <pt x="9" y="0" on="1"/>
      </contour>
    </TTGlyph>
    <TTGlyph name="M.sups" xMin="128" yMin="320" xMax="320" yMax="640">
      <contour>
        <pt x="320" y="640" on="1"/>
        <pt x="320" y="320" on="1"/>
        <pt x="256" y="320" on="1"/>
        <pt x="256" y="384" on="1"/>
        <pt x="192" y="384" on="1"/>
        <pt x="192" y="320" on="1"/>
        <pt x="128" y="320" on="1"/>
        <pt x="128" y="640" on="1"/>
      </contour>
    </TTGlyph>
    <TTGlyph name="Mu" xMin="9" yMin="0" xMax="439" yMax="640">
      <component glyphName="M" x="0" y="0" flags="0x0"/>
    </TTGlyph>
    <TTGlyph name="N" xMin="55" yMin="0" xMax="393" yMax="640">
      <contour>
        <pt x="152" y="640" on="1"/>
        <pt x="284" y="264" on="1"/>
        <pt x="310" y="147" on="1"/>
        <pt x="306" y="640" on="1"/>
        <pt x="393" y="640" on="1"/>
        <pt x="393" y="0" on="1"/>
        <pt x="296" y="0" on="1"/>
        <pt x="164" y="376" on="1"/>
        <pt x="138" y="491" on="1"/>
        <pt x="142" y="0" on="1"/>
        <pt x="55" y="0" on="1"/>
        <pt x="55" y="640" on="1"/>
      </contour>
    </TTGlyph>
    <TTGlyph name="N.sups" xMin="128" yMin="320" xMax="320" yMax="640">
      <contour>
        <pt x="256" y="640" on="1"/>
        <pt x="256" y="576" on="1"/>
        <pt x="192" y="576" on="1"/>
        <pt x="192" y="320" on="1"/>
        <pt x="128" y="320" on="1"/>
        <pt x="128" y="640" on="1"/>
      </contour>
      <contour>
        <pt x="256" y="576" on="1"/>
        <pt x="320" y="576" on="1"/>
        <pt x="320" y="320" on="1"/>
        <pt x="256" y="320" on="1"/>
      </contour>
    </TTGlyph>
    <TTGlyph name="Nacute" xMin="55" yMin="0" xMax="393" yMax="844">
      <component glyphName="N" x="0" y="0" flags="0x0"/>
      <component glyphName="acutecomb.case" x="0" y="0" flags="0x0"/>
    </TTGlyph>
    <TTGlyph name="Ncaron" xMin="55" yMin="0" xMax="393" yMax="788">
      <component glyphName="N" x="0" y="0" flags="0x0"/>
      <component glyphName="uni030C.case" x="0" y="0" flags="0x0"/>
    </TTGlyph>
    <TTGlyph name="Ntilde" xMin="55" yMin="0" xMax="393" yMax="840">
      <component glyphName="N" x="0" y="0" flags="0x0"/>
      <component glyphName="tildecomb.case" x="0" y="0" flags="0x0"/>
    </TTGlyph>
    <TTGlyph name="Nu" xMin="55" yMin="0" xMax="393" yMax="640">
      <component glyphName="N" x="0" y="0" flags="0x0"/>
    </TTGlyph>
    <TTGlyph name="O" xMin="32" yMin="-10" xMax="416" yMax="650">
      <contour>
        <pt x="32" y="-10" on="0"/>
        <pt x="32" y="319" on="1"/>
        <pt x="32" y="486" on="0"/>
        <pt x="127" y="650" on="0"/>
        <pt x="224" y="650" on="1"/>
        <pt x="323" y="650" on="0"/>
        <pt x="416" y="487" on="0"/>
        <pt x="416" y="319" on="1"/>
        <pt x="416" y="154" on="0"/>
        <pt x="323" y="-10" on="0"/>
        <pt x="224" y="-10" on="1"/>
      </contour>
      <contour>
        <pt x="128" y="225" on="0"/>
        <pt x="147" y="115" on="0"/>
        <pt x="189" y="64" on="0"/>
        <pt x="224" y="64" on="1"/>
        <pt x="259" y="64" on="0"/>
        <pt x="301" y="115" on="0"/>
        <pt x="320" y="225" on="0"/>
        <pt x="320" y="319" on="1"/>
        <pt x="320" y="414" on="0"/>
        <pt x="301" y="525" on="0"/>
        <pt x="259" y="576" on="0"/>
        <pt x="224" y="576" on="1"/>
        <pt x="189" y="576" on="0"/>
        <pt x="147" y="525" on="0"/>
        <pt x="128" y="414" on="0"/>
        <pt x="128" y="319" on="1"/>
      </contour>
    </TTGlyph>
    <TTGlyph name="O.sups" xMin="128" yMin="320" xMax="320" yMax="640">
      <contour>
        <pt x="320" y="640" on="1"/>
        <pt x="320" y="320" on="1"/>
        <pt x="128" y="320" on="1"/>
        <pt x="128" y="640" on="1"/>
      </contour>
      <contour>
        <pt x="256" y="384" on="1"/>
        <pt x="256" y="576" on="1"/>
        <pt x="192" y="576" on="1"/>
        <pt x="192" y="384" on="1"/>
      </contour>
    </TTGlyph>
    <TTGlyph name="OE" xMin="-8" yMin="0" xMax="452" yMax="640">
      <contour>
        <pt x="-8" y="0" on="0"/>
        <pt x="-8" y="319" on="1"/>
        <pt x="-8" y="480" on="0"/>
        <pt x="80" y="640" on="0"/>
        <pt x="169" y="640" on="1"/>
        <pt x="442" y="640" on="1"/>
        <pt x="442" y="568" on="1"/>
        <pt x="286" y="568" on="1"/>
        <pt x="286" y="324" on="1"/>
        <pt x="407" y="324" on="1"/>
        <pt x="407" y="252" on="1"/>
        <pt x="286" y="252" on="1"/>
        <pt x="286" y="72" on="1"/>
        <pt x="452" y="72" on="1"/>
        <pt x="452" y="0" on="1"/>
        <pt x="169" y="0" on="1"/>
      </contour>
      <contour>
        <pt x="88" y="185" on="0"/>
        <pt x="125" y="72" on="0"/>
        <pt x="169" y="72" on="1"/>
        <pt x="194" y="72" on="1"/>
        <pt x="194" y="568" on="1"/>
        <pt x="169" y="568" on="1"/>
        <pt x="139" y="568" on="0"/>
        <pt x="104" y="519" on="0"/>
        <pt x="88" y="411" on="0"/>
        <pt x="88" y="319" on="1"/>
      </contour>
    </TTGlyph>
    <TTGlyph name="Oacute" xMin="32" yMin="-10" xMax="416" yMax="844">
      <component glyphName="O" x="0" y="0" flags="0x0"/>
      <component glyphName="acutecomb.case" x="0" y="0" flags="0x0"/>
    </TTGlyph>
    <TTGlyph name="Obreve" xMin="32" yMin="-10" xMax="416" yMax="841">
      <component glyphName="O" x="0" y="0" flags="0x0"/>
      <component glyphName="uni0306.case" x="0" y="0" flags="0x0"/>
    </TTGlyph>
    <TTGlyph name="Ocircumflex" xMin="32" yMin="-10" xMax="416" yMax="842">
      <component glyphName="O" x="0" y="0" flags="0x0"/>
      <component glyphName="uni0302.case" x="0" y="0" flags="0x0"/>
    </TTGlyph>
    <TTGlyph name="Odieresis" xMin="32" yMin="-10" xMax="416" yMax="823">
      <component glyphName="O" x="0" y="0" flags="0x0"/>
      <component glyphName="uni0308.case" x="0" y="0" flags="0x0"/>
    </TTGlyph>
    <TTGlyph name="Ograve" xMin="32" yMin="-10" xMax="416" yMax="844">
      <component glyphName="O" x="0" y="0" flags="0x0"/>
      <component glyphName="gravecomb.case" x="0" y="0" flags="0x0"/>
    </TTGlyph>
    <TTGlyph name="Ohungarumlaut" xMin="32" yMin="-10" xMax="422" yMax="844">
      <component glyphName="O" x="0" y="0" flags="0x0"/>
      <component glyphName="uni030B.case" x="0" y="0" flags="0x0"/>
    </TTGlyph>
    <TTGlyph name="Omacron" xMin="32" yMin="-10" xMax="416" yMax="773">
      <component glyphName="O" x="0" y="0" flags="0x0"/>
      <component glyphName="uni0304.case" x="0" y="0" flags="0x0"/>
    </TTGlyph>
    <TTGlyph name="Omegatonos" xMin="-76" yMin="0" xMax="411" yMax="704">
      <component glyphName="uni03A9" x="0" y="0" flags="0x0"/>
      <component glyphName="tonos" x="-256" y="0" flags="0x0"/>
    </TTGlyph>
    <TTGlyph name="Omicron" xMin="32" yMin="-10" xMax="416" yMax="650">
      <component glyphName="O" x="0" y="0" flags="0x0"/>
    </TTGlyph>
    <TTGlyph name="Omicrontonos" xMin="-76" yMin="-10" xMax="416" yMax="704">
      <component glyphName="O" x="0" y="0" flags="0x0"/>
      <component glyphName="tonos" x="-256" y="0" flags="0x0"/>
    </TTGlyph>
    <TTGlyph name="Oslash" xMin="28" yMin="-21" xMax="420" yMax="661">
      <contour>
        <pt x="420" y="626" on="1"/>
        <pt x="380" y="547" on="1"/>
        <pt x="416" y="469" on="0"/>
        <pt x="416" y="319" on="1"/>
        <pt x="416" y="154" on="0"/>
        <pt x="323" y="-10" on="0"/>
        <pt x="224" y="-10" on="1"/>
        <pt x="163" y="-10" on="0"/>
        <pt x="120" y="25" on="1"/>
        <pt x="97" y="-21" on="1"/>
        <pt x="28" y="15" on="1"/>
        <pt x="68" y="95" on="1"/>
        <pt x="32" y="176" on="0"/>
        <pt x="32" y="319" on="1"/>
        <pt x="32" y="486" on="0"/>
        <pt x="127" y="650" on="0"/>
        <pt x="224" y="650" on="1"/>
        <pt x="289" y="650" on="0"/>
        <pt x="330" y="616" on="1"/>
        <pt x="352" y="661" on="1"/>
      </contour>
      <contour>
        <pt x="128" y="263" on="0"/>
        <pt x="131" y="221" on="1"/>
        <pt x="290" y="537" on="1"/>
        <pt x="267" y="576" on="0"/>
        <pt x="224" y="576" on="1"/>
        <pt x="189" y="576" on="0"/>
        <pt x="147" y="525" on="0"/>
        <pt x="128" y="414" on="0"/>
        <pt x="128" y="319" on="1"/>
      </contour>
      <contour>
        <pt x="181" y="64" on="0"/>
        <pt x="224" y="64" on="1"/>
        <pt x="259" y="64" on="0"/>
        <pt x="301" y="115" on="0"/>
        <pt x="320" y="225" on="0"/>
        <pt x="320" y="319" on="1"/>
        <pt x="320" y="376" on="0"/>
        <pt x="317" y="419" on="1"/>
        <pt x="159" y="103" on="1"/>
      </contour>
    </TTGlyph>
    <TTGlyph name="Oslashacute" xMin="28" yMin="-21" xMax="420" yMax="844">
      <component glyphName="Oslash" x="0" y="0" flags="0x0"/>
      <component glyphName="acutecomb.case" x="0" y="0" flags="0x0"/>
    </TTGlyph>
    <TTGlyph name="Otilde" xMin="32" yMin="-10" xMax="416" yMax="840">
      <component glyphName="O" x="0" y="0" flags="0x0"/>
      <component glyphName="tildecomb.case" x="0" y="0" flags="0x0"/>
    </TTGlyph>
    <TTGlyph name="P" xMin="55" yMin="0" xMax="406" yMax="640">
      <contour>
        <pt x="55" y="640" on="1"/>
        <pt x="217" y="640" on="1"/>
        <pt x="304" y="640" on="0"/>
        <pt x="406" y="521" on="0"/>
        <pt x="406" y="412" on="1"/>
        <pt x="406" y="303" on="0"/>
        <pt x="305" y="188" on="0"/>
        <pt x="217" y="188" on="1"/>
        <pt x="147" y="188" on="1"/>
        <pt x="147" y="0" on="1"/>
        <pt x="55" y="0" on="1"/>
      </contour>
      <contour>
        <pt x="201" y="260" on="1"/>
        <pt x="264" y="260" on="0"/>
        <pt x="310" y="337" on="0"/>
        <pt x="310" y="412" on="1"/>
        <pt x="310" y="489" on="0"/>
        <pt x="263" y="568" on="0"/>
        <pt x="201" y="568" on="1"/>
        <pt x="147" y="568" on="1"/>
        <pt x="147" y="260" on="1"/>
      </contour>
    </TTGlyph>
    <TTGlyph name="P.sups" xMin="128" yMin="320" xMax="320" yMax="640">
      <contour>
        <pt x="320" y="640" on="1"/>
        <pt x="320" y="448" on="1"/>
        <pt x="192" y="448" on="1"/>
        <pt x="192" y="320" on="1"/>
        <pt x="128" y="320" on="1"/>
        <pt x="128" y="640" on="1"/>
      </contour>
      <contour>
        <pt x="256" y="512" on="1"/>
        <pt x="256" y="576" on="1"/>
        <pt x="192" y="576" on="1"/>
        <pt x="192" y="512" on="1"/>
      </contour>
    </TTGlyph>
    <TTGlyph name="Phi" xMin="64" yMin="0" xMax="384" yMax="640">
      <component glyphName="uni0424" x="0" y="0" flags="0x0"/>
    </TTGlyph>
    <TTGlyph name="Pi" xMin="55" yMin="0" xMax="393" yMax="640">
      <component glyphName="uni041F" x="0" y="0" flags="0x0"/>
    </TTGlyph>
    <TTGlyph name="Psi" xMin="64" yMin="0" xMax="384" yMax="640">
      <contour>
        <pt x="128" y="256" on="1"/>
        <pt x="128" y="320" on="1"/>
        <pt x="192" y="320" on="1"/>
        <pt x="192" y="640" on="1"/>
        <pt x="256" y="640" on="1"/>
        <pt x="256" y="320" on="1"/>
        <pt x="320" y="320" on="1"/>
        <pt x="320" y="256" on="1"/>
        <pt x="256" y="256" on="1"/>
        <pt x="256" y="0" on="1"/>
        <pt x="192" y="0" on="1"/>
        <pt x="192" y="256" on="1"/>
      </contour>
      <contour>
        <pt x="64" y="640" on="1"/>
        <pt x="128" y="640" on="1"/>
        <pt x="128" y="320" on="1"/>
        <pt x="64" y="320" on="1"/>
      </contour>
      <contour>
        <pt x="320" y="640" on="1"/>
        <pt x="384" y="640" on="1"/>
        <pt x="384" y="320" on="1"/>
        <pt x="320" y="320" on="1"/>
      </contour>
    </TTGlyph>
    <TTGlyph name="Q" xMin="32" yMin="-149" xMax="418" yMax="650">
      <contour>
        <pt x="321" y="-144" on="0"/>
        <pt x="216" y="-77" on="0"/>
        <pt x="200" y="-9" on="1"/>
        <pt x="32" y="12" on="0"/>
        <pt x="32" y="319" on="1"/>
        <pt x="32" y="486" on="0"/>
        <pt x="127" y="650" on="0"/>
        <pt x="224" y="650" on="1"/>
        <pt x="323" y="650" on="0"/>
        <pt x="416" y="487" on="0"/>
        <pt x="416" y="319" on="1"/>
        <pt x="416" y="181" on="0"/>
        <pt x="350" y="21" on="0"/>
        <pt x="282" y="-1" on="1"/>
        <pt x="291" y="-38" on="0"/>
        <pt x="353" y="-66" on="0"/>
        <pt x="418" y="-69" on="1"/>
        <pt x="409" y="-149" on="1"/>
      </contour>
      <contour>
        <pt x="128" y="225" on="0"/>
        <pt x="147" y="115" on="0"/>
        <pt x="189" y="64" on="0"/>
        <pt x="224" y="64" on="1"/>
        <pt x="259" y="64" on="0"/>
        <pt x="301" y="115" on="0"/>
        <pt x="320" y="225" on="0"/>
        <pt x="320" y="319" on="1"/>
        <pt x="320" y="414" on="0"/>
        <pt x="301" y="525" on="0"/>
        <pt x="259" y="576" on="0"/>
        <pt x="224" y="576" on="1"/>
        <pt x="189" y="576" on="0"/>
        <pt x="147" y="525" on="0"/>
        <pt x="128" y="414" on="0"/>
        <pt x="128" y="319" on="1"/>
      </contour>
    </TTGlyph>
    <TTGlyph name="Q.sups" xMin="128" yMin="256" xMax="320" yMax="640">
      <contour>
        <pt x="320" y="640" on="1"/>
        <pt x="320" y="320" on="1"/>
        <pt x="256" y="320" on="1"/>
        <pt x="256" y="256" on="1"/>
        <pt x="192" y="256" on="1"/>
        <pt x="192" y="320" on="1"/>
        <pt x="128" y="320" on="1"/>
        <pt x="128" y="640" on="1"/>
      </contour>
      <contour>
        <pt x="256" y="384" on="1"/>
        <pt x="256" y="576" on="1"/>
        <pt x="192" y="576" on="1"/>
        <pt x="192" y="384" on="1"/>
      </contour>
    </TTGlyph>
    <TTGlyph name="R" xMin="55" yMin="0" xMax="416" yMax="640">
      <contour>
        <pt x="304" y="640" on="0"/>
        <pt x="406" y="533" on="0"/>
        <pt x="406" y="437" on="1"/>
        <pt x="406" y="361" on="0"/>
        <pt x="337" y="268" on="0"/>
        <pt x="275" y="253" on="1"/>
        <pt x="335" y="224" on="0"/>
        <pt x="409" y="93" on="0"/>
        <pt x="416" y="0" on="1"/>
        <pt x="322" y="0" on="1"/>
        <pt x="313" y="94" on="0"/>
        <pt x="246" y="204" on="0"/>
        <pt x="182" y="237" on="1"/>
        <pt x="147" y="237" on="1"/>
        <pt x="147" y="0" on="1"/>
        <pt x="55" y="0" on="1"/>
        <pt x="55" y="640" on="1"/>
        <pt x="217" y="640" on="1"/>
      </contour>
      <contour>
        <pt x="201" y="309" on="1"/>
        <pt x="263" y="309" on="0"/>
        <pt x="310" y="376" on="0"/>
        <pt x="310" y="441" on="1"/>
        <pt x="310" y="506" on="0"/>
        <pt x="262" y="573" on="0"/>
        <pt x="201" y="573" on="1"/>
        <pt x="147" y="573" on="1"/>
        <pt x="147" y="309" on="1"/>
      </contour>
    </TTGlyph>
    <TTGlyph name="R.sups" xMin="128" yMin="320" xMax="320" yMax="640">
      <contour>
        <pt x="320" y="640" on="1"/>
        <pt x="320" y="512" on="1"/>
        <pt x="256" y="512" on="1"/>
        <pt x="256" y="576" on="1"/>
        <pt x="192" y="576" on="1"/>
        <pt x="192" y="512" on="1"/>
        <pt x="256" y="512" on="1"/>
        <pt x="256" y="448" on="1"/>
        <pt x="192" y="448" on="1"/>
        <pt x="192" y="320" on="1"/>
        <pt x="128" y="320" on="1"/>
        <pt x="128" y="640" on="1"/>
      </contour>
      <contour>
        <pt x="256" y="448" on="1"/>
        <pt x="320" y="448" on="1"/>
        <pt x="320" y="320" on="1"/>
        <pt x="256" y="320" on="1"/>
      </contour>
    </TTGlyph>
    <TTGlyph name="Racute" xMin="55" yMin="0" xMax="416" yMax="844">
      <component glyphName="R" x="0" y="0" flags="0x0"/>
      <component glyphName="acutecomb.case" x="0" y="0" flags="0x0"/>
    </TTGlyph>
    <TTGlyph name="Rcaron" xMin="55" yMin="0" xMax="416" yMax="788">
      <component glyphName="R" x="0" y="0" flags="0x0"/>
      <component glyphName="uni030C.case" x="0" y="0" flags="0x0"/>
    </TTGlyph>
    <TTGlyph name="Rho" xMin="55" yMin="0" xMax="406" yMax="640">
      <component glyphName="P" x="0" y="0" flags="0x0"/>
    </TTGlyph>
    <TTGlyph name="S" xMin="44" yMin="-8" xMax="396" yMax="648">
      <contour>
        <pt x="158" y="-8" on="0"/>
        <pt x="78" y="7" on="0"/>
        <pt x="44" y="21" on="1"/>
        <pt x="66" y="90" on="1"/>
        <pt x="99" y="78" on="0"/>
        <pt x="155" y="65" on="0"/>
        <pt x="188" y="65" on="1"/>
        <pt x="300" y="65" on="0"/>
        <pt x="300" y="148" on="1"/>
        <pt x="300" y="177" on="0"/>
        <pt x="274" y="216" on="0"/>
        <pt x="235" y="241" on="0"/>
        <pt x="200" y="257" on="1"/>
        <pt x="153" y="280" on="0"/>
        <pt x="95" y="320" on="0"/>
        <pt x="54" y="397" on="0"/>
        <pt x="54" y="458" on="1"/>
        <pt x="54" y="545" on="0"/>
        <pt x="159" y="648" on="0"/>
        <pt x="258" y="648" on="1"/>
        <pt x="328" y="648" on="0"/>
        <pt x="383" y="628" on="1"/>
        <pt x="365" y="558" on="1"/>
        <pt x="311" y="575" on="0"/>
        <pt x="265" y="575" on="1"/>
        <pt x="199" y="575" on="0"/>
        <pt x="150" y="517" on="0"/>
        <pt x="150" y="464" on="1"/>
        <pt x="150" y="427" on="0"/>
        <pt x="180" y="378" on="0"/>
        <pt x="224" y="349" on="0"/>
        <pt x="263" y="329" on="1"/>
        <pt x="306" y="308" on="0"/>
        <pt x="359" y="272" on="0"/>
        <pt x="396" y="206" on="0"/>
        <pt x="396" y="155" on="1"/>
        <pt x="396" y="73" on="0"/>
        <pt x="293" y="-8" on="0"/>
        <pt x="196" y="-8" on="1"/>
      </contour>
    </TTGlyph>
    <TTGlyph name="S.sups" xMin="125" yMin="316" xMax="320" yMax="644">
      <contour>
        <pt x="171" y="316" on="0"/>
        <pt x="125" y="326" on="1"/>
        <pt x="134" y="377" on="1"/>
        <pt x="188" y="370" on="0"/>
        <pt x="208" y="370" on="1"/>
        <pt x="234" y="370" on="0"/>
        <pt x="256" y="390" on="0"/>
        <pt x="256" y="410" on="1"/>
        <pt x="256" y="431" on="0"/>
        <pt x="235" y="447" on="0"/>
        <pt x="201" y="458" on="1"/>
        <pt x="164" y="471" on="0"/>
        <pt x="128" y="512" on="0"/>
        <pt x="128" y="550" on="1"/>
        <pt x="128" y="591" on="0"/>
        <pt x="178" y="644" on="0"/>
        <pt x="234" y="644" on="1"/>
        <pt x="275" y="644" on="0"/>
        <pt x="315" y="634" on="1"/>
        <pt x="305" y="583" on="1"/>
        <pt x="265" y="590" on="0"/>
        <pt x="238" y="590" on="1"/>
        <pt x="192" y="590" on="0"/>
        <pt x="192" y="552" on="1"/>
        <pt x="192" y="533" on="0"/>
        <pt x="212" y="519" on="0"/>
        <pt x="240" y="510" on="1"/>
        <pt x="282" y="497" on="0"/>
        <pt x="320" y="456" on="0"/>
        <pt x="320" y="412" on="1"/>
        <pt x="320" y="367" on="0"/>
        <pt x="266" y="316" on="0"/>
        <pt x="214" y="316" on="1"/>
      </contour>
    </TTGlyph>
    <TTGlyph name="Sacute" xMin="44" yMin="-8" xMax="396" yMax="844">
      <component glyphName="S" x="0" y="0" flags="0x0"/>
      <component glyphName="acutecomb.case" x="0" y="0" flags="0x0"/>
    </TTGlyph>
    <TTGlyph name="Scaron" xMin="44" yMin="-8" xMax="396" yMax="788">
      <component glyphName="S" x="0" y="0" flags="0x0"/>
      <component glyphName="uni030C.case" x="0" y="0" flags="0x0"/>
    </TTGlyph>
    <TTGlyph name="Scedilla" xMin="44" yMin="-172" xMax="396" yMax="648">
      <component glyphName="S" x="0" y="0" flags="0x0"/>
      <component glyphName="uni0327" x="-55" y="20" flags="0x4"/>
    </TTGlyph>
    <TTGlyph name="Scircumflex" xMin="44" yMin="-8" xMax="396" yMax="842">
      <component glyphName="S" x="0" y="0" flags="0x0"/>
      <component glyphName="uni0302.case" x="0" y="0" flags="0x0"/>
    </TTGlyph>
    <TTGlyph name="Sigma" xMin="64" yMin="0" xMax="384" yMax="640">
      <contour>
        <pt x="384" y="640" on="1"/>
        <pt x="384" y="576" on="1"/>
        <pt x="128" y="576" on="1"/>
        <pt x="128" y="512" on="1"/>
        <pt x="64" y="512" on="1"/>
        <pt x="64" y="640" on="1"/>
      </contour>
      <contour>
        <pt x="64" y="128" on="1"/>
        <pt x="128" y="128" on="1"/>
        <pt x="128" y="64" on="1"/>
        <pt x="384" y="64" on="1"/>
        <pt x="384" y="0" on="1"/>
        <pt x="64" y="0" on="1"/>
      </contour>
      <contour>
        <pt x="128" y="256" on="1"/>
        <pt x="192" y="256" on="1"/>
        <pt x="192" y="128" on="1"/>
        <pt x="128" y="128" on="1"/>
      </contour>
      <contour>
        <pt x="128" y="512" on="1"/>
        <pt x="192" y="512" on="1"/>
        <pt x="192" y="384" on="1"/>
        <pt x="128" y="384" on="1"/>
      </contour>
      <contour>
        <pt x="192" y="384" on="1"/>
        <pt x="256" y="384" on="1"/>
        <pt x="256" y="256" on="1"/>
        <pt x="192" y="256" on="1"/>
      </contour>
    </TTGlyph>
    <TTGlyph name="T" xMin="34" yMin="0" xMax="414" yMax="640">
      <contour>
        <pt x="270" y="568" on="1"/>
        <pt x="270" y="0" on="1"/>
        <pt x="178" y="0" on="1"/>
        <pt x="178" y="568" on="1"/>
        <pt x="34" y="568" on="1"/>
        <pt x="34" y="640" on="1"/>
        <pt x="414" y="640" on="1"/>
        <pt x="414" y="568" on="1"/>
      </contour>
    </TTGlyph>
    <TTGlyph name="T.sups" xMin="120" yMin="320" xMax="328" yMax="640">
      <contour>
        <pt x="328" y="584" on="1"/>
        <pt x="256" y="584" on="1"/>
        <pt x="256" y="320" on="1"/>
        <pt x="192" y="320" on="1"/>
        <pt x="192" y="584" on="1"/>
        <pt x="120" y="584" on="1"/>
        <pt x="120" y="640" on="1"/>
        <pt x="328" y="640" on="1"/>
      </contour>
    </TTGlyph>
    <TTGlyph name="Tau" xMin="34" yMin="0" xMax="414" yMax="640">
      <component glyphName="T" x="0" y="0" flags="0x0"/>
    </TTGlyph>
    <TTGlyph name="Tbar" xMin="34" yMin="0" xMax="414" yMax="640">
      <contour>
        <pt x="270" y="254" on="1"/>
        <pt x="270" y="0" on="1"/>
        <pt x="178" y="0" on="1"/>
        <pt x="178" y="254" on="1"/>
        <pt x="79" y="254" on="1"/>
        <pt x="79" y="322" on="1"/>
        <pt x="178" y="322" on="1"/>
        <pt x="178" y="568" on="1"/>
        <pt x="34" y="568" on="1"/>
        <pt x="34" y="640" on="1"/>
        <pt x="414" y="640" on="1"/>
        <pt x="414" y="568" on="1"/>
        <pt x="270" y="568" on="1"/>
        <pt x="270" y="322" on="1"/>
        <pt x="369" y="322" on="1"/>
        <pt x="369" y="254" on="1"/>
      </contour>
    </TTGlyph>
    <TTGlyph name="Tcaron" xMin="34" yMin="0" xMax="414" yMax="788">
      <component glyphName="T" x="0" y="0" flags="0x0"/>
      <component glyphName="uni030C.case" x="0" y="0" flags="0x0"/>
    </TTGlyph>
    <TTGlyph name="Theta" xMin="32" yMin="-10" xMax="416" yMax="650">
      <contour>
        <pt x="32" y="-10" on="0"/>
        <pt x="32" y="319" on="1"/>
        <pt x="32" y="486" on="0"/>
        <pt x="127" y="650" on="0"/>
        <pt x="224" y="650" on="1"/>
        <pt x="323" y="650" on="0"/>
        <pt x="416" y="487" on="0"/>
        <pt x="416" y="319" on="1"/>
        <pt x="416" y="154" on="0"/>
        <pt x="323" y="-10" on="0"/>
        <pt x="224" y="-10" on="1"/>
      </contour>
      <contour>
        <pt x="320" y="324" on="1"/>
        <pt x="320" y="416" on="0"/>
        <pt x="301" y="526" on="0"/>
        <pt x="259" y="576" on="0"/>
        <pt x="224" y="576" on="1"/>
        <pt x="189" y="576" on="0"/>
        <pt x="147" y="526" on="0"/>
        <pt x="128" y="416" on="0"/>
        <pt x="128" y="324" on="1"/>
      </contour>
      <contour>
        <pt x="134" y="151" on="0"/>
        <pt x="178" y="64" on="0"/>
        <pt x="224" y="64" on="1"/>
        <pt x="270" y="64" on="0"/>
        <pt x="314" y="151" on="0"/>
        <pt x="319" y="252" on="1"/>
        <pt x="129" y="252" on="1"/>
      </contour>
    </TTGlyph>
    <TTGlyph name="Thorn" xMin="55" yMin="0" xMax="406" yMax="640">
      <contour>
        <pt x="304" y="516" on="0"/>
        <pt x="406" y="412" on="0"/>
        <pt x="406" y="318" on="1"/>
        <pt x="406" y="224" on="0"/>
        <pt x="304" y="124" on="0"/>
        <pt x="217" y="124" on="1"/>
        <pt x="147" y="124" on="1"/>
        <pt x="147" y="0" on="1"/>
        <pt x="55" y="0" on="1"/>
        <pt x="55" y="640" on="1"/>
        <pt x="147" y="640" on="1"/>
        <pt x="147" y="516" on="1"/>
        <pt x="217" y="516" on="1"/>
      </contour>
      <contour>
        <pt x="201" y="196" on="1"/>
        <pt x="264" y="196" on="0"/>
        <pt x="312" y="258" on="0"/>
        <pt x="312" y="318" on="1"/>
        <pt x="312" y="381" on="0"/>
        <pt x="263" y="444" on="0"/>
        <pt x="201" y="444" on="1"/>
        <pt x="147" y="444" on="1"/>
        <pt x="147" y="196" on="1"/>
      </contour>
    </TTGlyph>
    <TTGlyph name="U" xMin="55" yMin="-8" xMax="393" yMax="640">
      <contour>
        <pt x="147" y="640" on="1"/>
        <pt x="147" y="176" on="1"/>
        <pt x="147" y="119" on="0"/>
        <pt x="179" y="64" on="0"/>
        <pt x="224" y="64" on="1"/>
        <pt x="267" y="64" on="0"/>
        <pt x="301" y="120" on="0"/>
        <pt x="301" y="176" on="1"/>
        <pt x="301" y="640" on="1"/>
        <pt x="393" y="640" on="1"/>
        <pt x="393" y="180" on="1"/>
        <pt x="393" y="83" on="0"/>
        <pt x="303" y="-8" on="0"/>
        <pt x="224" y="-8" on="1"/>
        <pt x="145" y="-8" on="0"/>
        <pt x="55" y="83" on="0"/>
        <pt x="55" y="180" on="1"/>
        <pt x="55" y="640" on="1"/>
      </contour>
    </TTGlyph>
    <TTGlyph name="U.sups" xMin="128" yMin="320" xMax="320" yMax="640">
      <contour>
        <pt x="192" y="640" on="1"/>
        <pt x="192" y="384" on="1"/>
        <pt x="128" y="384" on="1"/>
        <pt x="128" y="640" on="1"/>
      </contour>
      <contour>
        <pt x="192" y="384" on="1"/>
        <pt x="256" y="384" on="1"/>
        <pt x="256" y="640" on="1"/>
        <pt x="320" y="640" on="1"/>
        <pt x="320" y="320" on="1"/>
        <pt x="192" y="320" on="1"/>
      </contour>
    </TTGlyph>
    <TTGlyph name="Uacute" xMin="55" yMin="-8" xMax="393" yMax="844">
      <component glyphName="U" x="0" y="0" flags="0x0"/>
      <component glyphName="acutecomb.case" x="0" y="0" flags="0x0"/>
    </TTGlyph>
    <TTGlyph name="Ubreve" xMin="55" yMin="-8" xMax="393" yMax="841">
      <component glyphName="U" x="0" y="0" flags="0x0"/>
      <component glyphName="uni0306.case" x="0" y="0" flags="0x0"/>
    </TTGlyph>
    <TTGlyph name="Ucircumflex" xMin="55" yMin="-8" xMax="393" yMax="842">
      <component glyphName="U" x="0" y="0" flags="0x0"/>
      <component glyphName="uni0302.case" x="0" y="0" flags="0x0"/>
    </TTGlyph>
    <TTGlyph name="Udieresis" xMin="55" yMin="-8" xMax="393" yMax="823">
      <component glyphName="U" x="0" y="0" flags="0x0"/>
      <component glyphName="uni0308.case" x="0" y="0" flags="0x0"/>
    </TTGlyph>
    <TTGlyph name="Ugrave" xMin="55" yMin="-8" xMax="393" yMax="844">
      <component glyphName="U" x="0" y="0" flags="0x0"/>
      <component glyphName="gravecomb.case" x="0" y="0" flags="0x0"/>
    </TTGlyph>
    <TTGlyph name="Uhungarumlaut" xMin="55" yMin="-8" xMax="422" yMax="844">
      <component glyphName="U" x="0" y="0" flags="0x0"/>
      <component glyphName="uni030B.case" x="0" y="0" flags="0x0"/>
    </TTGlyph>
    <TTGlyph name="Umacron" xMin="55" yMin="-8" xMax="393" yMax="773">
      <component glyphName="U" x="0" y="0" flags="0x0"/>
      <component glyphName="uni0304.case" x="0" y="0" flags="0x0"/>
    </TTGlyph>
    <TTGlyph name="Uogonek" xMin="55" yMin="-197" xMax="393" yMax="640">
      <component glyphName="U" x="0" y="0" flags="0x0"/>
      <component glyphName="uni0328" x="-100" y="0" flags="0x0"/>
    </TTGlyph>
    <TTGlyph name="Upsilon" xMin="31" yMin="0" xMax="417" yMax="640">
      <component glyphName="Y" x="0" y="0" flags="0x0"/>
    </TTGlyph>
    <TTGlyph name="Upsilondieresis" xMin="31" yMin="0" xMax="417" yMax="823">
      <component glyphName="Y" x="0" y="0" flags="0x0"/>
      <component glyphName="uni0308.case" x="0" y="0" flags="0x0"/>
    </TTGlyph>
    <TTGlyph name="Upsilontonos" xMin="-76" yMin="0" xMax="417" yMax="704">
      <component glyphName="Y" x="0" y="0" flags="0x0"/>
      <component glyphName="tonos" x="-256" y="0" flags="0x0"/>
    </TTGlyph>
    <TTGlyph name="Uring" xMin="55" yMin="-8" xMax="393" yMax="894">
      <component glyphName="U" x="0" y="0" flags="0x0"/>
      <component glyphName="uni030A.case" x="0" y="0" flags="0x0"/>
    </TTGlyph>
    <TTGlyph name="Utilde" xMin="55" yMin="-8" xMax="393" yMax="840">
      <component glyphName="U" x="0" y="0" flags="0x0"/>
      <component glyphName="tildecomb.case" x="0" y="0" flags="0x0"/>
    </TTGlyph>
    <TTGlyph name="V" xMin="30" yMin="-2" xMax="418" yMax="640">
      <contour>
        <pt x="123" y="120" on="0"/>
        <pt x="45" y="453" on="0"/>
        <pt x="30" y="640" on="1"/>
        <pt x="125" y="640" on="1"/>
        <pt x="152" y="315" on="0"/>
        <pt x="224" y="104" on="1"/>
        <pt x="260" y="206" on="0"/>
        <pt x="310" y="479" on="0"/>
        <pt x="323" y="640" on="1"/>
        <pt x="418" y="640" on="1"/>
        <pt x="403" y="454" on="0"/>
        <pt x="326" y="120" on="0"/>
        <pt x="266" y="-2" on="1"/>
        <pt x="182" y="-2" on="1"/>
      </contour>
    </TTGlyph>
    <TTGlyph name="V.sups" xMin="106" yMin="320" xMax="341" yMax="640">
      <contour>
        <pt x="184" y="515" on="0"/>
        <pt x="224" y="384" on="1"/>
        <pt x="264" y="518" on="0"/>
        <pt x="280" y="640" on="1"/>
        <pt x="341" y="640" on="1"/>
        <pt x="320" y="477" on="0"/>
        <pt x="252" y="320" on="1"/>
        <pt x="196" y="320" on="1"/>
        <pt x="126" y="486" on="0"/>
        <pt x="106" y="640" on="1"/>
        <pt x="168" y="640" on="1"/>
      </contour>
    </TTGlyph>
    <TTGlyph name="W" xMin="32" yMin="0" xMax="416" yMax="640">
      <contour>
        <pt x="64" y="151" on="0"/>
        <pt x="34" y="441" on="0"/>
        <pt x="32" y="640" on="1"/>
        <pt x="124" y="640" on="1"/>
        <pt x="126" y="453" on="0"/>
        <pt x="137" y="221" on="0"/>
        <pt x="154" y="106" on="1"/>
        <pt x="187" y="274" on="0"/>
        <pt x="187" y="448" on="1"/>
        <pt x="261" y="448" on="1"/>
        <pt x="261" y="274" on="0"/>
        <pt x="294" y="106" on="1"/>
        <pt x="311" y="221" on="0"/>
        <pt x="322" y="453" on="0"/>
        <pt x="324" y="640" on="1"/>
        <pt x="416" y="640" on="1"/>
        <pt x="414" y="441" on="0"/>
        <pt x="384" y="151" on="0"/>
        <pt x="346" y="0" on="1"/>
        <pt x="265" y="0" on="1"/>
        <pt x="234" y="91" on="0"/>
        <pt x="224" y="192" on="1"/>
        <pt x="213" y="86" on="0"/>
        <pt x="184" y="0" on="1"/>
        <pt x="102" y="0" on="1"/>
      </contour>
    </TTGlyph>
    <TTGlyph name="W.sups" xMin="128" yMin="320" xMax="320" yMax="640">
      <contour>
        <pt x="192" y="640" on="1"/>
        <pt x="192" y="576" on="1"/>
        <pt x="256" y="576" on="1"/>
        <pt x="256" y="640" on="1"/>
        <pt x="320" y="640" on="1"/>
        <pt x="320" y="320" on="1"/>
        <pt x="128" y="320" on="1"/>
        <pt x="128" y="640" on="1"/>
      </contour>
    </TTGlyph>
    <TTGlyph name="Wacute" xMin="32" yMin="0" xMax="416" yMax="844">
      <component glyphName="W" x="0" y="0" flags="0x0"/>
      <component glyphName="acutecomb.case" x="0" y="0" flags="0x0"/>
    </TTGlyph>
    <TTGlyph name="Wcircumflex" xMin="32" yMin="0" xMax="416" yMax="842">
      <component glyphName="W" x="0" y="0" flags="0x0"/>
      <component glyphName="uni0302.case" x="0" y="0" flags="0x0"/>
    </TTGlyph>
    <TTGlyph name="Wdieresis" xMin="32" yMin="0" xMax="416" yMax="823">
      <component glyphName="W" x="0" y="0" flags="0x0"/>
      <component glyphName="uni0308.case" x="0" y="0" flags="0x0"/>
    </TTGlyph>
    <TTGlyph name="Wgrave" xMin="32" yMin="0" xMax="416" yMax="844">
      <component glyphName="W" x="0" y="0" flags="0x0"/>
      <component glyphName="gravecomb.case" x="0" y="0" flags="0x0"/>
    </TTGlyph>
    <TTGlyph name="X" xMin="42" yMin="0" xMax="405" yMax="640">
      <contour>
        <pt x="59" y="95" on="0"/>
        <pt x="113" y="229" on="0"/>
        <pt x="165" y="300" on="1"/>
        <pt x="112" y="365" on="0"/>
        <pt x="63" y="517" on="0"/>
        <pt x="51" y="640" on="1"/>
        <pt x="143" y="640" on="1"/>
        <pt x="153" y="531" on="0"/>
        <pt x="188" y="408" on="0"/>
        <pt x="224" y="359" on="1"/>
        <pt x="261" y="407" on="0"/>
        <pt x="296" y="532" on="0"/>
        <pt x="305" y="640" on="1"/>
        <pt x="397" y="640" on="1"/>
        <pt x="386" y="518" on="0"/>
        <pt x="336" y="366" on="0"/>
        <pt x="283" y="300" on="1"/>
        <pt x="335" y="229" on="0"/>
        <pt x="388" y="96" on="0"/>
        <pt x="405" y="0" on="1"/>
        <pt x="311" y="0" on="1"/>
        <pt x="294" y="86" on="0"/>
        <pt x="258" y="189" on="0"/>
        <pt x="224" y="239" on="1"/>
        <pt x="190" y="189" on="0"/>
        <pt x="152" y="85" on="0"/>
        <pt x="136" y="0" on="1"/>
        <pt x="42" y="0" on="1"/>
      </contour>
    </TTGlyph>
    <TTGlyph name="X.sups" xMin="128" yMin="320" xMax="320" yMax="640">
      <contour>
        <pt x="192" y="640" on="1"/>
        <pt x="192" y="512" on="1"/>
        <pt x="128" y="512" on="1"/>
        <pt x="128" y="640" on="1"/>
      </contour>
      <contour>
        <pt x="128" y="448" on="1"/>
        <pt x="192" y="448" on="1"/>
        <pt x="192" y="320" on="1"/>
        <pt x="128" y="320" on="1"/>
      </contour>
      <contour>
        <pt x="192" y="512" on="1"/>
        <pt x="256" y="512" on="1"/>
        <pt x="256" y="448" on="1"/>
        <pt x="192" y="448" on="1"/>
      </contour>
      <contour>
        <pt x="256" y="448" on="1"/>
        <pt x="320" y="448" on="1"/>
        <pt x="320" y="320" on="1"/>
        <pt x="256" y="320" on="1"/>
      </contour>
      <contour>
        <pt x="256" y="640" on="1"/>
        <pt x="320" y="640" on="1"/>
        <pt x="320" y="512" on="1"/>
        <pt x="256" y="512" on="1"/>
      </contour>
    </TTGlyph>
    <TTGlyph name="Xi" xMin="50" yMin="0" xMax="398" yMax="640">
      <contour>
        <pt x="393" y="640" on="1"/>
        <pt x="393" y="560" on="1"/>
        <pt x="55" y="560" on="1"/>
        <pt x="55" y="640" on="1"/>
      </contour>
      <contour>
        <pt x="50" y="80" on="1"/>
        <pt x="398" y="80" on="1"/>
        <pt x="398" y="0" on="1"/>
        <pt x="50" y="0" on="1"/>
      </contour>
      <contour>
        <pt x="104" y="328" on="1"/>
        <pt x="344" y="328" on="1"/>
        <pt x="344" y="248" on="1"/>
        <pt x="104" y="248" on="1"/>
      </contour>
    </TTGlyph>
    <TTGlyph name="Y" xMin="31" yMin="0" xMax="417" yMax="640">
      <contour>
        <pt x="178" y="202" on="1"/>
        <pt x="118" y="285" on="0"/>
        <pt x="47" y="498" on="0"/>
        <pt x="31" y="640" on="1"/>
        <pt x="123" y="640" on="1"/>
        <pt x="134" y="521" on="0"/>
        <pt x="178" y="354" on="0"/>
        <pt x="224" y="266" on="1"/>
        <pt x="270" y="354" on="0"/>
        <pt x="315" y="521" on="0"/>
        <pt x="325" y="640" on="1"/>
        <pt x="417" y="640" on="1"/>
        <pt x="402" y="498" on="0"/>
        <pt x="330" y="285" on="0"/>
        <pt x="270" y="202" on="1"/>
        <pt x="270" y="0" on="1"/>
        <pt x="178" y="0" on="1"/>
      </contour>
    </TTGlyph>
    <TTGlyph name="Y.sups" xMin="128" yMin="320" xMax="320" yMax="640">
      <contour>
        <pt x="192" y="640" on="1"/>
        <pt x="192" y="512" on="1"/>
        <pt x="256" y="512" on="1"/>
        <pt x="256" y="640" on="1"/>
        <pt x="320" y="640" on="1"/>
        <pt x="320" y="384" on="1"/>
        <pt x="256" y="384" on="1"/>
        <pt x="256" y="448" on="1"/>
        <pt x="128" y="448" on="1"/>
        <pt x="128" y="640" on="1"/>
      </contour>
      <contour>
        <pt x="128" y="384" on="1"/>
        <pt x="256" y="384" on="1"/>
        <pt x="256" y="320" on="1"/>
        <pt x="128" y="320" on="1"/>
      </contour>
    </TTGlyph>
    <TTGlyph name="Yacute" xMin="31" yMin="0" xMax="417" yMax="844">
      <component glyphName="Y" x="0" y="0" flags="0x0"/>
      <component glyphName="acutecomb.case" x="0" y="0" flags="0x0"/>
    </TTGlyph>
    <TTGlyph name="Ycircumflex" xMin="31" yMin="0" xMax="417" yMax="842">
      <component glyphName="Y" x="0" y="0" flags="0x0"/>
      <component glyphName="uni0302.case" x="0" y="0" flags="0x0"/>
    </TTGlyph>
    <TTGlyph name="Ydieresis" xMin="31" yMin="0" xMax="417" yMax="823">
      <component glyphName="Y" x="0" y="0" flags="0x0"/>
      <component glyphName="uni0308.case" x="0" y="0" flags="0x0"/>
    </TTGlyph>
    <TTGlyph name="Ygrave" xMin="31" yMin="0" xMax="417" yMax="844">
      <component glyphName="Y" x="0" y="0" flags="0x0"/>
      <component glyphName="gravecomb.case" x="0" y="0" flags="0x0"/>
    </TTGlyph>
    <TTGlyph name="Z" xMin="50" yMin="0" xMax="393" yMax="640">
      <contour>
        <pt x="50" y="56" on="1"/>
        <pt x="288" y="568" on="1"/>
        <pt x="62" y="568" on="1"/>
        <pt x="62" y="640" on="1"/>
        <pt x="393" y="640" on="1"/>
        <pt x="393" y="584" on="1"/>
        <pt x="155" y="72" on="1"/>
        <pt x="393" y="72" on="1"/>
        <pt x="393" y="0" on="1"/>
        <pt x="50" y="0" on="1"/>
      </contour>
    </TTGlyph>
    <TTGlyph name="Z.sups" xMin="128" yMin="320" xMax="320" yMax="640">
      <contour>
        <pt x="320" y="640" on="1"/>
        <pt x="320" y="512" on="1"/>
        <pt x="256" y="512" on="1"/>
        <pt x="256" y="576" on="1"/>
        <pt x="128" y="576" on="1"/>
        <pt x="128" y="640" on="1"/>
      </contour>
      <contour>
        <pt x="128" y="448" on="1"/>
        <pt x="192" y="448" on="1"/>
        <pt x="192" y="384" on="1"/>
        <pt x="320" y="384" on="1"/>
        <pt x="320" y="320" on="1"/>
        <pt x="128" y="320" on="1"/>
      </contour>
      <contour>
        <pt x="192" y="512" on="1"/>
        <pt x="256" y="512" on="1"/>
        <pt x="256" y="448" on="1"/>
        <pt x="192" y="448" on="1"/>
      </contour>
    </TTGlyph>
    <TTGlyph name="Zacute" xMin="50" yMin="0" xMax="393" yMax="844">
      <component glyphName="Z" x="0" y="0" flags="0x0"/>
      <component glyphName="acutecomb.case" x="0" y="0" flags="0x0"/>
    </TTGlyph>
    <TTGlyph name="Zcaron" xMin="50" yMin="0" xMax="393" yMax="788">
      <component glyphName="Z" x="0" y="0" flags="0x0"/>
      <component glyphName="uni030C.case" x="0" y="0" flags="0x0"/>
    </TTGlyph>
    <TTGlyph name="Zdotaccent" xMin="50" yMin="0" xMax="393" yMax="846">
      <component glyphName="Z" x="0" y="0" flags="0x0"/>
      <component glyphName="uni0307" x="0" y="192" flags="0x4"/>
    </TTGlyph>
    <TTGlyph name="Zeta" xMin="50" yMin="0" xMax="393" yMax="640">
      <component glyphName="Z" x="0" y="0" flags="0x0"/>
    </TTGlyph>
    <TTGlyph name="_part.slash.comp" xMin="73" yMin="148" xMax="375" yMax="390">
      <contour>
        <pt x="339" y="390" on="1"/>
        <pt x="375" y="338" on="1"/>
        <pt x="109" y="148" on="1"/>
        <pt x="73" y="200" on="1"/>
      </contour>
    </TTGlyph>
    <TTGlyph name="a" xMin="44" yMin="-4" xMax="387" yMax="454">
      <contour>
        <pt x="292" y="337" on="0"/>
        <pt x="254" y="377" on="0"/>
        <pt x="206" y="377" on="1"/>
        <pt x="154" y="377" on="0"/>
        <pt x="84" y="353" on="1"/>
        <pt x="65" y="421" on="1"/>
        <pt x="145" y="454" on="0"/>
        <pt x="221" y="454" on="1"/>
        <pt x="302" y="454" on="0"/>
        <pt x="384" y="379" on="0"/>
        <pt x="384" y="299" on="1"/>
        <pt x="384" y="64" on="1"/>
        <pt x="387" y="0" on="1"/>
        <pt x="306" y="0" on="1"/>
        <pt x="300" y="34" on="1"/>
        <pt x="233" y="-4" on="0"/>
        <pt x="173" y="-4" on="1"/>
        <pt x="116" y="-4" on="0"/>
        <pt x="44" y="61" on="0"/>
        <pt x="44" y="121" on="1"/>
        <pt x="44" y="192" on="0"/>
        <pt x="161" y="266" on="0"/>
        <pt x="292" y="271" on="1"/>
        <pt x="292" y="285" on="1"/>
      </contour>
      <contour>
        <pt x="140" y="99" on="0"/>
        <pt x="169" y="68" on="0"/>
        <pt x="199" y="68" on="1"/>
        <pt x="238" y="68" on="0"/>
        <pt x="292" y="99" on="1"/>
        <pt x="292" y="206" on="1"/>
        <pt x="210" y="202" on="0"/>
        <pt x="140" y="162" on="0"/>
        <pt x="140" y="126" on="1"/>
      </contour>
    </TTGlyph>
    <TTGlyph name="aacute" xMin="44" yMin="-4" xMax="387" yMax="652">
      <component glyphName="a" x="0" y="0" flags="0x0"/>
      <component glyphName="acutecomb" x="2" y="0" flags="0x0"/>
    </TTGlyph>
    <TTGlyph name="abreve" xMin="44" yMin="-4" xMax="387" yMax="649">
      <component glyphName="a" x="0" y="0" flags="0x0"/>
      <component glyphName="uni0306" x="2" y="0" flags="0x0"/>
    </TTGlyph>
    <TTGlyph name="acircumflex" xMin="44" yMin="-4" xMax="387" yMax="650">
      <component glyphName="a" x="0" y="0" flags="0x0"/>
      <component glyphName="uni0302" x="2" y="0" flags="0x0"/>
    </TTGlyph>
    <TTGlyph name="acute" xMin="139" yMin="384" xMax="323" yMax="640">
      <contour>
        <pt x="139" y="384" on="1"/>
        <pt x="205" y="640" on="1"/>
        <pt x="323" y="640" on="1"/>
        <pt x="231" y="384" on="1"/>
      </contour>
    </TTGlyph>
    <TTGlyph name="acutecomb" xMin="186" yMin="510" xMax="358" yMax="652">
      <contour>
        <pt x="225" y="652" on="1"/>
        <pt x="358" y="652" on="1"/>
        <pt x="262" y="510" on="1"/>
        <pt x="186" y="510" on="1"/>
      </contour>
    </TTGlyph>
    <TTGlyph name="acutecomb.case" xMin="186" yMin="702" xMax="358" yMax="844">
      <component glyphName="acutecomb" x="0" y="192" flags="0x4"/>
    </TTGlyph>
    <TTGlyph name="adieresis" xMin="44" yMin="-4" xMax="387" yMax="653">
      <component glyphName="a" x="0" y="0" flags="0x0"/>
      <component glyphName="uni0308" x="2" y="0" flags="0x0"/>
    </TTGlyph>
    <TTGlyph name="ae" xMin="-13" yMin="-9" xMax="463" yMax="457">
      <contour>
        <pt x="263" y="-9" on="0"/>
        <pt x="223" y="46" on="1"/>
        <pt x="195" y="21" on="0"/>
        <pt x="137" y="-8" on="0"/>
        <pt x="103" y="-8" on="1"/>
        <pt x="49" y="-8" on="0"/>
        <pt x="-13" y="58" on="0"/>
        <pt x="-13" y="122" on="1"/>
        <pt x="-13" y="189" on="0"/>
        <pt x="77" y="260" on="0"/>
        <pt x="181" y="264" on="1"/>
        <pt x="181" y="285" on="1"/>
        <pt x="181" y="342" on="0"/>
        <pt x="149" y="388" on="0"/>
        <pt x="110" y="388" on="1"/>
        <pt x="70" y="388" on="0"/>
        <pt x="18" y="368" on="1"/>
        <pt x="-1" y="426" on="1"/>
        <pt x="63" y="453" on="0"/>
        <pt x="113" y="453" on="1"/>
        <pt x="195" y="453" on="0"/>
        <pt x="224" y="394" on="1"/>
        <pt x="260" y="457" on="0"/>
        <pt x="329" y="457" on="1"/>
        <pt x="400" y="457" on="0"/>
        <pt x="463" y="354" on="0"/>
        <pt x="463" y="257" on="1"/>
        <pt x="463" y="239" on="0"/>
        <pt x="461" y="201" on="1"/>
        <pt x="256" y="201" on="1"/>
        <pt x="258" y="120" on="0"/>
        <pt x="297" y="55" on="0"/>
        <pt x="344" y="55" on="1"/>
        <pt x="381" y="55" on="0"/>
        <pt x="429" y="72" on="1"/>
        <pt x="446" y="14" on="1"/>
        <pt x="394" y="-9" on="0"/>
        <pt x="340" y="-9" on="1"/>
      </contour>
      <contour>
        <pt x="61" y="89" on="0"/>
        <pt x="89" y="56" on="0"/>
        <pt x="113" y="56" on="1"/>
        <pt x="150" y="56" on="0"/>
        <pt x="197" y="101" on="1"/>
        <pt x="184" y="139" on="0"/>
        <pt x="181" y="202" on="1"/>
        <pt x="115" y="198" on="0"/>
        <pt x="61" y="159" on="0"/>
        <pt x="61" y="122" on="1"/>
      </contour>
      <contour>
        <pt x="387" y="263" on="1"/>
        <pt x="387" y="332" on="0"/>
        <pt x="360" y="393" on="0"/>
        <pt x="326" y="393" on="1"/>
        <pt x="293" y="393" on="0"/>
        <pt x="260" y="333" on="0"/>
        <pt x="257" y="263" on="1"/>
      </contour>
    </TTGlyph>
    <TTGlyph name="aeacute" xMin="-13" yMin="-9" xMax="463" yMax="652">
      <component glyphName="ae" x="0" y="0" flags="0x0"/>
      <component glyphName="acutecomb" x="0" y="0" flags="0x0"/>
    </TTGlyph>
    <TTGlyph name="agrave" xMin="44" yMin="-4" xMax="387" yMax="652">
      <component glyphName="a" x="0" y="0" flags="0x0"/>
      <component glyphName="gravecomb" x="2" y="0" flags="0x0"/>
    </TTGlyph>
    <TTGlyph name="alpha" xMin="51" yMin="-8" xMax="400" yMax="456">
      <contour>
        <pt x="129" y="130" on="0"/>
        <pt x="162" y="56" on="0"/>
        <pt x="199" y="56" on="1"/>
        <pt x="236" y="56" on="0"/>
        <pt x="299" y="142" on="0"/>
        <pt x="313" y="224" on="1"/>
        <pt x="299" y="306" on="0"/>
        <pt x="236" y="392" on="0"/>
        <pt x="199" y="392" on="1"/>
        <pt x="162" y="392" on="0"/>
        <pt x="129" y="318" on="0"/>
        <pt x="129" y="224" on="1"/>
      </contour>
      <contour>
        <pt x="51" y="331" on="0"/>
        <pt x="118" y="456" on="0"/>
        <pt x="194" y="456" on="1"/>
        <pt x="272" y="456" on="0"/>
        <pt x="325" y="364" on="1"/>
        <pt x="328" y="451" on="1"/>
        <pt x="400" y="446" on="1"/>
        <pt x="393" y="357" on="1"/>
        <pt x="387" y="279" on="0"/>
        <pt x="374" y="224" on="1"/>
        <pt x="387" y="169" on="0"/>
        <pt x="393" y="91" on="1"/>
        <pt x="400" y="2" on="1"/>
        <pt x="328" y="-3" on="1"/>
        <pt x="325" y="84" on="1"/>
        <pt x="272" y="-8" on="0"/>
        <pt x="194" y="-8" on="1"/>
        <pt x="118" y="-8" on="0"/>
        <pt x="51" y="117" on="0"/>
        <pt x="51" y="224" on="1"/>
      </contour>
    </TTGlyph>
    <TTGlyph name="alphatonos" xMin="51" yMin="-8" xMax="400" yMax="704">
      <component glyphName="alpha" x="0" y="0" flags="0x0"/>
      <component glyphName="tonos" x="0" y="0" flags="0x0"/>
    </TTGlyph>
    <TTGlyph name="amacron" xMin="44" yMin="-4" xMax="387" yMax="632">
      <component glyphName="a" x="0" y="0" flags="0x0"/>
      <component glyphName="uni0304" x="2" y="0" flags="0x0"/>
    </TTGlyph>
    <TTGlyph name="ampersand" xMin="30" yMin="-10" xMax="433" yMax="542">
      <contour>
        <pt x="259" y="470" on="0"/>
        <pt x="224" y="470" on="1"/>
        <pt x="177" y="470" on="0"/>
        <pt x="137" y="428" on="0"/>
        <pt x="137" y="397" on="1"/>
        <pt x="137" y="363" on="0"/>
        <pt x="181" y="324" on="0"/>
        <pt x="238" y="324" on="1"/>
        <pt x="433" y="324" on="1"/>
        <pt x="433" y="252" on="1"/>
        <pt x="373" y="252" on="1"/>
        <pt x="373" y="18" on="1"/>
        <pt x="334" y="5" on="0"/>
        <pt x="245" y="-10" on="0"/>
        <pt x="208" y="-10" on="1"/>
        <pt x="116" y="-10" on="0"/>
        <pt x="30" y="79" on="0"/>
        <pt x="30" y="147" on="1"/>
        <pt x="30" y="188" on="0"/>
        <pt x="70" y="263" on="0"/>
        <pt x="116" y="288" on="1"/>
        <pt x="80" y="305" on="0"/>
        <pt x="45" y="364" on="0"/>
        <pt x="45" y="400" on="1"/>
        <pt x="45" y="463" on="0"/>
        <pt x="133" y="542" on="0"/>
        <pt x="216" y="542" on="1"/>
        <pt x="272" y="542" on="0"/>
        <pt x="326" y="528" on="1"/>
        <pt x="313" y="460" on="1"/>
      </contour>
      <contour>
        <pt x="123" y="62" on="0"/>
        <pt x="207" y="62" on="1"/>
        <pt x="246" y="62" on="0"/>
        <pt x="281" y="69" on="1"/>
        <pt x="281" y="252" on="1"/>
        <pt x="249" y="252" on="1"/>
        <pt x="179" y="252" on="0"/>
        <pt x="123" y="194" on="0"/>
        <pt x="123" y="150" on="1"/>
      </contour>
    </TTGlyph>
    <TTGlyph name="angle" xMin="64" yMin="64" xMax="384" yMax="522">
      <contour>
        <pt x="64" y="64" on="1"/>
        <pt x="64" y="128" on="1"/>
        <pt x="258" y="522" on="1"/>
        <pt x="316" y="494" on="1"/>
        <pt x="136" y="128" on="1"/>
        <pt x="384" y="128" on="1"/>
        <pt x="384" y="64" on="1"/>
      </contour>
    </TTGlyph>
    <TTGlyph name="anoteleia" xMin="150" yMin="192" xMax="298" yMax="340">
      <component glyphName="period" x="32" y="202" flags="0x4"/>
    </TTGlyph>
    <TTGlyph name="aogonek" xMin="44" yMin="-197" xMax="404" yMax="454">
      <component glyphName="a" x="0" y="0" flags="0x0"/>
      <component glyphName="uni0328" x="3" y="0" flags="0x0"/>
    </TTGlyph>
    <TTGlyph name="approxequal" xMin="64" yMin="64" xMax="384" yMax="448">
      <contour>
        <pt x="128" y="192" on="1"/>
        <pt x="128" y="64" on="1"/>
        <pt x="64" y="64" on="1"/>
        <pt x="64" y="192" on="1"/>
      </contour>
      <contour>
        <pt x="64" y="384" on="1"/>
        <pt x="128" y="384" on="1"/>
        <pt x="128" y="256" on="1"/>
        <pt x="64" y="256" on="1"/>
      </contour>
      <contour>
        <pt x="128" y="256" on="1"/>
        <pt x="192" y="256" on="1"/>
        <pt x="192" y="192" on="1"/>
        <pt x="128" y="192" on="1"/>
      </contour>
      <contour>
        <pt x="128" y="448" on="1"/>
        <pt x="192" y="448" on="1"/>
        <pt x="192" y="384" on="1"/>
        <pt x="128" y="384" on="1"/>
      </contour>
      <contour>
        <pt x="192" y="192" on="1"/>
        <pt x="256" y="192" on="1"/>
        <pt x="256" y="128" on="1"/>
        <pt x="192" y="128" on="1"/>
      </contour>
      <contour>
        <pt x="192" y="384" on="1"/>
        <pt x="256" y="384" on="1"/>
        <pt x="256" y="320" on="1"/>
        <pt x="192" y="320" on="1"/>
      </contour>
      <contour>
        <pt x="256" y="128" on="1"/>
        <pt x="320" y="128" on="1"/>
        <pt x="320" y="64" on="1"/>
        <pt x="256" y="64" on="1"/>
      </contour>
      <contour>
        <pt x="256" y="320" on="1"/>
        <pt x="320" y="320" on="1"/>
        <pt x="320" y="256" on="1"/>
        <pt x="256" y="256" on="1"/>
      </contour>
      <contour>
        <pt x="320" y="256" on="1"/>
        <pt x="384" y="256" on="1"/>
        <pt x="384" y="128" on="1"/>
        <pt x="320" y="128" on="1"/>
      </contour>
      <contour>
        <pt x="320" y="448" on="1"/>
        <pt x="384" y="448" on="1"/>
        <pt x="384" y="320" on="1"/>
        <pt x="320" y="320" on="1"/>
      </contour>
    </TTGlyph>
    <TTGlyph name="aring" xMin="44" yMin="-4" xMax="387" yMax="702">
      <component glyphName="a" x="0" y="0" flags="0x0"/>
      <component glyphName="uni030A" x="2" y="0" flags="0x0"/>
    </TTGlyph>
    <TTGlyph name="aringacute" xMin="44" yMin="-4" xMax="387" yMax="876">
      <component glyphName="a" x="0" y="0" flags="0x0"/>
      <component glyphName="uni030A" x="2" y="0" flags="0x0"/>
      <component glyphName="acutecomb" x="2" y="224" flags="0x4"/>
    </TTGlyph>
    <TTGlyph name="arrowboth" xMin="-10" yMin="54" xMax="458" yMax="394">
      <contour>
        <pt x="207" y="98" on="1"/>
        <pt x="169" y="54" on="1"/>
        <pt x="-10" y="202" on="1"/>
        <pt x="-10" y="246" on="1"/>
        <pt x="169" y="394" on="1"/>
        <pt x="207" y="350" on="1"/>
        <pt x="98" y="256" on="1"/>
        <pt x="350" y="256" on="1"/>
        <pt x="241" y="350" on="1"/>
        <pt x="279" y="394" on="1"/>
        <pt x="458" y="246" on="1"/>
        <pt x="458" y="202" on="1"/>
        <pt x="279" y="54" on="1"/>
        <pt x="241" y="98" on="1"/>
        <pt x="350" y="192" on="1"/>
        <pt x="98" y="192" on="1"/>
      </contour>
    </TTGlyph>
    <TTGlyph name="arrowdown" xMin="54" yMin="54" xMax="394" yMax="512">
      <contour>
        <pt x="256" y="512" on="1"/>
        <pt x="256" y="162" on="1"/>
        <pt x="350" y="271" on="1"/>
        <pt x="394" y="233" on="1"/>
        <pt x="246" y="54" on="1"/>
        <pt x="202" y="54" on="1"/>
        <pt x="54" y="233" on="1"/>
        <pt x="98" y="271" on="1"/>
        <pt x="192" y="162" on="1"/>
        <pt x="192" y="512" on="1"/>
      </contour>
    </TTGlyph>
    <TTGlyph name="arrowleft" xMin="-10" yMin="54" xMax="448" yMax="394">
      <contour>
        <pt x="207" y="98" on="1"/>
        <pt x="169" y="54" on="1"/>
        <pt x="-10" y="202" on="1"/>
        <pt x="-10" y="246" on="1"/>
        <pt x="169" y="394" on="1"/>
        <pt x="207" y="350" on="1"/>
        <pt x="98" y="256" on="1"/>
        <pt x="448" y="256" on="1"/>
        <pt x="448" y="192" on="1"/>
        <pt x="98" y="192" on="1"/>
      </contour>
    </TTGlyph>
    <TTGlyph name="arrowright" xMin="0" yMin="54" xMax="458" yMax="394">
      <contour>
        <pt x="0" y="256" on="1"/>
        <pt x="350" y="256" on="1"/>
        <pt x="241" y="350" on="1"/>
        <pt x="279" y="394" on="1"/>
        <pt x="458" y="246" on="1"/>
        <pt x="458" y="202" on="1"/>
        <pt x="279" y="54" on="1"/>
        <pt x="241" y="98" on="1"/>
        <pt x="350" y="192" on="1"/>
        <pt x="0" y="192" on="1"/>
      </contour>
    </TTGlyph>
    <TTGlyph name="arrowup" xMin="54" yMin="64" xMax="394" yMax="522">
      <contour>
        <pt x="98" y="305" on="1"/>
        <pt x="54" y="343" on="1"/>
        <pt x="202" y="522" on="1"/>
        <pt x="246" y="522" on="1"/>
        <pt x="394" y="343" on="1"/>
        <pt x="350" y="305" on="1"/>
        <pt x="256" y="414" on="1"/>
        <pt x="256" y="64" on="1"/>
        <pt x="192" y="64" on="1"/>
        <pt x="192" y="414" on="1"/>
      </contour>
    </TTGlyph>
    <TTGlyph name="arrowupdn" xMin="54" yMin="54" xMax="394" yMax="522">
      <contour>
        <pt x="98" y="305" on="1"/>
        <pt x="54" y="343" on="1"/>
        <pt x="202" y="522" on="1"/>
        <pt x="246" y="522" on="1"/>
        <pt x="394" y="343" on="1"/>
        <pt x="350" y="305" on="1"/>
        <pt x="256" y="414" on="1"/>
        <pt x="256" y="162" on="1"/>
        <pt x="350" y="271" on="1"/>
        <pt x="394" y="233" on="1"/>
        <pt x="246" y="54" on="1"/>
        <pt x="202" y="54" on="1"/>
        <pt x="54" y="233" on="1"/>
        <pt x="98" y="271" on="1"/>
        <pt x="192" y="162" on="1"/>
        <pt x="192" y="414" on="1"/>
      </contour>
    </TTGlyph>
    <TTGlyph name="arrowupdnbse" xMin="54" yMin="0" xMax="394" yMax="522">
      <contour>
        <pt x="194" y="64" on="1"/>
        <pt x="54" y="233" on="1"/>
        <pt x="98" y="271" on="1"/>
        <pt x="192" y="162" on="1"/>
        <pt x="192" y="414" on="1"/>
        <pt x="98" y="305" on="1"/>
        <pt x="54" y="343" on="1"/>
        <pt x="202" y="522" on="1"/>
        <pt x="246" y="522" on="1"/>
        <pt x="394" y="343" on="1"/>
        <pt x="350" y="305" on="1"/>
        <pt x="256" y="414" on="1"/>
        <pt x="256" y="162" on="1"/>
        <pt x="350" y="271" on="1"/>
        <pt x="394" y="233" on="1"/>
        <pt x="254" y="64" on="1"/>
        <pt x="384" y="64" on="1"/>
        <pt x="384" y="0" on="1"/>
        <pt x="64" y="0" on="1"/>
        <pt x="64" y="64" on="1"/>
      </contour>
    </TTGlyph>
    <TTGlyph name="asciicircum" xMin="43" yMin="192" xMax="405" yMax="566">
      <contour>
        <pt x="272" y="566" on="1"/>
        <pt x="405" y="192" on="1"/>
        <pt x="309" y="192" on="1"/>
        <pt x="224" y="459" on="1"/>
        <pt x="139" y="192" on="1"/>
        <pt x="43" y="192" on="1"/>
        <pt x="176" y="566" on="1"/>
      </contour>
    </TTGlyph>
    <TTGlyph name="asciitilde" xMin="-6" yMin="190" xMax="454" yMax="386">
      <contour>
        <pt x="271" y="190" on="0"/>
        <pt x="217" y="227" on="0"/>
        <pt x="191" y="260" on="1"/>
        <pt x="174" y="283" on="0"/>
        <pt x="147" y="305" on="0"/>
        <pt x="127" y="305" on="1"/>
        <pt x="96" y="305" on="0"/>
        <pt x="71" y="257" on="0"/>
        <pt x="66" y="200" on="1"/>
        <pt x="-6" y="205" on="1"/>
        <pt x="-2" y="296" on="0"/>
        <pt x="59" y="386" on="0"/>
        <pt x="127" y="386" on="1"/>
        <pt x="177" y="386" on="0"/>
        <pt x="231" y="349" on="0"/>
        <pt x="258" y="315" on="1"/>
        <pt x="275" y="293" on="0"/>
        <pt x="301" y="271" on="0"/>
        <pt x="321" y="271" on="1"/>
        <pt x="352" y="271" on="0"/>
        <pt x="377" y="318" on="0"/>
        <pt x="382" y="376" on="1"/>
        <pt x="454" y="372" on="1"/>
        <pt x="450" y="280" on="0"/>
        <pt x="389" y="190" on="0"/>
        <pt x="320" y="190" on="1"/>
      </contour>
    </TTGlyph>
    <TTGlyph name="asterisk" xMin="27" yMin="69" xMax="421" yMax="507">
      <contour>
        <pt x="280" y="288" on="1"/>
        <pt x="421" y="183" on="1"/>
        <pt x="362" y="112" on="1"/>
        <pt x="262" y="206" on="1"/>
        <pt x="270" y="69" on="1"/>
        <pt x="178" y="69" on="1"/>
        <pt x="186" y="206" on="1"/>
        <pt x="87" y="113" on="1"/>
        <pt x="27" y="183" on="1"/>
        <pt x="169" y="288" on="1"/>
        <pt x="27" y="394" on="1"/>
        <pt x="87" y="464" on="1"/>
        <pt x="186" y="370" on="1"/>
        <pt x="178" y="507" on="1"/>
        <pt x="270" y="507" on="1"/>
        <pt x="262" y="370" on="1"/>
        <pt x="362" y="464" on="1"/>
        <pt x="421" y="394" on="1"/>
      </contour>
    </TTGlyph>
    <TTGlyph name="at" xMin="38" yMin="-128" xMax="398" yMax="586">
      <contour>
        <pt x="362" y="60" on="0"/>
        <pt x="311" y="60" on="1"/>
        <pt x="240" y="60" on="0"/>
        <pt x="163" y="143" on="0"/>
        <pt x="163" y="219" on="1"/>
        <pt x="163" y="289" on="0"/>
        <pt x="232" y="376" on="0"/>
        <pt x="306" y="391" on="1"/>
        <pt x="304" y="455" on="0"/>
        <pt x="270" y="515" on="0"/>
        <pt x="231" y="515" on="1"/>
        <pt x="193" y="515" on="0"/>
        <pt x="149" y="457" on="0"/>
        <pt x="130" y="331" on="0"/>
        <pt x="130" y="223" on="1"/>
        <pt x="130" y="117" on="0"/>
        <pt x="155" y="-4" on="0"/>
        <pt x="209" y="-56" on="0"/>
        <pt x="254" y="-56" on="1"/>
        <pt x="292" y="-56" on="0"/>
        <pt x="338" y="-44" on="1"/>
        <pt x="356" y="-106" on="1"/>
        <pt x="331" y="-116" on="0"/>
        <pt x="271" y="-128" on="0"/>
        <pt x="244" y="-128" on="1"/>
        <pt x="136" y="-128" on="0"/>
        <pt x="38" y="39" on="0"/>
        <pt x="38" y="223" on="1"/>
        <pt x="38" y="409" on="0"/>
        <pt x="128" y="586" on="0"/>
        <pt x="233" y="586" on="1"/>
        <pt x="316" y="586" on="0"/>
        <pt x="398" y="476" on="0"/>
        <pt x="398" y="381" on="1"/>
        <pt x="398" y="70" on="1"/>
      </contour>
      <contour>
        <pt x="257" y="175" on="0"/>
        <pt x="279" y="133" on="0"/>
        <pt x="306" y="134" on="1"/>
        <pt x="306" y="316" on="1"/>
        <pt x="278" y="305" on="0"/>
        <pt x="257" y="261" on="0"/>
        <pt x="257" y="220" on="1"/>
      </contour>
    </TTGlyph>
    <TTGlyph name="atilde" xMin="44" yMin="-4" xMax="387" yMax="648">
      <component glyphName="a" x="0" y="0" flags="0x0"/>
      <component glyphName="tildecomb" x="2" y="0" flags="0x0"/>
    </TTGlyph>
    <TTGlyph name="b" xMin="53" yMin="-8" xMax="402" yMax="640">
      <contour>
        <pt x="175" y="-8" on="0"/>
        <pt x="133" y="34" on="1"/>
        <pt x="128" y="0" on="1"/>
        <pt x="53" y="0" on="1"/>
        <pt x="55" y="65" on="1"/>
        <pt x="55" y="640" on="1"/>
        <pt x="147" y="640" on="1"/>
        <pt x="147" y="422" on="1"/>
        <pt x="184" y="456" on="0"/>
        <pt x="242" y="456" on="1"/>
        <pt x="317" y="456" on="0"/>
        <pt x="402" y="336" on="0"/>
        <pt x="402" y="224" on="1"/>
        <pt x="402" y="111" on="0"/>
        <pt x="317" y="-8" on="0"/>
        <pt x="239" y="-8" on="1"/>
      </contour>
      <contour>
        <pt x="176" y="64" on="0"/>
        <pt x="226" y="64" on="1"/>
        <pt x="268" y="64" on="0"/>
        <pt x="304" y="134" on="0"/>
        <pt x="304" y="224" on="1"/>
        <pt x="304" y="314" on="0"/>
        <pt x="268" y="383" on="0"/>
        <pt x="226" y="383" on="1"/>
        <pt x="176" y="383" on="0"/>
        <pt x="147" y="343" on="1"/>
        <pt x="147" y="105" on="1"/>
      </contour>
    </TTGlyph>
    <TTGlyph name="backslash" xMin="109" yMin="-69" xMax="339" yMax="710">
      <contour>
        <pt x="248" y="-69" on="1"/>
        <pt x="109" y="698" on="1"/>
        <pt x="200" y="710" on="1"/>
        <pt x="339" y="-57" on="1"/>
      </contour>
    </TTGlyph>
    <TTGlyph name="bar" xMin="178" yMin="-64" xMax="270" yMax="704">
      <contour>
        <pt x="178" y="-64" on="1"/>
        <pt x="178" y="704" on="1"/>
        <pt x="270" y="704" on="1"/>
        <pt x="270" y="-64" on="1"/>
      </contour>
    </TTGlyph>
    <TTGlyph name="beta" xMin="64" yMin="-192" xMax="384" yMax="640">
      <contour>
        <pt x="128" y="576" on="1"/>
        <pt x="128" y="128" on="1"/>
        <pt x="192" y="128" on="1"/>
        <pt x="192" y="64" on="1"/>
        <pt x="128" y="64" on="1"/>
        <pt x="128" y="-192" on="1"/>
        <pt x="64" y="-192" on="1"/>
        <pt x="64" y="576" on="1"/>
      </contour>
      <contour>
        <pt x="128" y="640" on="1"/>
        <pt x="320" y="640" on="1"/>
        <pt x="320" y="576" on="1"/>
        <pt x="128" y="576" on="1"/>
      </contour>
      <contour>
        <pt x="192" y="64" on="1"/>
        <pt x="320" y="64" on="1"/>
        <pt x="320" y="0" on="1"/>
        <pt x="192" y="0" on="1"/>
      </contour>
      <contour>
        <pt x="192" y="384" on="1"/>
        <pt x="320" y="384" on="1"/>
        <pt x="320" y="320" on="1"/>
        <pt x="192" y="320" on="1"/>
      </contour>
      <contour>
        <pt x="320" y="320" on="1"/>
        <pt x="384" y="320" on="1"/>
        <pt x="384" y="64" on="1"/>
        <pt x="320" y="64" on="1"/>
      </contour>
      <contour>
        <pt x="320" y="576" on="1"/>
        <pt x="384" y="576" on="1"/>
        <pt x="384" y="384" on="1"/>
        <pt x="320" y="384" on="1"/>
      </contour>
    </TTGlyph>
    <TTGlyph name="block" xMin="0" yMin="-192" xMax="448" yMax="832">
      <contour>
        <pt x="0" y="-192" on="1"/>
        <pt x="0" y="832" on="1"/>
        <pt x="448" y="832" on="1"/>
        <pt x="448" y="-192" on="1"/>
      </contour>
    </TTGlyph>
    <TTGlyph name="braceleft" xMin="79" yMin="-64" xMax="356" yMax="704">
      <contour>
        <pt x="248" y="-53" on="0"/>
        <pt x="147" y="4" on="0"/>
        <pt x="147" y="72" on="1"/>
        <pt x="147" y="89" on="0"/>
        <pt x="153" y="125" on="1"/>
        <pt x="159" y="163" on="0"/>
        <pt x="159" y="189" on="1"/>
        <pt x="159" y="224" on="0"/>
        <pt x="120" y="265" on="0"/>
        <pt x="79" y="272" on="1"/>
        <pt x="79" y="369" on="1"/>
        <pt x="120" y="376" on="0"/>
        <pt x="159" y="416" on="0"/>
        <pt x="159" y="452" on="1"/>
        <pt x="159" y="476" on="0"/>
        <pt x="153" y="516" on="1"/>
        <pt x="147" y="550" on="0"/>
        <pt x="147" y="568" on="1"/>
        <pt x="147" y="636" on="0"/>
        <pt x="248" y="693" on="0"/>
        <pt x="346" y="704" on="1"/>
        <pt x="356" y="639" on="1"/>
        <pt x="309" y="630" on="0"/>
        <pt x="258" y="613" on="0"/>
        <pt x="235" y="584" on="0"/>
        <pt x="235" y="559" on="1"/>
        <pt x="235" y="547" on="0"/>
        <pt x="239" y="517" on="0"/>
        <pt x="240" y="510" on="1"/>
        <pt x="247" y="475" on="0"/>
        <pt x="247" y="443" on="1"/>
        <pt x="247" y="390" on="0"/>
        <pt x="200" y="335" on="0"/>
        <pt x="150" y="320" on="1"/>
        <pt x="200" y="305" on="0"/>
        <pt x="247" y="250" on="0"/>
        <pt x="247" y="198" on="1"/>
        <pt x="247" y="166" on="0"/>
        <pt x="240" y="131" on="1"/>
        <pt x="239" y="124" on="0"/>
        <pt x="235" y="93" on="0"/>
        <pt x="235" y="81" on="1"/>
        <pt x="235" y="46" on="0"/>
        <pt x="287" y="14" on="0"/>
        <pt x="356" y="1" on="1"/>
        <pt x="346" y="-64" on="1"/>
      </contour>
    </TTGlyph>
    <TTGlyph name="braceright" xMin="92" yMin="-64" xMax="369" yMax="704">
      <contour>
        <pt x="161" y="14" on="0"/>
        <pt x="213" y="46" on="0"/>
        <pt x="213" y="81" on="1"/>
        <pt x="213" y="93" on="0"/>
        <pt x="209" y="124" on="0"/>
        <pt x="208" y="131" on="1"/>
        <pt x="201" y="166" on="0"/>
        <pt x="201" y="198" on="1"/>
        <pt x="201" y="250" on="0"/>
        <pt x="249" y="305" on="0"/>
        <pt x="298" y="320" on="1"/>
        <pt x="249" y="335" on="0"/>
        <pt x="201" y="390" on="0"/>
        <pt x="201" y="443" on="1"/>
        <pt x="201" y="475" on="0"/>
        <pt x="208" y="510" on="1"/>
        <pt x="209" y="517" on="0"/>
        <pt x="213" y="547" on="0"/>
        <pt x="213" y="559" on="1"/>
        <pt x="213" y="584" on="0"/>
        <pt x="190" y="613" on="0"/>
        <pt x="139" y="630" on="0"/>
        <pt x="92" y="639" on="1"/>
        <pt x="102" y="704" on="1"/>
        <pt x="201" y="693" on="0"/>
        <pt x="301" y="636" on="0"/>
        <pt x="301" y="568" on="1"/>
        <pt x="301" y="550" on="0"/>
        <pt x="295" y="516" on="1"/>
        <pt x="289" y="476" on="0"/>
        <pt x="289" y="452" on="1"/>
        <pt x="289" y="416" on="0"/>
        <pt x="328" y="376" on="0"/>
        <pt x="369" y="369" on="1"/>
        <pt x="369" y="272" on="1"/>
        <pt x="328" y="265" on="0"/>
        <pt x="289" y="224" on="0"/>
        <pt x="289" y="189" on="1"/>
        <pt x="289" y="163" on="0"/>
        <pt x="295" y="125" on="1"/>
        <pt x="301" y="89" on="0"/>
        <pt x="301" y="72" on="1"/>
        <pt x="301" y="4" on="0"/>
        <pt x="201" y="-53" on="0"/>
        <pt x="102" y="-64" on="1"/>
        <pt x="92" y="1" on="1"/>
      </contour>
    </TTGlyph>
    <TTGlyph name="bracketleft" xMin="134" yMin="-64" xMax="350" yMax="704">
      <contour>
        <pt x="226" y="632" on="1"/>
        <pt x="226" y="8" on="1"/>
        <pt x="350" y="8" on="1"/>
        <pt x="350" y="-64" on="1"/>
        <pt x="134" y="-64" on="1"/>
        <pt x="134" y="704" on="1"/>
        <pt x="350" y="704" on="1"/>
        <pt x="350" y="632" on="1"/>
      </contour>
    </TTGlyph>
    <TTGlyph name="bracketright" xMin="98" yMin="-64" xMax="314" yMax="704">
      <contour>
        <pt x="98" y="-64" on="1"/>
        <pt x="98" y="8" on="1"/>
        <pt x="222" y="8" on="1"/>
        <pt x="222" y="632" on="1"/>
        <pt x="98" y="632" on="1"/>
        <pt x="98" y="704" on="1"/>
        <pt x="314" y="704" on="1"/>
        <pt x="314" y="-64" on="1"/>
      </contour>
    </TTGlyph>
    <TTGlyph name="breve" xMin="88" yMin="499" xMax="360" yMax="649">
      <component glyphName="uni0306" x="0" y="0" flags="0x0"/>
    </TTGlyph>
    <TTGlyph name="brokenbar" xMin="180" yMin="-192" xMax="268" yMax="704">
      <contour>
        <pt x="180" y="320" on="1"/>
        <pt x="180" y="704" on="1"/>
        <pt x="268" y="704" on="1"/>
        <pt x="268" y="320" on="1"/>
      </contour>
      <contour>
        <pt x="180" y="192" on="1"/>
        <pt x="268" y="192" on="1"/>
        <pt x="268" y="-192" on="1"/>
        <pt x="180" y="-192" on="1"/>
      </contour>
    </TTGlyph>
    <TTGlyph name="bullet" xMin="112" yMin="110" xMax="336" yMax="338">
      <contour>
        <pt x="272" y="338" on="0"/>
        <pt x="336" y="273" on="0"/>
        <pt x="336" y="224" on="1"/>
        <pt x="336" y="176" on="0"/>
        <pt x="272" y="110" on="0"/>
        <pt x="224" y="110" on="1"/>
        <pt x="177" y="110" on="0"/>
        <pt x="112" y="176" on="0"/>
        <pt x="112" y="224" on="1"/>
        <pt x="112" y="273" on="0"/>
        <pt x="177" y="338" on="0"/>
        <pt x="224" y="338" on="1"/>
      </contour>
    </TTGlyph>
    <TTGlyph name="c" xMin="50" yMin="-7" xMax="368" yMax="455">
      <contour>
        <pt x="306" y="381" on="0"/>
        <pt x="257" y="381" on="1"/>
        <pt x="215" y="381" on="0"/>
        <pt x="167" y="352" on="0"/>
        <pt x="146" y="284" on="0"/>
        <pt x="146" y="224" on="1"/>
        <pt x="146" y="165" on="0"/>
        <pt x="167" y="97" on="0"/>
        <pt x="215" y="67" on="0"/>
        <pt x="257" y="67" on="1"/>
        <pt x="300" y="67" on="0"/>
        <pt x="353" y="82" on="1"/>
        <pt x="368" y="15" on="1"/>
        <pt x="314" y="-7" on="0"/>
        <pt x="244" y="-7" on="1"/>
        <pt x="50" y="-7" on="0"/>
        <pt x="50" y="224" on="1"/>
        <pt x="50" y="455" on="0"/>
        <pt x="244" y="455" on="1"/>
        <pt x="313" y="455" on="0"/>
        <pt x="368" y="434" on="1"/>
        <pt x="353" y="367" on="1"/>
      </contour>
    </TTGlyph>
    <TTGlyph name="cacute" xMin="50" yMin="-7" xMax="374" yMax="652">
      <component glyphName="c" x="0" y="0" flags="0x0"/>
      <component glyphName="acutecomb" x="16" y="0" flags="0x0"/>
    </TTGlyph>
    <TTGlyph name="caron" xMin="153" yMin="579" xMax="278" yMax="596">
      <component glyphName="uni030C" x="0" y="0" flags="0x0"/>
    </TTGlyph>
    <TTGlyph name="ccaron" xMin="50" yMin="-7" xMax="368" yMax="596">
      <component glyphName="c" x="0" y="0" flags="0x0"/>
      <component glyphName="uni030C" x="16" y="0" flags="0x0"/>
    </TTGlyph>
    <TTGlyph name="ccedilla" xMin="50" yMin="-192" xMax="368" yMax="455">
      <component glyphName="c" x="0" y="0" flags="0x0"/>
      <component glyphName="uni0327" x="-22" y="0" flags="0x0"/>
    </TTGlyph>
    <TTGlyph name="ccircumflex" xMin="50" yMin="-7" xMax="389" yMax="650">
      <component glyphName="c" x="0" y="0" flags="0x0"/>
      <component glyphName="uni0302" x="16" y="0" flags="0x0"/>
    </TTGlyph>
    <TTGlyph name="cdotaccent" xMin="50" yMin="-7" xMax="368" yMax="654">
      <component glyphName="c" x="0" y="0" flags="0x0"/>
      <component glyphName="uni0307" x="16" y="0" flags="0x0"/>
    </TTGlyph>
    <TTGlyph name="cedilla" xMin="126" yMin="-192" xMax="322" yMax="10">
      <component glyphName="uni0327" x="0" y="0" flags="0x0"/>
    </TTGlyph>
    <TTGlyph name="cent" xMin="50" yMin="-64" xMax="368" yMax="640">
      <contour>
        <pt x="306" y="445" on="0"/>
        <pt x="257" y="445" on="1"/>
        <pt x="215" y="445" on="0"/>
        <pt x="167" y="416" on="0"/>
        <pt x="146" y="348" on="0"/>
        <pt x="146" y="288" on="1"/>
        <pt x="146" y="229" on="0"/>
        <pt x="167" y="161" on="0"/>
        <pt x="215" y="131" on="0"/>
        <pt x="257" y="131" on="1"/>
        <pt x="300" y="131" on="0"/>
        <pt x="353" y="146" on="1"/>
        <pt x="368" y="79" on="1"/>
        <pt x="321" y="60" on="0"/>
        <pt x="266" y="58" on="1"/>
        <pt x="266" y="-64" on="1"/>
        <pt x="182" y="-64" on="1"/>
        <pt x="182" y="64" on="1"/>
        <pt x="50" y="97" on="0"/>
        <pt x="50" y="288" on="1"/>
        <pt x="50" y="479" on="0"/>
        <pt x="182" y="512" on="1"/>
        <pt x="182" y="640" on="1"/>
        <pt x="266" y="640" on="1"/>
        <pt x="266" y="518" on="1"/>
        <pt x="320" y="516" on="0"/>
        <pt x="368" y="498" on="1"/>
        <pt x="353" y="431" on="1"/>
      </contour>
    </TTGlyph>
    <TTGlyph name="chi" xMin="25" yMin="-192" xMax="399" yMax="448">
      <contour>
        <pt x="399" y="448" on="1"/>
        <pt x="263" y="158" on="1"/>
        <pt x="324" y="89" on="0"/>
        <pt x="381" y="-65" on="0"/>
        <pt x="393" y="-192" on="1"/>
        <pt x="321" y="-192" on="1"/>
        <pt x="311" y="-82" on="0"/>
        <pt x="272" y="42" on="0"/>
        <pt x="231" y="91" on="1"/>
        <pt x="98" y="-192" on="1"/>
        <pt x="25" y="-192" on="1"/>
        <pt x="180" y="138" on="1"/>
        <pt x="124" y="210" on="0"/>
        <pt x="68" y="345" on="0"/>
        <pt x="48" y="448" on="1"/>
        <pt x="123" y="448" on="1"/>
        <pt x="138" y="366" on="0"/>
        <pt x="177" y="259" on="0"/>
        <pt x="212" y="207" on="1"/>
        <pt x="325" y="448" on="1"/>
      </contour>
    </TTGlyph>
    <TTGlyph name="circle" xMin="54" yMin="120" xMax="394" yMax="456">
      <contour>
        <pt x="177" y="120" on="0"/>
        <pt x="99" y="164" on="0"/>
        <pt x="54" y="241" on="0"/>
        <pt x="54" y="288" on="1"/>
        <pt x="54" y="335" on="0"/>
        <pt x="99" y="412" on="0"/>
        <pt x="177" y="456" on="0"/>
        <pt x="224" y="456" on="1"/>
        <pt x="271" y="456" on="0"/>
        <pt x="349" y="412" on="0"/>
        <pt x="394" y="335" on="0"/>
        <pt x="394" y="288" on="1"/>
        <pt x="394" y="241" on="0"/>
        <pt x="349" y="164" on="0"/>
        <pt x="271" y="120" on="0"/>
        <pt x="224" y="120" on="1"/>
      </contour>
      <contour>
        <pt x="124" y="244" on="0"/>
        <pt x="181" y="184" on="0"/>
        <pt x="224" y="184" on="1"/>
        <pt x="267" y="184" on="0"/>
        <pt x="324" y="244" on="0"/>
        <pt x="324" y="288" on="1"/>
        <pt x="324" y="332" on="0"/>
        <pt x="267" y="392" on="0"/>
        <pt x="224" y="392" on="1"/>
        <pt x="181" y="392" on="0"/>
        <pt x="124" y="332" on="0"/>
        <pt x="124" y="288" on="1"/>
      </contour>
    </TTGlyph>
    <TTGlyph name="circumflex" xMin="76" yMin="509" xMax="373" yMax="650">
      <component glyphName="uni0302" x="0" y="0" flags="0x0"/>
    </TTGlyph>
    <TTGlyph name="club" xMin="64" yMin="64" xMax="384" yMax="512">
      <contour>
        <pt x="384" y="384" on="1"/>
        <pt x="384" y="192" on="1"/>
        <pt x="320" y="192" on="1"/>
        <pt x="320" y="256" on="1"/>
        <pt x="256" y="256" on="1"/>
        <pt x="256" y="128" on="1"/>
        <pt x="384" y="128" on="1"/>
        <pt x="384" y="64" on="1"/>
        <pt x="64" y="64" on="1"/>
        <pt x="64" y="128" on="1"/>
        <pt x="192" y="128" on="1"/>
        <pt x="192" y="256" on="1"/>
        <pt x="128" y="256" on="1"/>
        <pt x="128" y="192" on="1"/>
        <pt x="64" y="192" on="1"/>
        <pt x="64" y="384" on="1"/>
        <pt x="128" y="384" on="1"/>
        <pt x="128" y="320" on="1"/>
        <pt x="192" y="320" on="1"/>
        <pt x="192" y="448" on="1"/>
        <pt x="128" y="448" on="1"/>
        <pt x="128" y="512" on="1"/>
        <pt x="320" y="512" on="1"/>
        <pt x="320" y="448" on="1"/>
        <pt x="256" y="448" on="1"/>
        <pt x="256" y="320" on="1"/>
        <pt x="320" y="320" on="1"/>
        <pt x="320" y="384" on="1"/>
      </contour>
    </TTGlyph>
    <TTGlyph name="colon" xMin="118" yMin="-10" xMax="266" yMax="458">
      <contour>
        <pt x="224" y="138" on="0"/>
        <pt x="266" y="99" on="0"/>
        <pt x="266" y="64" on="1"/>
        <pt x="266" y="29" on="0"/>
        <pt x="224" y="-10" on="0"/>
        <pt x="192" y="-10" on="1"/>
        <pt x="161" y="-10" on="0"/>
        <pt x="118" y="29" on="0"/>
        <pt x="118" y="64" on="1"/>
        <pt x="118" y="99" on="0"/>
        <pt x="161" y="138" on="0"/>
        <pt x="192" y="138" on="1"/>
      </contour>
      <contour>
        <pt x="118" y="419" on="0"/>
        <pt x="161" y="458" on="0"/>
        <pt x="192" y="458" on="1"/>
        <pt x="224" y="458" on="0"/>
        <pt x="266" y="419" on="0"/>
        <pt x="266" y="384" on="1"/>
        <pt x="266" y="349" on="0"/>
        <pt x="224" y="310" on="0"/>
        <pt x="192" y="310" on="1"/>
        <pt x="161" y="310" on="0"/>
        <pt x="118" y="349" on="0"/>
        <pt x="118" y="384" on="1"/>
      </contour>
    </TTGlyph>
    <TTGlyph name="comma" xMin="119" yMin="-141" xMax="267" yMax="136">
      <contour>
        <pt x="224" y="136" on="0"/>
        <pt x="267" y="91" on="0"/>
        <pt x="267" y="42" on="1"/>
        <pt x="267" y="-9" on="0"/>
        <pt x="220" y="-102" on="0"/>
        <pt x="182" y="-141" on="1"/>
        <pt x="133" y="-101" on="1"/>
        <pt x="153" y="-77" on="0"/>
        <pt x="178" y="-34" on="0"/>
        <pt x="183" y="-10" on="1"/>
        <pt x="153" y="-7" on="0"/>
        <pt x="119" y="32" on="0"/>
        <pt x="119" y="63" on="1"/>
        <pt x="119" y="96" on="0"/>
        <pt x="160" y="136" on="0"/>
        <pt x="191" y="136" on="1"/>
      </contour>
    </TTGlyph>
    <TTGlyph name="copyright" xMin="8" yMin="11" xMax="440" yMax="501">
      <contour>
        <pt x="270" y="348" on="0"/>
        <pt x="237" y="348" on="1"/>
        <pt x="199" y="348" on="0"/>
        <pt x="168" y="310" on="0"/>
        <pt x="168" y="259" on="1"/>
        <pt x="168" y="208" on="0"/>
        <pt x="199" y="170" on="0"/>
        <pt x="237" y="170" on="1"/>
        <pt x="265" y="170" on="0"/>
        <pt x="301" y="181" on="1"/>
        <pt x="314" y="136" on="1"/>
        <pt x="271" y="120" on="0"/>
        <pt x="234" y="120" on="1"/>
        <pt x="171" y="120" on="0"/>
        <pt x="112" y="196" on="0"/>
        <pt x="112" y="258" on="1"/>
        <pt x="112" y="321" on="0"/>
        <pt x="171" y="397" on="0"/>
        <pt x="234" y="397" on="1"/>
        <pt x="276" y="397" on="0"/>
        <pt x="314" y="381" on="1"/>
        <pt x="298" y="336" on="1"/>
      </contour>
      <contour>
        <pt x="8" y="335" on="0"/>
        <pt x="69" y="446" on="0"/>
        <pt x="168" y="501" on="0"/>
        <pt x="224" y="501" on="1"/>
        <pt x="280" y="501" on="0"/>
        <pt x="379" y="446" on="0"/>
        <pt x="440" y="335" on="0"/>
        <pt x="440" y="256" on="1"/>
        <pt x="440" y="178" on="0"/>
        <pt x="379" y="67" on="0"/>
        <pt x="280" y="11" on="0"/>
        <pt x="224" y="11" on="1"/>
        <pt x="168" y="11" on="0"/>
        <pt x="69" y="67" on="0"/>
        <pt x="8" y="178" on="0"/>
        <pt x="8" y="256" on="1"/>
      </contour>
      <contour>
        <pt x="60" y="172" on="0"/>
        <pt x="140" y="59" on="0"/>
        <pt x="224" y="59" on="1"/>
        <pt x="308" y="59" on="0"/>
        <pt x="388" y="172" on="0"/>
        <pt x="388" y="256" on="1"/>
        <pt x="388" y="339" on="0"/>
        <pt x="308" y="453" on="0"/>
        <pt x="224" y="453" on="1"/>
        <pt x="140" y="453" on="0"/>
        <pt x="60" y="339" on="0"/>
        <pt x="60" y="256" on="1"/>
      </contour>
    </TTGlyph>
    <TTGlyph name="currency" xMin="43" yMin="57" xMax="405" yMax="519">
      <contour>
        <pt x="265" y="464" on="0"/>
        <pt x="301" y="447" on="1"/>
        <pt x="353" y="519" on="1"/>
        <pt x="405" y="481" on="1"/>
        <pt x="353" y="410" on="1"/>
        <pt x="376" y="387" on="0"/>
        <pt x="402" y="324" on="0"/>
        <pt x="402" y="288" on="1"/>
        <pt x="402" y="252" on="0"/>
        <pt x="377" y="189" on="0"/>
        <pt x="353" y="165" on="1"/>
        <pt x="405" y="95" on="1"/>
        <pt x="353" y="57" on="1"/>
        <pt x="301" y="128" on="1"/>
        <pt x="264" y="112" on="0"/>
        <pt x="224" y="112" on="1"/>
        <pt x="184" y="112" on="0"/>
        <pt x="147" y="128" on="1"/>
        <pt x="95" y="57" on="1"/>
        <pt x="43" y="95" on="1"/>
        <pt x="95" y="165" on="1"/>
        <pt x="71" y="189" on="0"/>
        <pt x="46" y="252" on="0"/>
        <pt x="46" y="288" on="1"/>
        <pt x="46" y="324" on="0"/>
        <pt x="72" y="387" on="0"/>
        <pt x="95" y="410" on="1"/>
        <pt x="43" y="481" on="1"/>
        <pt x="95" y="519" on="1"/>
        <pt x="147" y="447" on="1"/>
        <pt x="183" y="464" on="0"/>
        <pt x="224" y="464" on="1"/>
      </contour>
      <contour>
        <pt x="114" y="241" on="0"/>
        <pt x="177" y="176" on="0"/>
        <pt x="224" y="176" on="1"/>
        <pt x="271" y="176" on="0"/>
        <pt x="334" y="241" on="0"/>
        <pt x="334" y="288" on="1"/>
        <pt x="334" y="335" on="0"/>
        <pt x="271" y="400" on="0"/>
        <pt x="224" y="400" on="1"/>
        <pt x="177" y="400" on="0"/>
        <pt x="114" y="335" on="0"/>
        <pt x="114" y="288" on="1"/>
      </contour>
    </TTGlyph>
    <TTGlyph name="d" xMin="46" yMin="-8" xMax="395" yMax="640">
      <contour>
        <pt x="132" y="-8" on="0"/>
        <pt x="46" y="111" on="0"/>
        <pt x="46" y="224" on="1"/>
        <pt x="46" y="336" on="0"/>
        <pt x="132" y="456" on="0"/>
        <pt x="207" y="456" on="1"/>
        <pt x="264" y="456" on="0"/>
        <pt x="301" y="423" on="1"/>
        <pt x="301" y="640" on="1"/>
        <pt x="393" y="640" on="1"/>
        <pt x="393" y="65" on="1"/>
        <pt x="395" y="0" on="1"/>
        <pt x="321" y="0" on="1"/>
        <pt x="315" y="34" on="1"/>
        <pt x="274" y="-8" on="0"/>
        <pt x="210" y="-8" on="1"/>
      </contour>
      <contour>
        <pt x="144" y="135" on="0"/>
        <pt x="181" y="64" on="0"/>
        <pt x="223" y="64" on="1"/>
        <pt x="249" y="64" on="0"/>
        <pt x="289" y="87" on="0"/>
        <pt x="301" y="105" on="1"/>
        <pt x="301" y="344" on="1"/>
        <pt x="272" y="383" on="0"/>
        <pt x="223" y="383" on="1"/>
        <pt x="181" y="383" on="0"/>
        <pt x="144" y="314" on="0"/>
        <pt x="144" y="224" on="1"/>
      </contour>
    </TTGlyph>
    <TTGlyph name="dagger" xMin="59" yMin="0" xMax="389" yMax="640">
      <contour>
        <pt x="268" y="462" on="1"/>
        <pt x="389" y="462" on="1"/>
        <pt x="389" y="390" on="1"/>
        <pt x="268" y="390" on="1"/>
        <pt x="268" y="0" on="1"/>
        <pt x="180" y="0" on="1"/>
        <pt x="180" y="390" on="1"/>
        <pt x="59" y="390" on="1"/>
        <pt x="59" y="462" on="1"/>
        <pt x="180" y="462" on="1"/>
        <pt x="180" y="640" on="1"/>
        <pt x="268" y="640" on="1"/>
      </contour>
    </TTGlyph>
    <TTGlyph name="daggerdbl" xMin="64" yMin="0" xMax="384" yMax="640">
      <contour>
        <pt x="258" y="458" on="1"/>
        <pt x="384" y="458" on="1"/>
        <pt x="384" y="394" on="1"/>
        <pt x="258" y="394" on="1"/>
        <pt x="258" y="246" on="1"/>
        <pt x="384" y="246" on="1"/>
        <pt x="384" y="182" on="1"/>
        <pt x="258" y="182" on="1"/>
        <pt x="258" y="0" on="1"/>
        <pt x="190" y="0" on="1"/>
        <pt x="190" y="182" on="1"/>
        <pt x="64" y="182" on="1"/>
        <pt x="64" y="246" on="1"/>
        <pt x="190" y="246" on="1"/>
        <pt x="190" y="394" on="1"/>
        <pt x="64" y="394" on="1"/>
        <pt x="64" y="458" on="1"/>
        <pt x="190" y="458" on="1"/>
        <pt x="190" y="640" on="1"/>
        <pt x="258" y="640" on="1"/>
      </contour>
    </TTGlyph>
    <TTGlyph name="dcaron" xMin="16" yMin="-8" xMax="480" yMax="640">
      <component glyphName="d" x="-30" y="0" flags="0x0"/>
      <component glyphName="uni0315" x="44" y="0" flags="0x0"/>
    </TTGlyph>
    <TTGlyph name="dcroat" xMin="46" yMin="-8" xMax="443" yMax="640">
      <component glyphName="d" x="0" y="0" flags="0x0"/>
      <component glyphName="uni0335" x="86" y="310" flags="0x4"/>
    </TTGlyph>
    <TTGlyph name="degree" xMin="119" yMin="377" xMax="393" yMax="647">
      <contour>
        <pt x="295" y="647" on="0"/>
        <pt x="358" y="610" on="0"/>
        <pt x="393" y="548" on="0"/>
        <pt x="393" y="512" on="1"/>
        <pt x="393" y="476" on="0"/>
        <pt x="358" y="414" on="0"/>
        <pt x="295" y="377" on="0"/>
        <pt x="256" y="377" on="1"/>
        <pt x="217" y="377" on="0"/>
        <pt x="154" y="414" on="0"/>
        <pt x="119" y="476" on="0"/>
        <pt x="119" y="512" on="1"/>
        <pt x="119" y="548" on="0"/>
        <pt x="154" y="610" on="0"/>
        <pt x="217" y="647" on="0"/>
        <pt x="256" y="647" on="1"/>
      </contour>
      <contour>
        <pt x="182" y="481" on="0"/>
        <pt x="217" y="433" on="0"/>
        <pt x="256" y="433" on="1"/>
        <pt x="295" y="433" on="0"/>
        <pt x="330" y="481" on="0"/>
        <pt x="330" y="512" on="1"/>
        <pt x="330" y="542" on="0"/>
        <pt x="295" y="591" on="0"/>
        <pt x="256" y="591" on="1"/>
        <pt x="217" y="591" on="0"/>
        <pt x="182" y="542" on="0"/>
        <pt x="182" y="512" on="1"/>
      </contour>
    </TTGlyph>
    <TTGlyph name="delta" xMin="50" yMin="-13" xMax="398" yMax="642">
      <contour>
        <pt x="315" y="578" on="0"/>
        <pt x="278" y="578" on="1"/>
        <pt x="192" y="578" on="0"/>
        <pt x="192" y="516" on="1"/>
        <pt x="192" y="492" on="0"/>
        <pt x="218" y="457" on="0"/>
        <pt x="257" y="429" on="1"/>
        <pt x="317" y="386" on="0"/>
        <pt x="398" y="276" on="0"/>
        <pt x="398" y="192" on="1"/>
        <pt x="398" y="139" on="0"/>
        <pt x="362" y="46" on="0"/>
        <pt x="282" y="-13" on="0"/>
        <pt x="221" y="-13" on="1"/>
        <pt x="162" y="-13" on="0"/>
        <pt x="85" y="44" on="0"/>
        <pt x="50" y="131" on="0"/>
        <pt x="50" y="177" on="1"/>
        <pt x="50" y="247" on="0"/>
        <pt x="121" y="360" on="0"/>
        <pt x="184" y="396" on="1"/>
        <pt x="151" y="421" on="0"/>
        <pt x="117" y="478" on="0"/>
        <pt x="117" y="518" on="1"/>
        <pt x="117" y="572" on="0"/>
        <pt x="193" y="642" on="0"/>
        <pt x="278" y="642" on="1"/>
        <pt x="323" y="642" on="0"/>
        <pt x="384" y="635" on="1"/>
        <pt x="378" y="573" on="1"/>
      </contour>
      <contour>
        <pt x="125" y="118" on="0"/>
        <pt x="175" y="51" on="0"/>
        <pt x="221" y="51" on="1"/>
        <pt x="272" y="51" on="0"/>
        <pt x="324" y="122" on="0"/>
        <pt x="324" y="192" on="1"/>
        <pt x="324" y="291" on="0"/>
        <pt x="240" y="357" on="1"/>
        <pt x="175" y="320" on="0"/>
        <pt x="125" y="236" on="0"/>
        <pt x="125" y="176" on="1"/>
      </contour>
    </TTGlyph>
    <TTGlyph name="diamond" xMin="64" yMin="80" xMax="384" yMax="456">
      <contour>
        <pt x="202" y="456" on="1"/>
        <pt x="246" y="456" on="1"/>
        <pt x="384" y="284" on="1"/>
        <pt x="384" y="252" on="1"/>
        <pt x="246" y="80" on="1"/>
        <pt x="202" y="80" on="1"/>
        <pt x="64" y="252" on="1"/>
        <pt x="64" y="284" on="1"/>
      </contour>
    </TTGlyph>
    <TTGlyph name="dieresis" xMin="81" yMin="523" xMax="368" yMax="653">
      <component glyphName="uni0308" x="0" y="0" flags="0x0"/>
    </TTGlyph>
    <TTGlyph name="dieresistonos" xMin="58" yMin="512" xMax="390" yMax="704">
      <contour>
        <pt x="276" y="704" on="1"/>
        <pt x="246" y="512" on="1"/>
        <pt x="182" y="512" on="1"/>
        <pt x="192" y="704" on="1"/>
      </contour>
      <contour>
        <pt x="58" y="618" on="0"/>
        <pt x="79" y="650" on="0"/>
        <pt x="96" y="650" on="1"/>
        <pt x="113" y="650" on="0"/>
        <pt x="134" y="618" on="0"/>
        <pt x="134" y="586" on="1"/>
        <pt x="134" y="554" on="0"/>
        <pt x="113" y="522" on="0"/>
        <pt x="96" y="522" on="1"/>
        <pt x="79" y="522" on="0"/>
        <pt x="58" y="554" on="0"/>
        <pt x="58" y="586" on="1"/>
      </contour>
      <contour>
        <pt x="314" y="618" on="0"/>
        <pt x="335" y="650" on="0"/>
        <pt x="352" y="650" on="1"/>
        <pt x="369" y="650" on="0"/>
        <pt x="390" y="618" on="0"/>
        <pt x="390" y="586" on="1"/>
        <pt x="390" y="554" on="0"/>
        <pt x="369" y="522" on="0"/>
        <pt x="352" y="522" on="1"/>
        <pt x="335" y="522" on="0"/>
        <pt x="314" y="554" on="0"/>
        <pt x="314" y="586" on="1"/>
      </contour>
    </TTGlyph>
    <TTGlyph name="divide" xMin="24" yMin="62" xMax="424" yMax="514">
      <contour>
        <pt x="251" y="190" on="0"/>
        <pt x="288" y="156" on="0"/>
        <pt x="288" y="126" on="1"/>
        <pt x="288" y="96" on="0"/>
        <pt x="252" y="62" on="0"/>
        <pt x="224" y="62" on="1"/>
        <pt x="196" y="62" on="0"/>
        <pt x="160" y="96" on="0"/>
        <pt x="160" y="126" on="1"/>
        <pt x="160" y="156" on="0"/>
        <pt x="197" y="190" on="0"/>
        <pt x="224" y="190" on="1"/>
      </contour>
      <contour>
        <pt x="24" y="320" on="1"/>
        <pt x="424" y="320" on="1"/>
        <pt x="424" y="256" on="1"/>
        <pt x="24" y="256" on="1"/>
      </contour>
      <contour>
        <pt x="160" y="480" on="0"/>
        <pt x="197" y="514" on="0"/>
        <pt x="224" y="514" on="1"/>
        <pt x="251" y="514" on="0"/>
        <pt x="288" y="480" on="0"/>
        <pt x="288" y="450" on="1"/>
        <pt x="288" y="420" on="0"/>
        <pt x="252" y="386" on="0"/>
        <pt x="224" y="386" on="1"/>
        <pt x="196" y="386" on="0"/>
        <pt x="160" y="420" on="0"/>
        <pt x="160" y="450" on="1"/>
      </contour>
    </TTGlyph>
    <TTGlyph name="dkshade" xMin="0" yMin="-192" xMax="384" yMax="832">
      <contour>
        <pt x="64" y="64" on="1"/>
        <pt x="64" y="128" on="1"/>
        <pt x="0" y="128" on="1"/>
        <pt x="0" y="320" on="1"/>
        <pt x="64" y="320" on="1"/>
        <pt x="64" y="384" on="1"/>
        <pt x="0" y="384" on="1"/>
        <pt x="0" y="576" on="1"/>
        <pt x="64" y="576" on="1"/>
        <pt x="64" y="640" on="1"/>
        <pt x="0" y="640" on="1"/>
        <pt x="0" y="832" on="1"/>
        <pt x="384" y="832" on="1"/>
        <pt x="384" y="768" on="1"/>
        <pt x="320" y="768" on="1"/>
        <pt x="320" y="704" on="1"/>
        <pt x="384" y="704" on="1"/>
        <pt x="384" y="512" on="1"/>
        <pt x="320" y="512" on="1"/>
        <pt x="320" y="448" on="1"/>
        <pt x="384" y="448" on="1"/>
        <pt x="384" y="256" on="1"/>
        <pt x="320" y="256" on="1"/>
        <pt x="320" y="192" on="1"/>
        <pt x="384" y="192" on="1"/>
        <pt x="384" y="0" on="1"/>
        <pt x="320" y="0" on="1"/>
        <pt x="320" y="-64" on="1"/>
        <pt x="384" y="-64" on="1"/>
        <pt x="384" y="-192" on="1"/>
        <pt x="320" y="-192" on="1"/>
        <pt x="320" y="-128" on="1"/>
        <pt x="256" y="-128" on="1"/>
        <pt x="256" y="-192" on="1"/>
        <pt x="192" y="-192" on="1"/>
        <pt x="192" y="-128" on="1"/>
        <pt x="128" y="-128" on="1"/>
        <pt x="128" y="-192" on="1"/>
        <pt x="64" y="-192" on="1"/>
        <pt x="64" y="-128" on="1"/>
        <pt x="0" y="-128" on="1"/>
        <pt x="0" y="64" on="1"/>
      </contour>
      <contour>
        <pt x="128" y="-64" on="1"/>
        <pt x="128" y="0" on="1"/>
        <pt x="64" y="0" on="1"/>
        <pt x="64" y="-64" on="1"/>
      </contour>
      <contour>
        <pt x="128" y="192" on="1"/>
        <pt x="128" y="256" on="1"/>
        <pt x="64" y="256" on="1"/>
        <pt x="64" y="192" on="1"/>
      </contour>
      <contour>
        <pt x="128" y="448" on="1"/>
        <pt x="128" y="512" on="1"/>
        <pt x="64" y="512" on="1"/>
        <pt x="64" y="448" on="1"/>
      </contour>
      <contour>
        <pt x="128" y="704" on="1"/>
        <pt x="128" y="768" on="1"/>
        <pt x="64" y="768" on="1"/>
        <pt x="64" y="704" on="1"/>
      </contour>
      <contour>
        <pt x="192" y="64" on="1"/>
        <pt x="192" y="128" on="1"/>
        <pt x="128" y="128" on="1"/>
        <pt x="128" y="64" on="1"/>
      </contour>
      <contour>
        <pt x="192" y="320" on="1"/>
        <pt x="192" y="384" on="1"/>
        <pt x="128" y="384" on="1"/>
        <pt x="128" y="320" on="1"/>
      </contour>
      <contour>
        <pt x="192" y="576" on="1"/>
        <pt x="192" y="640" on="1"/>
        <pt x="128" y="640" on="1"/>
        <pt x="128" y="576" on="1"/>
      </contour>
      <contour>
        <pt x="256" y="-64" on="1"/>
        <pt x="256" y="0" on="1"/>
        <pt x="192" y="0" on="1"/>
        <pt x="192" y="-64" on="1"/>
      </contour>
      <contour>
        <pt x="256" y="192" on="1"/>
        <pt x="256" y="256" on="1"/>
        <pt x="192" y="256" on="1"/>
        <pt x="192" y="192" on="1"/>
      </contour>
      <contour>
        <pt x="256" y="448" on="1"/>
        <pt x="256" y="512" on="1"/>
        <pt x="192" y="512" on="1"/>
        <pt x="192" y="448" on="1"/>
      </contour>
      <contour>
        <pt x="256" y="704" on="1"/>
        <pt x="256" y="768" on="1"/>
        <pt x="192" y="768" on="1"/>
        <pt x="192" y="704" on="1"/>
      </contour>
      <contour>
        <pt x="320" y="64" on="1"/>
        <pt x="320" y="128" on="1"/>
        <pt x="256" y="128" on="1"/>
        <pt x="256" y="64" on="1"/>
      </contour>
      <contour>
        <pt x="320" y="320" on="1"/>
        <pt x="320" y="384" on="1"/>
        <pt x="256" y="384" on="1"/>
        <pt x="256" y="320" on="1"/>
      </contour>
      <contour>
        <pt x="320" y="576" on="1"/>
        <pt x="320" y="640" on="1"/>
        <pt x="256" y="640" on="1"/>
        <pt x="256" y="576" on="1"/>
      </contour>
    </TTGlyph>
    <TTGlyph name="dnblock" xMin="0" yMin="-192" xMax="448" yMax="320">
      <contour>
        <pt x="0" y="-192" on="1"/>
        <pt x="0" y="320" on="1"/>
        <pt x="448" y="320" on="1"/>
        <pt x="448" y="-192" on="1"/>
      </contour>
    </TTGlyph>
    <TTGlyph name="dollar" xMin="44" yMin="-128" xMax="396" yMax="704">
      <contour>
        <pt x="66" y="90" on="1"/>
        <pt x="99" y="78" on="0"/>
        <pt x="155" y="65" on="0"/>
        <pt x="188" y="65" on="1"/>
        <pt x="250" y="65" on="0"/>
        <pt x="300" y="104" on="0"/>
        <pt x="300" y="137" on="1"/>
        <pt x="300" y="171" on="0"/>
        <pt x="253" y="208" on="0"/>
        <pt x="203" y="229" on="1"/>
        <pt x="156" y="249" on="0"/>
        <pt x="96" y="286" on="0"/>
        <pt x="54" y="357" on="0"/>
        <pt x="54" y="414" on="1"/>
        <pt x="54" y="475" on="0"/>
        <pt x="119" y="560" on="0"/>
        <pt x="182" y="575" on="1"/>
        <pt x="182" y="704" on="1"/>
        <pt x="266" y="704" on="1"/>
        <pt x="266" y="584" on="1"/>
        <pt x="331" y="582" on="0"/>
        <pt x="383" y="564" on="1"/>
        <pt x="365" y="494" on="1"/>
        <pt x="311" y="511" on="0"/>
        <pt x="265" y="511" on="1"/>
        <pt x="199" y="511" on="0"/>
        <pt x="150" y="464" on="0"/>
        <pt x="150" y="422" on="1"/>
        <pt x="150" y="390" on="0"/>
        <pt x="179" y="348" on="0"/>
        <pt x="222" y="323" on="0"/>
        <pt x="260" y="305" on="1"/>
        <pt x="304" y="286" on="0"/>
        <pt x="358" y="251" on="0"/>
        <pt x="396" y="190" on="0"/>
        <pt x="396" y="142" on="1"/>
        <pt x="396" y="81" on="0"/>
        <pt x="329" y="9" on="0"/>
        <pt x="266" y="-2" on="1"/>
        <pt x="266" y="-128" on="1"/>
        <pt x="182" y="-128" on="1"/>
        <pt x="182" y="-8" on="1"/>
        <pt x="108" y="-5" on="0"/>
        <pt x="44" y="21" on="1"/>
      </contour>
    </TTGlyph>
    <TTGlyph name="dotaccent" xMin="160" yMin="526" xMax="288" yMax="654">
      <component glyphName="uni0307" x="0" y="0" flags="0x0"/>
    </TTGlyph>
    <TTGlyph name="dotbelowcomb" xMin="160" yMin="-184" xMax="288" yMax="-56">
      <component glyphName="uni0307" x="0" y="-710" flags="0x4"/>
    </TTGlyph>
    <TTGlyph name="dotlessi" xMin="67" yMin="0" xMax="283" yMax="448">
      <contour>
        <pt x="191" y="374" on="1"/>
        <pt x="67" y="382" on="1"/>
        <pt x="67" y="448" on="1"/>
        <pt x="283" y="448" on="1"/>
        <pt x="283" y="0" on="1"/>
        <pt x="191" y="0" on="1"/>
      </contour>
    </TTGlyph>
    <TTGlyph name="dotmath" xMin="150" yMin="214" xMax="298" yMax="362">
      <component glyphName="period" x="32" y="224" flags="0x4"/>
    </TTGlyph>
    <TTGlyph name="e" xMin="45" yMin="-13" xMax="402" yMax="461">
      <contour>
        <pt x="45" y="331" on="0"/>
        <pt x="130" y="461" on="0"/>
        <pt x="224" y="461" on="1"/>
        <pt x="310" y="461" on="0"/>
        <pt x="402" y="343" on="0"/>
        <pt x="402" y="243" on="1"/>
        <pt x="402" y="219" on="0"/>
        <pt x="399" y="195" on="1"/>
        <pt x="142" y="195" on="1"/>
        <pt x="145" y="120" on="0"/>
        <pt x="195" y="59" on="0"/>
        <pt x="252" y="59" on="1"/>
        <pt x="296" y="59" on="0"/>
        <pt x="366" y="83" on="1"/>
        <pt x="382" y="18" on="1"/>
        <pt x="312" y="-13" on="0"/>
        <pt x="242" y="-13" on="1"/>
        <pt x="45" y="-13" on="0"/>
        <pt x="45" y="224" on="1"/>
      </contour>
      <contour>
        <pt x="306" y="265" on="1"/>
        <pt x="303" y="389" on="0"/>
        <pt x="224" y="389" on="1"/>
        <pt x="185" y="389" on="0"/>
        <pt x="146" y="332" on="0"/>
        <pt x="142" y="265" on="1"/>
      </contour>
    </TTGlyph>
    <TTGlyph name="eacute" xMin="45" yMin="-13" xMax="402" yMax="652">
      <component glyphName="e" x="0" y="0" flags="0x0"/>
      <component glyphName="acutecomb" x="0" y="0" flags="0x0"/>
    </TTGlyph>
    <TTGlyph name="ebreve" xMin="45" yMin="-13" xMax="402" yMax="649">
      <component glyphName="e" x="0" y="0" flags="0x0"/>
      <component glyphName="uni0306" x="0" y="0" flags="0x0"/>
    </TTGlyph>
    <TTGlyph name="ecaron" xMin="45" yMin="-13" xMax="402" yMax="596">
      <component glyphName="e" x="0" y="0" flags="0x0"/>
      <component glyphName="uni030C" x="0" y="0" flags="0x0"/>
    </TTGlyph>
    <TTGlyph name="ecircumflex" xMin="45" yMin="-13" xMax="402" yMax="650">
      <component glyphName="e" x="0" y="0" flags="0x0"/>
      <component glyphName="uni0302" x="0" y="0" flags="0x0"/>
    </TTGlyph>
    <TTGlyph name="edieresis" xMin="45" yMin="-13" xMax="402" yMax="653">
      <component glyphName="e" x="0" y="0" flags="0x0"/>
      <component glyphName="uni0308" x="0" y="0" flags="0x0"/>
    </TTGlyph>
    <TTGlyph name="edotaccent" xMin="45" yMin="-13" xMax="402" yMax="654">
      <component glyphName="e" x="0" y="0" flags="0x0"/>
      <component glyphName="uni0307" x="0" y="0" flags="0x0"/>
    </TTGlyph>
    <TTGlyph name="egrave" xMin="45" yMin="-13" xMax="402" yMax="652">
      <component glyphName="e" x="0" y="0" flags="0x0"/>
      <component glyphName="gravecomb" x="0" y="0" flags="0x0"/>
    </TTGlyph>
    <TTGlyph name="eight" xMin="28" yMin="-11" xMax="420" yMax="586">
      <contour>
        <pt x="132" y="-11" on="0"/>
        <pt x="28" y="81" on="0"/>
        <pt x="28" y="152" on="1"/>
        <pt x="28" y="242" on="0"/>
        <pt x="115" y="306" on="1"/>
        <pt x="81" y="335" on="0"/>
        <pt x="53" y="397" on="0"/>
        <pt x="53" y="433" on="1"/>
        <pt x="53" y="477" on="0"/>
        <pt x="97" y="547" on="0"/>
        <pt x="175" y="586" on="0"/>
        <pt x="224" y="586" on="1"/>
        <pt x="299" y="586" on="0"/>
        <pt x="395" y="499" on="0"/>
        <pt x="395" y="427" on="1"/>
        <pt x="395" y="389" on="0"/>
        <pt x="361" y="311" on="0"/>
        <pt x="325" y="279" on="1"/>
        <pt x="374" y="250" on="0"/>
        <pt x="420" y="185" on="0"/>
        <pt x="420" y="139" on="1"/>
        <pt x="420" y="99" on="0"/>
        <pt x="373" y="31" on="0"/>
        <pt x="284" y="-11" on="0"/>
        <pt x="224" y="-11" on="1"/>
      </contour>
      <contour>
        <pt x="122" y="116" on="0"/>
        <pt x="173" y="61" on="0"/>
        <pt x="224" y="61" on="1"/>
        <pt x="275" y="61" on="0"/>
        <pt x="326" y="110" on="0"/>
        <pt x="326" y="140" on="1"/>
        <pt x="326" y="160" on="0"/>
        <pt x="306" y="191" on="0"/>
        <pt x="253" y="227" on="0"/>
        <pt x="201" y="252" on="1"/>
        <pt x="175" y="265" on="1"/>
        <pt x="145" y="242" on="0"/>
        <pt x="122" y="189" on="0"/>
        <pt x="122" y="156" on="1"/>
      </contour>
      <contour>
        <pt x="147" y="409" on="0"/>
        <pt x="163" y="375" on="0"/>
        <pt x="210" y="338" on="0"/>
        <pt x="256" y="314" on="1"/>
        <pt x="301" y="362" on="0"/>
        <pt x="301" y="427" on="1"/>
        <pt x="301" y="464" on="0"/>
        <pt x="263" y="514" on="0"/>
        <pt x="224" y="514" on="1"/>
        <pt x="184" y="514" on="0"/>
        <pt x="147" y="466" on="0"/>
        <pt x="147" y="432" on="1"/>
      </contour>
    </TTGlyph>
    <TTGlyph name="eight.dnom" xMin="176" yMin="-198" xMax="400" yMax="134">
      <component glyphName="uni2078" x="128" y="-512" flags="0x4"/>
    </TTGlyph>
    <TTGlyph name="eight.numr" xMin="48" yMin="314" xMax="272" yMax="646">
      <component glyphName="uni2078" x="0" y="0" flags="0x0"/>
    </TTGlyph>
    <TTGlyph name="eight_fraction_nine" xMin="41" yMin="-198" xMax="406" yMax="646">
      <component glyphName="eight.numr" x="0" y="0" flags="0x0"/>
      <component glyphName="fraction.alt" x="0" y="0" flags="0x0"/>
      <component glyphName="nine.dnom" x="0" y="0" flags="0x0"/>
    </TTGlyph>
    <TTGlyph name="ellipsis" xMin="1" yMin="-10" xMax="447" yMax="138">
      <component glyphName="period" x="-117" y="0" flags="0x0"/>
      <component glyphName="period" x="32" y="0" flags="0x0"/>
      <component glyphName="period" x="181" y="0" flags="0x0"/>
    </TTGlyph>
    <TTGlyph name="emacron" xMin="45" yMin="-13" xMax="402" yMax="632">
      <component glyphName="e" x="0" y="0" flags="0x0"/>
      <component glyphName="uni0304" x="0" y="0" flags="0x0"/>
    </TTGlyph>
    <TTGlyph name="emdash" xMin="-10" yMin="248" xMax="458" yMax="328">
      <contour>
        <pt x="-10" y="248" on="1"/>
        <pt x="-10" y="328" on="1"/>
        <pt x="458" y="328" on="1"/>
        <pt x="458" y="248" on="1"/>
      </contour>
    </TTGlyph>
    <TTGlyph name="emoji.eyes" xMin="50" yMin="378" xMax="398" yMax="518">
      <contour>
        <pt x="77" y="378" on="0"/>
        <pt x="50" y="419" on="0"/>
        <pt x="50" y="448" on="1"/>
        <pt x="50" y="477" on="0"/>
        <pt x="77" y="518" on="0"/>
        <pt x="96" y="518" on="1"/>
        <pt x="115" y="518" on="0"/>
        <pt x="142" y="477" on="0"/>
        <pt x="142" y="448" on="1"/>
        <pt x="142" y="419" on="0"/>
        <pt x="115" y="378" on="0"/>
        <pt x="96" y="378" on="1"/>
      </contour>
      <contour>
        <pt x="306" y="477" on="0"/>
        <pt x="333" y="518" on="0"/>
        <pt x="352" y="518" on="1"/>
        <pt x="371" y="518" on="0"/>
        <pt x="398" y="477" on="0"/>
        <pt x="398" y="448" on="1"/>
        <pt x="398" y="419" on="0"/>
        <pt x="371" y="378" on="0"/>
        <pt x="352" y="378" on="1"/>
        <pt x="333" y="378" on="0"/>
        <pt x="306" y="419" on="0"/>
        <pt x="306" y="448" on="1"/>
      </contour>
    </TTGlyph>
    <TTGlyph name="emoji.eyes.smiling" xMin="0" yMin="384" xMax="448" yMax="512">
      <contour>
        <pt x="64" y="512" on="1"/>
        <pt x="128" y="512" on="1"/>
        <pt x="192" y="384" on="1"/>
        <pt x="133" y="384" on="1"/>
        <pt x="101" y="448" on="1"/>
        <pt x="91" y="448" on="1"/>
        <pt x="59" y="384" on="1"/>
        <pt x="0" y="384" on="1"/>
      </contour>
      <contour>
        <pt x="320" y="512" on="1"/>
        <pt x="384" y="512" on="1"/>
        <pt x="448" y="384" on="1"/>
        <pt x="389" y="384" on="1"/>
        <pt x="357" y="448" on="1"/>
        <pt x="347" y="448" on="1"/>
        <pt x="315" y="384" on="1"/>
        <pt x="256" y="384" on="1"/>
      </contour>
    </TTGlyph>
    <TTGlyph name="emoji.mouth" xMin="0" yMin="130" xMax="448" yMax="256">
      <contour>
        <pt x="61" y="130" on="0"/>
        <pt x="0" y="194" on="0"/>
        <pt x="0" y="249" on="1"/>
        <pt x="0" y="256" on="1"/>
        <pt x="64" y="256" on="1"/>
        <pt x="64" y="251" on="1"/>
        <pt x="64" y="221" on="0"/>
        <pt x="88" y="190" on="0"/>
        <pt x="116" y="190" on="1"/>
        <pt x="332" y="190" on="1"/>
        <pt x="360" y="190" on="0"/>
        <pt x="384" y="221" on="0"/>
        <pt x="384" y="251" on="1"/>
        <pt x="384" y="256" on="1"/>
        <pt x="448" y="256" on="1"/>
        <pt x="448" y="249" on="1"/>
        <pt x="448" y="194" on="0"/>
        <pt x="387" y="130" on="0"/>
        <pt x="332" y="130" on="1"/>
        <pt x="116" y="130" on="1"/>
      </contour>
    </TTGlyph>
    <TTGlyph name="emoji.mouth.grinning" xMin="0" yMin="66" xMax="448" yMax="254">
      <contour>
        <pt x="61" y="66" on="0"/>
        <pt x="0" y="130" on="0"/>
        <pt x="0" y="185" on="1"/>
        <pt x="0" y="254" on="1"/>
        <pt x="448" y="254" on="1"/>
        <pt x="448" y="185" on="1"/>
        <pt x="448" y="130" on="0"/>
        <pt x="387" y="66" on="0"/>
        <pt x="332" y="66" on="1"/>
        <pt x="116" y="66" on="1"/>
      </contour>
      <contour>
        <pt x="64" y="157" on="0"/>
        <pt x="88" y="126" on="0"/>
        <pt x="116" y="126" on="1"/>
        <pt x="128" y="126" on="1"/>
        <pt x="128" y="194" on="1"/>
        <pt x="64" y="194" on="1"/>
        <pt x="64" y="187" on="1"/>
      </contour>
      <contour>
        <pt x="256" y="126" on="1"/>
        <pt x="256" y="194" on="1"/>
        <pt x="192" y="194" on="1"/>
        <pt x="192" y="126" on="1"/>
      </contour>
      <contour>
        <pt x="332" y="126" on="1"/>
        <pt x="360" y="126" on="0"/>
        <pt x="384" y="157" on="0"/>
        <pt x="384" y="187" on="1"/>
        <pt x="384" y="194" on="1"/>
        <pt x="320" y="194" on="1"/>
        <pt x="320" y="126" on="1"/>
      </contour>
    </TTGlyph>
    <TTGlyph name="endash" xMin="74" yMin="248" xMax="374" yMax="328">
      <component glyphName="hyphen" x="0" y="0" flags="0x0"/>
    </TTGlyph>
    <TTGlyph name="eng" xMin="53" yMin="-196" xMax="393" yMax="452">
      <contour>
        <pt x="55" y="383" on="1"/>
        <pt x="53" y="448" on="1"/>
        <pt x="135" y="448" on="1"/>
        <pt x="141" y="408" on="1"/>
        <pt x="198" y="452" on="0"/>
        <pt x="266" y="452" on="1"/>
        <pt x="325" y="452" on="0"/>
        <pt x="393" y="382" on="0"/>
        <pt x="393" y="297" on="1"/>
        <pt x="393" y="-5" on="1"/>
        <pt x="393" y="-80" on="0"/>
        <pt x="336" y="-170" on="0"/>
        <pt x="267" y="-196" on="1"/>
        <pt x="234" y="-126" on="1"/>
        <pt x="273" y="-109" on="0"/>
        <pt x="301" y="-62" on="0"/>
        <pt x="301" y="-13" on="1"/>
        <pt x="301" y="289" on="1"/>
        <pt x="301" y="338" on="0"/>
        <pt x="276" y="380" on="0"/>
        <pt x="241" y="380" on="1"/>
        <pt x="218" y="380" on="0"/>
        <pt x="169" y="357" on="0"/>
        <pt x="147" y="337" on="1"/>
        <pt x="147" y="0" on="1"/>
        <pt x="55" y="0" on="1"/>
      </contour>
    </TTGlyph>
    <TTGlyph name="eogonek" xMin="45" yMin="-197" xMax="402" yMax="461">
      <component glyphName="e" x="0" y="0" flags="0x0"/>
      <component glyphName="uni0328" x="-53" y="0" flags="0x0"/>
    </TTGlyph>
    <TTGlyph name="epsilon" xMin="64" yMin="0" xMax="384" yMax="448">
      <contour>
        <pt x="384" y="0" on="1"/>
        <pt x="128" y="0" on="1"/>
        <pt x="128" y="64" on="1"/>
        <pt x="384" y="64" on="1"/>
      </contour>
      <contour>
        <pt x="64" y="192" on="1"/>
        <pt x="128" y="192" on="1"/>
        <pt x="128" y="64" on="1"/>
        <pt x="64" y="64" on="1"/>
      </contour>
      <contour>
        <pt x="64" y="384" on="1"/>
        <pt x="128" y="384" on="1"/>
        <pt x="128" y="256" on="1"/>
        <pt x="64" y="256" on="1"/>
      </contour>
      <contour>
        <pt x="128" y="256" on="1"/>
        <pt x="320" y="256" on="1"/>
        <pt x="320" y="192" on="1"/>
        <pt x="128" y="192" on="1"/>
      </contour>
      <contour>
        <pt x="128" y="448" on="1"/>
        <pt x="384" y="448" on="1"/>
        <pt x="384" y="384" on="1"/>
        <pt x="128" y="384" on="1"/>
      </contour>
    </TTGlyph>
    <TTGlyph name="epsilontonos" xMin="64" yMin="0" xMax="384" yMax="704">
      <component glyphName="epsilon" x="0" y="0" flags="0x0"/>
      <component glyphName="tonos" x="0" y="0" flags="0x0"/>
    </TTGlyph>
    <TTGlyph name="equal" xMin="32" yMin="164" xMax="416" yMax="412">
      <contour>
        <pt x="32" y="164" on="1"/>
        <pt x="32" y="244" on="1"/>
        <pt x="416" y="244" on="1"/>
        <pt x="416" y="164" on="1"/>
      </contour>
      <contour>
        <pt x="32" y="412" on="1"/>
        <pt x="416" y="412" on="1"/>
        <pt x="416" y="332" on="1"/>
        <pt x="32" y="332" on="1"/>
      </contour>
    </TTGlyph>
    <TTGlyph name="equivalence" xMin="24" yMin="128" xMax="424" yMax="448">
      <contour>
        <pt x="24" y="128" on="1"/>
        <pt x="24" y="192" on="1"/>
        <pt x="424" y="192" on="1"/>
        <pt x="424" y="128" on="1"/>
      </contour>
      <contour>
        <pt x="24" y="320" on="1"/>
        <pt x="424" y="320" on="1"/>
        <pt x="424" y="256" on="1"/>
        <pt x="24" y="256" on="1"/>
      </contour>
      <contour>
        <pt x="24" y="448" on="1"/>
        <pt x="424" y="448" on="1"/>
        <pt x="424" y="384" on="1"/>
        <pt x="24" y="384" on="1"/>
      </contour>
    </TTGlyph>
    <TTGlyph name="estimated" xMin="50" yMin="-13" xMax="398" yMax="461">
      <contour>
        <pt x="296" y="-13" on="0"/>
        <pt x="238" y="-13" on="1"/>
        <pt x="138" y="-13" on="0"/>
        <pt x="50" y="122" on="0"/>
        <pt x="50" y="224" on="1"/>
        <pt x="50" y="326" on="0"/>
        <pt x="139" y="461" on="0"/>
        <pt x="229" y="461" on="1"/>
        <pt x="317" y="461" on="0"/>
        <pt x="398" y="333" on="0"/>
        <pt x="398" y="224" on="1"/>
        <pt x="398" y="191" on="1"/>
        <pt x="164" y="191" on="1"/>
        <pt x="166" y="109" on="0"/>
        <pt x="202" y="41" on="0"/>
        <pt x="249" y="41" on="1"/>
        <pt x="297" y="41" on="0"/>
        <pt x="348" y="57" on="1"/>
        <pt x="362" y="8" on="1"/>
      </contour>
      <contour>
        <pt x="284" y="247" on="1"/>
        <pt x="282" y="335" on="0"/>
        <pt x="256" y="407" on="0"/>
        <pt x="225" y="407" on="1"/>
        <pt x="192" y="407" on="0"/>
        <pt x="166" y="335" on="0"/>
        <pt x="164" y="247" on="1"/>
      </contour>
    </TTGlyph>
    <TTGlyph name="eta" xMin="58" yMin="-192" xMax="388" yMax="452">
      <contour>
        <pt x="58" y="448" on="1"/>
        <pt x="124" y="448" on="1"/>
        <pt x="130" y="400" on="1"/>
        <pt x="158" y="424" on="0"/>
        <pt x="226" y="452" on="0"/>
        <pt x="261" y="452" on="1"/>
        <pt x="318" y="452" on="0"/>
        <pt x="388" y="382" on="0"/>
        <pt x="388" y="297" on="1"/>
        <pt x="388" y="-192" on="1"/>
        <pt x="316" y="-192" on="1"/>
        <pt x="316" y="289" on="1"/>
        <pt x="316" y="342" on="0"/>
        <pt x="286" y="388" on="0"/>
        <pt x="247" y="388" on="1"/>
        <pt x="218" y="388" on="0"/>
        <pt x="158" y="356" on="0"/>
        <pt x="132" y="330" on="1"/>
        <pt x="132" y="0" on="1"/>
        <pt x="60" y="0" on="1"/>
        <pt x="60" y="383" on="1"/>
      </contour>
    </TTGlyph>
    <TTGlyph name="etatonos" xMin="58" yMin="-192" xMax="388" yMax="704">
      <component glyphName="eta" x="0" y="0" flags="0x0"/>
      <component glyphName="tonos" x="0" y="0" flags="0x0"/>
    </TTGlyph>
    <TTGlyph name="eth" xMin="42" yMin="-8" xMax="405" yMax="648">
      <contour>
        <pt x="215" y="618" on="0"/>
        <pt x="244" y="593" on="1"/>
        <pt x="312" y="640" on="1"/>
        <pt x="348" y="590" on="1"/>
        <pt x="290" y="550" on="1"/>
        <pt x="405" y="425" on="0"/>
        <pt x="405" y="252" on="1"/>
        <pt x="405" y="124" on="0"/>
        <pt x="310" y="-8" on="0"/>
        <pt x="221" y="-8" on="1"/>
        <pt x="139" y="-8" on="0"/>
        <pt x="42" y="106" on="0"/>
        <pt x="42" y="203" on="1"/>
        <pt x="42" y="269" on="0"/>
        <pt x="88" y="364" on="0"/>
        <pt x="166" y="414" on="0"/>
        <pt x="215" y="414" on="1"/>
        <pt x="251" y="414" on="0"/>
        <pt x="287" y="400" on="1"/>
        <pt x="266" y="454" on="0"/>
        <pt x="221" y="502" on="1"/>
        <pt x="144" y="448" on="1"/>
        <pt x="108" y="499" on="1"/>
        <pt x="175" y="545" on="1"/>
        <pt x="156" y="560" on="0"/>
        <pt x="123" y="583" on="1"/>
        <pt x="170" y="648" on="1"/>
      </contour>
      <contour>
        <pt x="136" y="64" on="0"/>
        <pt x="224" y="64" on="1"/>
        <pt x="274" y="64" on="0"/>
        <pt x="312" y="159" on="0"/>
        <pt x="312" y="249" on="1"/>
        <pt x="312" y="292" on="0"/>
        <pt x="307" y="321" on="1"/>
        <pt x="270" y="342" on="0"/>
        <pt x="229" y="342" on="1"/>
        <pt x="177" y="342" on="0"/>
        <pt x="136" y="266" on="0"/>
        <pt x="136" y="203" on="1"/>
      </contour>
    </TTGlyph>
    <TTGlyph name="exclam" xMin="150" yMin="-10" xMax="298" yMax="640">
      <contour>
        <pt x="168" y="640" on="1"/>
        <pt x="280" y="640" on="1"/>
        <pt x="265" y="202" on="1"/>
        <pt x="183" y="202" on="1"/>
      </contour>
      <contour>
        <pt x="150" y="91" on="0"/>
        <pt x="193" y="128" on="0"/>
        <pt x="224" y="128" on="1"/>
        <pt x="256" y="128" on="0"/>
        <pt x="298" y="91" on="0"/>
        <pt x="298" y="59" on="1"/>
        <pt x="298" y="26" on="0"/>
        <pt x="256" y="-10" on="0"/>
        <pt x="224" y="-10" on="1"/>
        <pt x="192" y="-10" on="0"/>
        <pt x="150" y="27" on="0"/>
        <pt x="150" y="59" on="1"/>
      </contour>
    </TTGlyph>
    <TTGlyph name="exclamdbl" xMin="49" yMin="-10" xMax="399" yMax="640">
      <component glyphName="exclam" x="-101" y="0" flags="0x0"/>
      <component glyphName="exclam" x="101" y="0" flags="0x0"/>
    </TTGlyph>
    <TTGlyph name="exclamdown" xMin="150" yMin="-192" xMax="298" yMax="458">
      <contour>
        <pt x="280" y="-192" on="1"/>
        <pt x="168" y="-192" on="1"/>
        <pt x="183" y="246" on="1"/>
        <pt x="265" y="246" on="1"/>
      </contour>
      <contour>
        <pt x="150" y="422" on="0"/>
        <pt x="192" y="458" on="0"/>
        <pt x="224" y="458" on="1"/>
        <pt x="256" y="458" on="0"/>
        <pt x="298" y="421" on="0"/>
        <pt x="298" y="389" on="1"/>
        <pt x="298" y="357" on="0"/>
        <pt x="255" y="320" on="0"/>
        <pt x="224" y="320" on="1"/>
        <pt x="192" y="320" on="0"/>
        <pt x="150" y="357" on="0"/>
        <pt x="150" y="389" on="1"/>
      </contour>
    </TTGlyph>
    <TTGlyph name="f" xMin="59" yMin="0" xMax="393" yMax="648">
      <contour>
        <pt x="59" y="376" on="1"/>
        <pt x="59" y="448" on="1"/>
        <pt x="134" y="448" on="1"/>
        <pt x="134" y="504" on="1"/>
        <pt x="134" y="577" on="0"/>
        <pt x="213" y="648" on="0"/>
        <pt x="279" y="648" on="1"/>
        <pt x="333" y="648" on="0"/>
        <pt x="393" y="636" on="1"/>
        <pt x="381" y="568" on="1"/>
        <pt x="336" y="576" on="0"/>
        <pt x="295" y="576" on="1"/>
        <pt x="226" y="576" on="0"/>
        <pt x="226" y="508" on="1"/>
        <pt x="226" y="448" on="1"/>
        <pt x="360" y="448" on="1"/>
        <pt x="360" y="374" on="1"/>
        <pt x="226" y="374" on="1"/>
        <pt x="226" y="0" on="1"/>
        <pt x="134" y="0" on="1"/>
        <pt x="134" y="373" on="1"/>
      </contour>
    </TTGlyph>
    <TTGlyph name="f.italic" xMin="59" yMin="-202" xMax="393" yMax="648">
      <contour>
        <pt x="127" y="-136" on="0"/>
        <pt x="148" y="-65" on="0"/>
        <pt x="147" y="-8" on="1"/>
        <pt x="137" y="373" on="1"/>
        <pt x="59" y="376" on="1"/>
        <pt x="59" y="448" on="1"/>
        <pt x="135" y="448" on="1"/>
        <pt x="134" y="498" on="1"/>
        <pt x="132" y="575" on="0"/>
        <pt x="210" y="648" on="0"/>
        <pt x="279" y="648" on="1"/>
        <pt x="333" y="648" on="0"/>
        <pt x="393" y="636" on="1"/>
        <pt x="381" y="568" on="1"/>
        <pt x="336" y="576" on="0"/>
        <pt x="296" y="576" on="1"/>
        <pt x="257" y="576" on="0"/>
        <pt x="225" y="537" on="0"/>
        <pt x="226" y="501" on="1"/>
        <pt x="227" y="448" on="1"/>
        <pt x="360" y="448" on="1"/>
        <pt x="360" y="374" on="1"/>
        <pt x="229" y="374" on="1"/>
        <pt x="239" y="-8" on="1"/>
        <pt x="240" y="-75" on="0"/>
        <pt x="210" y="-161" on="0"/>
        <pt x="177" y="-202" on="1"/>
        <pt x="104" y="-172" on="1"/>
      </contour>
    </TTGlyph>
    <TTGlyph name="female" xMin="54" yMin="-114" xMax="394" yMax="456">
      <contour>
        <pt x="190" y="48" on="1"/>
        <pt x="190" y="123" on="1"/>
        <pt x="130" y="134" on="0"/>
        <pt x="54" y="226" on="0"/>
        <pt x="54" y="288" on="1"/>
        <pt x="54" y="335" on="0"/>
        <pt x="99" y="412" on="0"/>
        <pt x="177" y="456" on="0"/>
        <pt x="224" y="456" on="1"/>
        <pt x="271" y="456" on="0"/>
        <pt x="349" y="412" on="0"/>
        <pt x="394" y="335" on="0"/>
        <pt x="394" y="288" on="1"/>
        <pt x="394" y="226" on="0"/>
        <pt x="318" y="134" on="0"/>
        <pt x="258" y="123" on="1"/>
        <pt x="258" y="48" on="1"/>
        <pt x="354" y="48" on="1"/>
        <pt x="354" y="-16" on="1"/>
        <pt x="258" y="-16" on="1"/>
        <pt x="258" y="-114" on="1"/>
        <pt x="190" y="-114" on="1"/>
        <pt x="190" y="-16" on="1"/>
        <pt x="94" y="-16" on="1"/>
        <pt x="94" y="48" on="1"/>
      </contour>
      <contour>
        <pt x="124" y="244" on="0"/>
        <pt x="181" y="184" on="0"/>
        <pt x="224" y="184" on="1"/>
        <pt x="267" y="184" on="0"/>
        <pt x="324" y="244" on="0"/>
        <pt x="324" y="288" on="1"/>
        <pt x="324" y="332" on="0"/>
        <pt x="267" y="392" on="0"/>
        <pt x="224" y="392" on="1"/>
        <pt x="181" y="392" on="0"/>
        <pt x="124" y="332" on="0"/>
        <pt x="124" y="288" on="1"/>
      </contour>
    </TTGlyph>
    <TTGlyph name="filledbox" xMin="62" yMin="64" xMax="386" yMax="384">
      <contour>
        <pt x="386" y="64" on="1"/>
        <pt x="62" y="64" on="1"/>
        <pt x="62" y="384" on="1"/>
        <pt x="386" y="384" on="1"/>
      </contour>
    </TTGlyph>
    <TTGlyph name="filledrect" xMin="16" yMin="128" xMax="432" yMax="320">
      <contour>
        <pt x="432" y="128" on="1"/>
        <pt x="16" y="128" on="1"/>
        <pt x="16" y="320" on="1"/>
        <pt x="432" y="320" on="1"/>
      </contour>
    </TTGlyph>
    <TTGlyph name="five" xMin="48" yMin="0" xMax="401" yMax="576">
      <contour>
        <pt x="143" y="72" on="0"/>
        <pt x="198" y="72" on="1"/>
        <pt x="255" y="72" on="0"/>
        <pt x="305" y="117" on="0"/>
        <pt x="305" y="168" on="1"/>
        <pt x="305" y="218" on="0"/>
        <pt x="265" y="257" on="0"/>
        <pt x="211" y="257" on="1"/>
        <pt x="171" y="257" on="0"/>
        <pt x="99" y="244" on="1"/>
        <pt x="63" y="271" on="1"/>
        <pt x="76" y="576" on="1"/>
        <pt x="379" y="576" on="1"/>
        <pt x="379" y="504" on="1"/>
        <pt x="165" y="504" on="1"/>
        <pt x="157" y="323" on="1"/>
        <pt x="189" y="329" on="0"/>
        <pt x="236" y="329" on="1"/>
        <pt x="309" y="329" on="0"/>
        <pt x="401" y="254" on="0"/>
        <pt x="401" y="172" on="1"/>
        <pt x="401" y="0" on="0"/>
        <pt x="213" y="0" on="1"/>
        <pt x="134" y="0" on="0"/>
        <pt x="48" y="25" on="1"/>
        <pt x="65" y="92" on="1"/>
      </contour>
    </TTGlyph>
    <TTGlyph name="five.dnom" xMin="176" yMin="-198" xMax="392" yMax="128">
      <component glyphName="uni2075" x="128" y="-512" flags="0x4"/>
    </TTGlyph>
    <TTGlyph name="five.numr" xMin="48" yMin="314" xMax="264" yMax="640">
      <component glyphName="uni2075" x="0" y="0" flags="0x0"/>
    </TTGlyph>
    <TTGlyph name="five_fraction_nine" xMin="41" yMin="-198" xMax="406" yMax="640">
      <component glyphName="five.numr" x="0" y="0" flags="0x0"/>
      <component glyphName="fraction.alt" x="0" y="0" flags="0x0"/>
      <component glyphName="nine.dnom" x="0" y="0" flags="0x0"/>
    </TTGlyph>
    <TTGlyph name="five_fraction_seven" xMin="41" yMin="-198" xMax="406" yMax="640">
      <component glyphName="five.numr" x="0" y="0" flags="0x0"/>
      <component glyphName="fraction.alt" x="0" y="0" flags="0x0"/>
      <component glyphName="seven.dnom" x="0" y="0" flags="0x0"/>
    </TTGlyph>
    <TTGlyph name="fiveeighths" xMin="41" yMin="-198" xMax="406" yMax="640">
      <component glyphName="five.numr" x="0" y="0" flags="0x0"/>
      <component glyphName="fraction.alt" x="0" y="0" flags="0x0"/>
      <component glyphName="eight.dnom" x="0" y="0" flags="0x0"/>
    </TTGlyph>
    <TTGlyph name="florin" xMin="69" yMin="-196" xMax="403" yMax="648">
      <contour>
        <pt x="115" y="-108" on="0"/>
        <pt x="144" y="-60" on="0"/>
        <pt x="144" y="-13" on="1"/>
        <pt x="144" y="373" on="1"/>
        <pt x="69" y="376" on="1"/>
        <pt x="69" y="448" on="1"/>
        <pt x="144" y="448" on="1"/>
        <pt x="144" y="504" on="1"/>
        <pt x="144" y="577" on="0"/>
        <pt x="223" y="648" on="0"/>
        <pt x="289" y="648" on="1"/>
        <pt x="343" y="648" on="0"/>
        <pt x="403" y="636" on="1"/>
        <pt x="391" y="568" on="1"/>
        <pt x="346" y="576" on="0"/>
        <pt x="305" y="576" on="1"/>
        <pt x="236" y="576" on="0"/>
        <pt x="236" y="508" on="1"/>
        <pt x="236" y="448" on="1"/>
        <pt x="370" y="448" on="1"/>
        <pt x="370" y="374" on="1"/>
        <pt x="236" y="374" on="1"/>
        <pt x="236" y="-5" on="1"/>
        <pt x="236" y="-80" on="0"/>
        <pt x="180" y="-168" on="0"/>
        <pt x="110" y="-196" on="1"/>
        <pt x="77" y="-126" on="1"/>
      </contour>
    </TTGlyph>
    <TTGlyph name="four" xMin="36" yMin="0" xMax="428" yMax="592">
      <contour>
        <pt x="257" y="124" on="1"/>
        <pt x="36" y="124" on="1"/>
        <pt x="44" y="333" on="0"/>
        <pt x="197" y="564" on="0"/>
        <pt x="349" y="592" on="1"/>
        <pt x="349" y="196" on="1"/>
        <pt x="428" y="196" on="1"/>
        <pt x="428" y="124" on="1"/>
        <pt x="349" y="124" on="1"/>
        <pt x="349" y="0" on="1"/>
        <pt x="257" y="0" on="1"/>
      </contour>
      <contour>
        <pt x="257" y="196" on="1"/>
        <pt x="257" y="392" on="1"/>
        <pt x="260" y="479" on="1"/>
        <pt x="154" y="405" on="0"/>
        <pt x="133" y="196" on="1"/>
      </contour>
    </TTGlyph>
    <TTGlyph name="four.dnom" xMin="184" yMin="-192" xMax="414" yMax="138">
      <component glyphName="uni2074" x="128" y="-512" flags="0x4"/>
    </TTGlyph>
    <TTGlyph name="four.numr" xMin="56" yMin="320" xMax="286" yMax="650">
      <component glyphName="uni2074" x="0" y="0" flags="0x0"/>
    </TTGlyph>
    <TTGlyph name="four_fraction_nine" xMin="41" yMin="-198" xMax="406" yMax="650">
      <component glyphName="four.numr" x="0" y="0" flags="0x0"/>
      <component glyphName="fraction.alt" x="0" y="0" flags="0x0"/>
      <component glyphName="nine.dnom" x="0" y="0" flags="0x0"/>
    </TTGlyph>
    <TTGlyph name="four_fraction_seven" xMin="41" yMin="-198" xMax="406" yMax="650">
      <component glyphName="four.numr" x="0" y="0" flags="0x0"/>
      <component glyphName="fraction.alt" x="0" y="0" flags="0x0"/>
      <component glyphName="seven.dnom" x="0" y="0" flags="0x0"/>
    </TTGlyph>
    <TTGlyph name="fraction" xMin="109" yMin="-69" xMax="339" yMax="710">
      <component glyphName="slash" x="0" y="0" flags="0x0"/>
    </TTGlyph>
    <TTGlyph name="fraction.alt" xMin="41" yMin="171" xMax="406" yMax="277">
      <contour>
        <pt x="398" y="277" on="1"/>
        <pt x="406" y="222" on="1"/>
        <pt x="49" y="171" on="1"/>
        <pt x="41" y="226" on="1"/>
      </contour>
    </TTGlyph>
    <TTGlyph name="franc" xMin="10" yMin="0" xMax="384" yMax="576">
      <contour>
        <pt x="60" y="174" on="1"/>
        <pt x="60" y="576" on="1"/>
        <pt x="384" y="576" on="1"/>
        <pt x="384" y="512" on="1"/>
        <pt x="132" y="512" on="1"/>
        <pt x="132" y="320" on="1"/>
        <pt x="320" y="320" on="1"/>
        <pt x="320" y="256" on="1"/>
        <pt x="132" y="256" on="1"/>
        <pt x="132" y="174" on="1"/>
        <pt x="266" y="174" on="1"/>
        <pt x="266" y="114" on="1"/>
        <pt x="132" y="114" on="1"/>
        <pt x="132" y="0" on="1"/>
        <pt x="60" y="0" on="1"/>
        <pt x="60" y="114" on="1"/>
        <pt x="10" y="114" on="1"/>
        <pt x="10" y="174" on="1"/>
      </contour>
    </TTGlyph>
    <TTGlyph name="g" xMin="45" yMin="-196" xMax="395" yMax="456">
      <contour>
        <pt x="159" y="-196" on="0"/>
        <pt x="90" y="-180" on="1"/>
        <pt x="101" y="-114" on="1"/>
        <pt x="157" y="-124" on="0"/>
        <pt x="211" y="-124" on="1"/>
        <pt x="264" y="-124" on="0"/>
        <pt x="301" y="-89" on="0"/>
        <pt x="301" y="-49" on="1"/>
        <pt x="301" y="27" on="1"/>
        <pt x="263" y="-8" on="0"/>
        <pt x="205" y="-8" on="1"/>
        <pt x="130" y="-8" on="0"/>
        <pt x="45" y="112" on="0"/>
        <pt x="45" y="224" on="1"/>
        <pt x="45" y="337" on="0"/>
        <pt x="131" y="456" on="0"/>
        <pt x="209" y="456" on="1"/>
        <pt x="274" y="456" on="0"/>
        <pt x="315" y="414" on="1"/>
        <pt x="320" y="448" on="1"/>
        <pt x="395" y="448" on="1"/>
        <pt x="393" y="384" on="1"/>
        <pt x="393" y="-36" on="1"/>
        <pt x="393" y="-196" on="0"/>
        <pt x="221" y="-196" on="1"/>
      </contour>
      <contour>
        <pt x="143" y="135" on="0"/>
        <pt x="180" y="64" on="0"/>
        <pt x="222" y="64" on="1"/>
        <pt x="271" y="64" on="0"/>
        <pt x="301" y="106" on="1"/>
        <pt x="301" y="343" on="1"/>
        <pt x="272" y="384" on="0"/>
        <pt x="222" y="384" on="1"/>
        <pt x="180" y="384" on="0"/>
        <pt x="143" y="314" on="0"/>
        <pt x="143" y="224" on="1"/>
      </contour>
    </TTGlyph>
    <TTGlyph name="g.ss01" xMin="32" yMin="-200" xMax="435" yMax="456">
      <contour>
        <pt x="253" y="456" on="0"/>
        <pt x="282" y="448" on="1"/>
        <pt x="435" y="448" on="1"/>
        <pt x="435" y="381" on="1"/>
        <pt x="373" y="378" on="1"/>
        <pt x="392" y="344" on="0"/>
        <pt x="392" y="298" on="1"/>
        <pt x="392" y="230" on="0"/>
        <pt x="302" y="139" on="0"/>
        <pt x="220" y="139" on="1"/>
        <pt x="183" y="139" on="0"/>
        <pt x="154" y="148" on="1"/>
        <pt x="143" y="142" on="0"/>
        <pt x="130" y="121" on="0"/>
        <pt x="130" y="110" on="1"/>
        <pt x="130" y="81" on="0"/>
        <pt x="171" y="81" on="1"/>
        <pt x="270" y="81" on="1"/>
        <pt x="353" y="81" on="0"/>
        <pt x="435" y="5" on="0"/>
        <pt x="435" y="-55" on="1"/>
        <pt x="435" y="-126" on="0"/>
        <pt x="333" y="-200" on="0"/>
        <pt x="233" y="-200" on="1"/>
        <pt x="127" y="-200" on="0"/>
        <pt x="32" y="-130" on="0"/>
        <pt x="32" y="-79" on="1"/>
        <pt x="32" y="-53" on="0"/>
        <pt x="59" y="-6" on="0"/>
        <pt x="84" y="11" on="1"/>
        <pt x="42" y="37" on="0"/>
        <pt x="42" y="92" on="1"/>
        <pt x="42" y="119" on="0"/>
        <pt x="71" y="165" on="0"/>
        <pt x="94" y="182" on="1"/>
        <pt x="48" y="224" on="0"/>
        <pt x="48" y="298" on="1"/>
        <pt x="48" y="368" on="0"/>
        <pt x="137" y="456" on="0"/>
        <pt x="220" y="456" on="1"/>
      </contour>
      <contour>
        <pt x="125" y="-93" on="0"/>
        <pt x="170" y="-128" on="0"/>
        <pt x="233" y="-128" on="1"/>
        <pt x="292" y="-128" on="0"/>
        <pt x="340" y="-95" on="0"/>
        <pt x="340" y="-65" on="1"/>
        <pt x="340" y="-40" on="0"/>
        <pt x="304" y="-9" on="0"/>
        <pt x="265" y="-9" on="1"/>
        <pt x="168" y="-9" on="1"/>
        <pt x="149" y="-8" on="1"/>
        <pt x="137" y="-20" on="0"/>
        <pt x="125" y="-49" on="0"/>
        <pt x="125" y="-62" on="1"/>
      </contour>
      <contour>
        <pt x="144" y="254" on="0"/>
        <pt x="183" y="208" on="0"/>
        <pt x="220" y="208" on="1"/>
        <pt x="296" y="208" on="0"/>
        <pt x="296" y="298" on="1"/>
        <pt x="296" y="341" on="0"/>
        <pt x="258" y="387" on="0"/>
        <pt x="220" y="387" on="1"/>
        <pt x="183" y="387" on="0"/>
        <pt x="144" y="341" on="0"/>
        <pt x="144" y="298" on="1"/>
      </contour>
    </TTGlyph>
    <TTGlyph name="gamma" xMin="42" yMin="-192" xMax="406" yMax="451">
      <contour>
        <pt x="117" y="451" on="1"/>
        <pt x="128" y="325" on="0"/>
        <pt x="178" y="166" on="0"/>
        <pt x="224" y="86" on="1"/>
        <pt x="270" y="166" on="0"/>
        <pt x="320" y="325" on="0"/>
        <pt x="331" y="451" on="1"/>
        <pt x="406" y="447" on="1"/>
        <pt x="395" y="313" on="0"/>
        <pt x="322" y="111" on="0"/>
        <pt x="260" y="15" on="1"/>
        <pt x="260" y="-192" on="1"/>
        <pt x="188" y="-192" on="1"/>
        <pt x="188" y="15" on="1"/>
        <pt x="126" y="111" on="0"/>
        <pt x="53" y="313" on="0"/>
        <pt x="42" y="447" on="1"/>
      </contour>
    </TTGlyph>
    <TTGlyph name="gbreve" xMin="45" yMin="-196" xMax="395" yMax="649">
      <component glyphName="g" x="0" y="0" flags="0x0"/>
      <component glyphName="uni0306" x="0" y="0" flags="0x0"/>
    </TTGlyph>
    <TTGlyph name="gbreve.ss01" xMin="32" yMin="-200" xMax="435" yMax="649">
      <component glyphName="g.ss01" x="0" y="0" flags="0x0"/>
      <component glyphName="uni0306" x="5" y="0" flags="0x0"/>
    </TTGlyph>
    <TTGlyph name="gcaron" xMin="45" yMin="-196" xMax="395" yMax="596">
      <component glyphName="g" x="0" y="0" flags="0x0"/>
      <component glyphName="uni030C" x="0" y="0" flags="0x0"/>
    </TTGlyph>
    <TTGlyph name="gcaron.ss01" xMin="32" yMin="-200" xMax="435" yMax="596">
      <component glyphName="g.ss01" x="0" y="0" flags="0x0"/>
      <component glyphName="uni030C" x="5" y="0" flags="0x0"/>
    </TTGlyph>
    <TTGlyph name="gcircumflex" xMin="45" yMin="-196" xMax="395" yMax="650">
      <component glyphName="g" x="0" y="0" flags="0x0"/>
      <component glyphName="uni0302" x="0" y="0" flags="0x0"/>
    </TTGlyph>
    <TTGlyph name="gcircumflex.ss01" xMin="32" yMin="-200" xMax="435" yMax="650">
      <component glyphName="g.ss01" x="0" y="0" flags="0x0"/>
      <component glyphName="uni0302" x="5" y="0" flags="0x0"/>
    </TTGlyph>
    <TTGlyph name="gdotaccent" xMin="45" yMin="-196" xMax="395" yMax="654">
      <component glyphName="g" x="0" y="0" flags="0x0"/>
      <component glyphName="uni0307" x="0" y="0" flags="0x0"/>
    </TTGlyph>
    <TTGlyph name="gdotaccent.ss01" xMin="32" yMin="-200" xMax="435" yMax="654">
      <component glyphName="g.ss01" x="0" y="0" flags="0x0"/>
      <component glyphName="uni0307" x="5" y="0" flags="0x0"/>
    </TTGlyph>
    <TTGlyph name="germandbls" xMin="55" yMin="-8" xMax="413" yMax="648">
      <contour>
        <pt x="55" y="574" on="0"/>
        <pt x="142" y="648" on="0"/>
        <pt x="217" y="648" on="1"/>
        <pt x="287" y="648" on="0"/>
        <pt x="375" y="579" on="0"/>
        <pt x="375" y="517" on="1"/>
        <pt x="375" y="479" on="0"/>
        <pt x="348" y="432" on="0"/>
        <pt x="322" y="405" on="1"/>
        <pt x="301" y="383" on="0"/>
        <pt x="282" y="353" on="0"/>
        <pt x="282" y="330" on="1"/>
        <pt x="282" y="307" on="0"/>
        <pt x="309" y="272" on="0"/>
        <pt x="337" y="249" on="1"/>
        <pt x="374" y="218" on="0"/>
        <pt x="413" y="163" on="0"/>
        <pt x="413" y="119" on="1"/>
        <pt x="413" y="56" on="0"/>
        <pt x="335" y="-8" on="0"/>
        <pt x="273" y="-8" on="1"/>
        <pt x="223" y="-8" on="0"/>
        <pt x="184" y="6" on="1"/>
        <pt x="196" y="75" on="1"/>
        <pt x="230" y="66" on="0"/>
        <pt x="258" y="66" on="1"/>
        <pt x="317" y="66" on="0"/>
        <pt x="317" y="119" on="1"/>
        <pt x="317" y="144" on="0"/>
        <pt x="290" y="177" on="0"/>
        <pt x="262" y="197" on="1"/>
        <pt x="225" y="224" on="0"/>
        <pt x="186" y="276" on="0"/>
        <pt x="186" y="322" on="1"/>
        <pt x="186" y="357" on="0"/>
        <pt x="210" y="398" on="0"/>
        <pt x="235" y="424" on="1"/>
        <pt x="257" y="447" on="0"/>
        <pt x="279" y="484" on="0"/>
        <pt x="279" y="513" on="1"/>
        <pt x="279" y="576" on="0"/>
        <pt x="215" y="576" on="1"/>
        <pt x="147" y="576" on="0"/>
        <pt x="147" y="501" on="1"/>
        <pt x="147" y="0" on="1"/>
        <pt x="55" y="0" on="1"/>
        <pt x="55" y="496" on="1"/>
      </contour>
    </TTGlyph>
    <TTGlyph name="germandbls.italic" xMin="25" yMin="-202" xMax="413" yMax="648">
      <contour>
        <pt x="48" y="-136" on="0"/>
        <pt x="69" y="-65" on="0"/>
        <pt x="68" y="-8" on="1"/>
        <pt x="55" y="496" on="1"/>
        <pt x="53" y="574" on="0"/>
        <pt x="142" y="648" on="0"/>
        <pt x="217" y="648" on="1"/>
        <pt x="287" y="648" on="0"/>
        <pt x="375" y="579" on="0"/>
        <pt x="375" y="517" on="1"/>
        <pt x="375" y="479" on="0"/>
        <pt x="348" y="432" on="0"/>
        <pt x="322" y="405" on="1"/>
        <pt x="301" y="383" on="0"/>
        <pt x="282" y="353" on="0"/>
        <pt x="282" y="330" on="1"/>
        <pt x="282" y="307" on="0"/>
        <pt x="309" y="272" on="0"/>
        <pt x="337" y="249" on="1"/>
        <pt x="374" y="218" on="0"/>
        <pt x="413" y="163" on="0"/>
        <pt x="413" y="119" on="1"/>
        <pt x="413" y="56" on="0"/>
        <pt x="335" y="-8" on="0"/>
        <pt x="273" y="-8" on="1"/>
        <pt x="223" y="-8" on="0"/>
        <pt x="184" y="6" on="1"/>
        <pt x="196" y="75" on="1"/>
        <pt x="230" y="66" on="0"/>
        <pt x="258" y="66" on="1"/>
        <pt x="317" y="66" on="0"/>
        <pt x="317" y="119" on="1"/>
        <pt x="317" y="144" on="0"/>
        <pt x="290" y="177" on="0"/>
        <pt x="262" y="197" on="1"/>
        <pt x="225" y="224" on="0"/>
        <pt x="186" y="276" on="0"/>
        <pt x="186" y="322" on="1"/>
        <pt x="186" y="357" on="0"/>
        <pt x="210" y="398" on="0"/>
        <pt x="235" y="424" on="1"/>
        <pt x="257" y="447" on="0"/>
        <pt x="279" y="484" on="0"/>
        <pt x="279" y="513" on="1"/>
        <pt x="279" y="576" on="0"/>
        <pt x="215" y="576" on="1"/>
        <pt x="145" y="576" on="0"/>
        <pt x="147" y="501" on="1"/>
        <pt x="160" y="-8" on="1"/>
        <pt x="161" y="-75" on="0"/>
        <pt x="131" y="-161" on="0"/>
        <pt x="98" y="-202" on="1"/>
        <pt x="25" y="-172" on="1"/>
      </contour>
    </TTGlyph>
    <TTGlyph name="grave" xMin="126" yMin="384" xMax="308" yMax="640">
      <contour>
        <pt x="217" y="384" on="1"/>
        <pt x="126" y="640" on="1"/>
        <pt x="244" y="640" on="1"/>
        <pt x="308" y="384" on="1"/>
      </contour>
    </TTGlyph>
    <TTGlyph name="gravecomb" xMin="91" yMin="510" xMax="262" yMax="652">
      <contour>
        <pt x="186" y="510" on="1"/>
        <pt x="91" y="652" on="1"/>
        <pt x="223" y="652" on="1"/>
        <pt x="262" y="510" on="1"/>
      </contour>
    </TTGlyph>
    <TTGlyph name="gravecomb.case" xMin="91" yMin="702" xMax="262" yMax="844">
      <component glyphName="gravecomb" x="0" y="192" flags="0x4"/>
    </TTGlyph>
    <TTGlyph name="greater" xMin="97" yMin="45" xMax="413" yMax="532">
      <contour>
        <pt x="97" y="102" on="1"/>
        <pt x="290" y="288" on="1"/>
        <pt x="97" y="475" on="1"/>
        <pt x="162" y="532" on="1"/>
        <pt x="413" y="288" on="1"/>
        <pt x="162" y="45" on="1"/>
      </contour>
    </TTGlyph>
    <TTGlyph name="greaterequal" xMin="64" yMin="0" xMax="413" yMax="596">
      <contour>
        <pt x="64" y="0" on="1"/>
        <pt x="64" y="64" on="1"/>
        <pt x="384" y="64" on="1"/>
        <pt x="384" y="0" on="1"/>
      </contour>
      <contour>
        <pt x="290" y="352" on="1"/>
        <pt x="97" y="539" on="1"/>
        <pt x="162" y="596" on="1"/>
        <pt x="413" y="352" on="1"/>
        <pt x="162" y="109" on="1"/>
        <pt x="97" y="166" on="1"/>
      </contour>
    </TTGlyph>
    <TTGlyph name="guillemotleft" xMin="64" yMin="31" xMax="372" yMax="417">
      <contour>
        <pt x="198" y="51" on="1"/>
        <pt x="128" y="31" on="1"/>
        <pt x="64" y="224" on="1"/>
        <pt x="128" y="417" on="1"/>
        <pt x="198" y="397" on="1"/>
        <pt x="141" y="224" on="1"/>
      </contour>
      <contour>
        <pt x="302" y="411" on="1"/>
        <pt x="372" y="391" on="1"/>
        <pt x="317" y="224" on="1"/>
        <pt x="372" y="57" on="1"/>
        <pt x="302" y="37" on="1"/>
        <pt x="240" y="224" on="1"/>
      </contour>
    </TTGlyph>
    <TTGlyph name="guillemotright" xMin="76" yMin="31" xMax="384" yMax="417">
      <contour>
        <pt x="146" y="37" on="1"/>
        <pt x="76" y="57" on="1"/>
        <pt x="131" y="224" on="1"/>
        <pt x="76" y="391" on="1"/>
        <pt x="146" y="411" on="1"/>
        <pt x="208" y="224" on="1"/>
      </contour>
      <contour>
        <pt x="307" y="224" on="1"/>
        <pt x="250" y="397" on="1"/>
        <pt x="320" y="417" on="1"/>
        <pt x="384" y="224" on="1"/>
        <pt x="320" y="31" on="1"/>
        <pt x="250" y="51" on="1"/>
      </contour>
    </TTGlyph>
    <TTGlyph name="guilsinglleft" xMin="138" yMin="31" xMax="272" yMax="417">
      <contour>
        <pt x="272" y="51" on="1"/>
        <pt x="202" y="31" on="1"/>
        <pt x="138" y="224" on="1"/>
        <pt x="202" y="417" on="1"/>
        <pt x="272" y="397" on="1"/>
        <pt x="215" y="224" on="1"/>
      </contour>
    </TTGlyph>
    <TTGlyph name="guilsinglright" xMin="176" yMin="31" xMax="310" yMax="417">
      <contour>
        <pt x="246" y="31" on="1"/>
        <pt x="176" y="51" on="1"/>
        <pt x="233" y="224" on="1"/>
        <pt x="176" y="397" on="1"/>
        <pt x="246" y="417" on="1"/>
        <pt x="310" y="224" on="1"/>
      </contour>
    </TTGlyph>
    <TTGlyph name="h" xMin="55" yMin="0" xMax="393" yMax="640">
      <contour>
        <pt x="55" y="640" on="1"/>
        <pt x="147" y="640" on="1"/>
        <pt x="147" y="413" on="1"/>
        <pt x="202" y="452" on="0"/>
        <pt x="266" y="452" on="1"/>
        <pt x="325" y="452" on="0"/>
        <pt x="393" y="382" on="0"/>
        <pt x="393" y="297" on="1"/>
        <pt x="393" y="0" on="1"/>
        <pt x="301" y="0" on="1"/>
        <pt x="301" y="289" on="1"/>
        <pt x="301" y="338" on="0"/>
        <pt x="276" y="380" on="0"/>
        <pt x="241" y="380" on="1"/>
        <pt x="195" y="380" on="0"/>
        <pt x="147" y="337" on="1"/>
        <pt x="147" y="0" on="1"/>
        <pt x="55" y="0" on="1"/>
      </contour>
    </TTGlyph>
    <TTGlyph name="hbar" xMin="5" yMin="0" xMax="393" yMax="640">
      <component glyphName="h" x="0" y="0" flags="0x0"/>
      <component glyphName="uni0335" x="-86" y="310" flags="0x4"/>
    </TTGlyph>
    <TTGlyph name="hcircumflex" xMin="55" yMin="0" xMax="393" yMax="842">
      <component glyphName="h" x="0" y="0" flags="0x0"/>
      <component glyphName="uni0302" x="0" y="192" flags="0x4"/>
    </TTGlyph>
    <TTGlyph name="heart" xMin="54" yMin="56" xMax="394" yMax="448">
      <contour>
        <pt x="203" y="101" on="0"/>
        <pt x="162" y="169" on="0"/>
        <pt x="125" y="213" on="1"/>
        <pt x="89" y="254" on="0"/>
        <pt x="54" y="316" on="0"/>
        <pt x="54" y="355" on="1"/>
        <pt x="54" y="401" on="0"/>
        <pt x="95" y="448" on="0"/>
        <pt x="128" y="448" on="1"/>
        <pt x="158" y="448" on="0"/>
        <pt x="209" y="397" on="0"/>
        <pt x="224" y="354" on="1"/>
        <pt x="237" y="396" on="0"/>
        <pt x="291" y="448" on="0"/>
        <pt x="320" y="448" on="1"/>
        <pt x="352" y="448" on="0"/>
        <pt x="394" y="401" on="0"/>
        <pt x="394" y="355" on="1"/>
        <pt x="394" y="316" on="0"/>
        <pt x="359" y="254" on="0"/>
        <pt x="323" y="213" on="1"/>
        <pt x="286" y="169" on="0"/>
        <pt x="245" y="101" on="0"/>
        <pt x="240" y="56" on="1"/>
        <pt x="208" y="56" on="1"/>
      </contour>
    </TTGlyph>
    <TTGlyph name="hookabovecomb" xMin="123" yMin="502" xMax="324" yMax="704">
      <contour>
        <pt x="224" y="570" on="0"/>
        <pt x="256" y="598" on="0"/>
        <pt x="256" y="616" on="1"/>
        <pt x="256" y="633" on="0"/>
        <pt x="229" y="648" on="0"/>
        <pt x="198" y="648" on="1"/>
        <pt x="172" y="648" on="0"/>
        <pt x="129" y="643" on="1"/>
        <pt x="123" y="696" on="1"/>
        <pt x="165" y="704" on="0"/>
        <pt x="201" y="704" on="1"/>
        <pt x="260" y="704" on="0"/>
        <pt x="324" y="659" on="0"/>
        <pt x="324" y="617" on="1"/>
        <pt x="324" y="578" on="0"/>
        <pt x="265" y="525" on="0"/>
        <pt x="209" y="502" on="1"/>
        <pt x="187" y="554" on="1"/>
      </contour>
    </TTGlyph>
    <TTGlyph name="hookabovecomb.case" xMin="123" yMin="694" xMax="324" yMax="896">
      <component glyphName="hookabovecomb" x="0" y="192" flags="0x4"/>
    </TTGlyph>
    <TTGlyph name="house" xMin="62" yMin="64" xMax="386" yMax="458">
      <contour>
        <pt x="200" y="458" on="1"/>
        <pt x="248" y="458" on="1"/>
        <pt x="386" y="320" on="1"/>
        <pt x="386" y="64" on="1"/>
        <pt x="62" y="64" on="1"/>
        <pt x="62" y="320" on="1"/>
      </contour>
      <contour>
        <pt x="318" y="128" on="1"/>
        <pt x="318" y="302" on="1"/>
        <pt x="224" y="393" on="1"/>
        <pt x="130" y="302" on="1"/>
        <pt x="130" y="128" on="1"/>
      </contour>
    </TTGlyph>
    <TTGlyph name="hungarumlaut" xMin="122" yMin="510" xMax="422" yMax="652">
      <component glyphName="uni030B" x="0" y="0" flags="0x0"/>
    </TTGlyph>
    <TTGlyph name="hyphen" xMin="74" yMin="248" xMax="374" yMax="328">
      <contour>
        <pt x="74" y="248" on="1"/>
        <pt x="74" y="328" on="1"/>
        <pt x="374" y="328" on="1"/>
        <pt x="374" y="248" on="1"/>
      </contour>
    </TTGlyph>
    <TTGlyph name="i" xMin="67" yMin="0" xMax="297" yMax="654">
      <component glyphName="dotlessi" x="0" y="0" flags="0x0"/>
      <component glyphName="uni0307" x="9" y="0" flags="0x0"/>
    </TTGlyph>
    <TTGlyph name="i.loclTRK" xMin="67" yMin="0" xMax="297" yMax="654">
      <component glyphName="dotlessi" x="0" y="0" flags="0x0"/>
      <component glyphName="uni0307" x="9" y="0" flags="0x0"/>
    </TTGlyph>
    <TTGlyph name="iacute" xMin="67" yMin="0" xMax="367" yMax="652">
      <component glyphName="dotlessi" x="0" y="0" flags="0x0"/>
      <component glyphName="acutecomb" x="9" y="0" flags="0x0"/>
    </TTGlyph>
    <TTGlyph name="iacute_j.loclNLD" xMin="18" yMin="-200" xMax="410" yMax="844">
      <component glyphName="ij" x="0" y="0" flags="0x0"/>
      <component glyphName="acutecomb" x="0" y="192" flags="0x4"/>
    </TTGlyph>
    <TTGlyph name="ibreve" xMin="67" yMin="0" xMax="369" yMax="649">
      <component glyphName="dotlessi" x="0" y="0" flags="0x0"/>
      <component glyphName="uni0306" x="9" y="0" flags="0x0"/>
    </TTGlyph>
    <TTGlyph name="icircumflex" xMin="67" yMin="0" xMax="382" yMax="650">
      <component glyphName="dotlessi" x="0" y="0" flags="0x0"/>
      <component glyphName="uni0302" x="9" y="0" flags="0x0"/>
    </TTGlyph>
    <TTGlyph name="idieresis" xMin="67" yMin="0" xMax="377" yMax="653">
      <component glyphName="dotlessi" x="0" y="0" flags="0x0"/>
      <component glyphName="uni0308" x="9" y="0" flags="0x0"/>
    </TTGlyph>
    <TTGlyph name="igrave" xMin="67" yMin="0" xMax="283" yMax="652">
      <component glyphName="dotlessi" x="0" y="0" flags="0x0"/>
      <component glyphName="gravecomb" x="9" y="0" flags="0x0"/>
    </TTGlyph>
    <TTGlyph name="ij" xMin="18" yMin="-200" xMax="410" yMax="654">
      <contour>
        <pt x="198" y="-200" on="0"/>
        <pt x="153" y="-194" on="1"/>
        <pt x="159" y="-128" on="1"/>
        <pt x="199" y="-132" on="0"/>
        <pt x="224" y="-132" on="1"/>
        <pt x="267" y="-132" on="0"/>
        <pt x="301" y="-92" on="0"/>
        <pt x="301" y="-49" on="1"/>
        <pt x="301" y="374" on="1"/>
        <pt x="239" y="380" on="1"/>
        <pt x="239" y="448" on="1"/>
        <pt x="393" y="448" on="1"/>
        <pt x="393" y="-45" on="1"/>
        <pt x="393" y="-128" on="0"/>
        <pt x="313" y="-200" on="0"/>
        <pt x="238" y="-200" on="1"/>
      </contour>
      <contour>
        <pt x="18" y="448" on="1"/>
        <pt x="172" y="448" on="1"/>
        <pt x="172" y="0" on="1"/>
        <pt x="80" y="0" on="1"/>
        <pt x="80" y="374" on="1"/>
        <pt x="18" y="380" on="1"/>
      </contour>
      <contour>
        <pt x="58" y="620" on="0"/>
        <pt x="95" y="654" on="0"/>
        <pt x="122" y="654" on="1"/>
        <pt x="149" y="654" on="0"/>
        <pt x="186" y="620" on="0"/>
        <pt x="186" y="590" on="1"/>
        <pt x="186" y="560" on="0"/>
        <pt x="149" y="526" on="0"/>
        <pt x="122" y="526" on="1"/>
        <pt x="94" y="526" on="0"/>
        <pt x="58" y="560" on="0"/>
        <pt x="58" y="590" on="1"/>
      </contour>
      <contour>
        <pt x="282" y="620" on="0"/>
        <pt x="319" y="654" on="0"/>
        <pt x="346" y="654" on="1"/>
        <pt x="373" y="654" on="0"/>
        <pt x="410" y="620" on="0"/>
        <pt x="410" y="590" on="1"/>
        <pt x="410" y="560" on="0"/>
        <pt x="374" y="526" on="0"/>
        <pt x="346" y="526" on="1"/>
        <pt x="319" y="526" on="0"/>
        <pt x="282" y="560" on="0"/>
        <pt x="282" y="590" on="1"/>
      </contour>
    </TTGlyph>
    <TTGlyph name="imacron" xMin="67" yMin="0" xMax="360" yMax="632">
      <component glyphName="dotlessi" x="0" y="0" flags="0x0"/>
      <component glyphName="uni0304" x="9" y="0" flags="0x0"/>
    </TTGlyph>
    <TTGlyph name="infinity" xMin="0" yMin="128" xMax="448" yMax="384">
      <contour>
        <pt x="64" y="320" on="1"/>
        <pt x="64" y="384" on="1"/>
        <pt x="192" y="384" on="1"/>
        <pt x="192" y="320" on="1"/>
      </contour>
      <contour>
        <pt x="0" y="320" on="1"/>
        <pt x="64" y="320" on="1"/>
        <pt x="64" y="192" on="1"/>
        <pt x="0" y="192" on="1"/>
      </contour>
      <contour>
        <pt x="64" y="192" on="1"/>
        <pt x="192" y="192" on="1"/>
        <pt x="192" y="128" on="1"/>
        <pt x="64" y="128" on="1"/>
      </contour>
      <contour>
        <pt x="192" y="320" on="1"/>
        <pt x="256" y="320" on="1"/>
        <pt x="256" y="192" on="1"/>
        <pt x="192" y="192" on="1"/>
      </contour>
      <contour>
        <pt x="256" y="192" on="1"/>
        <pt x="384" y="192" on="1"/>
        <pt x="384" y="128" on="1"/>
        <pt x="256" y="128" on="1"/>
      </contour>
      <contour>
        <pt x="256" y="384" on="1"/>
        <pt x="384" y="384" on="1"/>
        <pt x="384" y="320" on="1"/>
        <pt x="256" y="320" on="1"/>
      </contour>
      <contour>
        <pt x="384" y="320" on="1"/>
        <pt x="448" y="320" on="1"/>
        <pt x="448" y="192" on="1"/>
        <pt x="384" y="192" on="1"/>
      </contour>
    </TTGlyph>
    <TTGlyph name="integral" xMin="64" yMin="-128" xMax="384" yMax="704">
      <contour>
        <pt x="256" y="640" on="1"/>
        <pt x="256" y="-64" on="1"/>
        <pt x="192" y="-64" on="1"/>
        <pt x="192" y="640" on="1"/>
      </contour>
      <contour>
        <pt x="64" y="-64" on="1"/>
        <pt x="192" y="-64" on="1"/>
        <pt x="192" y="-128" on="1"/>
        <pt x="64" y="-128" on="1"/>
      </contour>
      <contour>
        <pt x="256" y="704" on="1"/>
        <pt x="384" y="704" on="1"/>
        <pt x="384" y="640" on="1"/>
        <pt x="256" y="640" on="1"/>
      </contour>
    </TTGlyph>
    <TTGlyph name="integral.001" xMin="64" yMin="-192" xMax="384" yMax="768">
      <contour>
        <pt x="256" y="704" on="1"/>
        <pt x="256" y="-128" on="1"/>
        <pt x="192" y="-128" on="1"/>
        <pt x="192" y="704" on="1"/>
      </contour>
      <contour>
        <pt x="64" y="-128" on="1"/>
        <pt x="192" y="-128" on="1"/>
        <pt x="192" y="-192" on="1"/>
        <pt x="64" y="-192" on="1"/>
      </contour>
      <contour>
        <pt x="256" y="768" on="1"/>
        <pt x="384" y="768" on="1"/>
        <pt x="384" y="704" on="1"/>
        <pt x="256" y="704" on="1"/>
      </contour>
    </TTGlyph>
    <TTGlyph name="integralbt" xMin="64" yMin="-128" xMax="256" yMax="832">
      <contour>
        <pt x="256" y="832" on="1"/>
        <pt x="256" y="-64" on="1"/>
        <pt x="192" y="-64" on="1"/>
        <pt x="192" y="832" on="1"/>
      </contour>
      <contour>
        <pt x="64" y="-64" on="1"/>
        <pt x="192" y="-64" on="1"/>
        <pt x="192" y="-128" on="1"/>
        <pt x="64" y="-128" on="1"/>
      </contour>
    </TTGlyph>
    <TTGlyph name="integraltp" xMin="192" yMin="-192" xMax="384" yMax="704">
      <contour>
        <pt x="256" y="640" on="1"/>
        <pt x="256" y="-192" on="1"/>
        <pt x="192" y="-192" on="1"/>
        <pt x="192" y="640" on="1"/>
      </contour>
      <contour>
        <pt x="256" y="704" on="1"/>
        <pt x="384" y="704" on="1"/>
        <pt x="384" y="640" on="1"/>
        <pt x="256" y="640" on="1"/>
      </contour>
    </TTGlyph>
    <TTGlyph name="intersection" xMin="62" yMin="128" xMax="386" yMax="456">
      <contour>
        <pt x="386" y="128" on="1"/>
        <pt x="318" y="128" on="1"/>
        <pt x="318" y="280" on="1"/>
        <pt x="318" y="335" on="0"/>
        <pt x="269" y="392" on="0"/>
        <pt x="224" y="392" on="1"/>
        <pt x="180" y="392" on="0"/>
        <pt x="130" y="335" on="0"/>
        <pt x="130" y="279" on="1"/>
        <pt x="130" y="128" on="1"/>
        <pt x="62" y="128" on="1"/>
        <pt x="62" y="276" on="1"/>
        <pt x="62" y="349" on="0"/>
        <pt x="139" y="456" on="0"/>
        <pt x="224" y="456" on="1"/>
        <pt x="309" y="456" on="0"/>
        <pt x="386" y="350" on="0"/>
        <pt x="386" y="277" on="1"/>
      </contour>
    </TTGlyph>
    <TTGlyph name="invbullet" xMin="0" yMin="0" xMax="448" yMax="448">
      <contour>
        <pt x="448" y="448" on="1"/>
        <pt x="448" y="0" on="1"/>
        <pt x="0" y="0" on="1"/>
        <pt x="0" y="448" on="1"/>
      </contour>
      <contour>
        <pt x="122" y="180" on="0"/>
        <pt x="181" y="120" on="0"/>
        <pt x="224" y="120" on="1"/>
        <pt x="267" y="120" on="0"/>
        <pt x="326" y="180" on="0"/>
        <pt x="326" y="224" on="1"/>
        <pt x="326" y="268" on="0"/>
        <pt x="267" y="328" on="0"/>
        <pt x="224" y="328" on="1"/>
        <pt x="181" y="328" on="0"/>
        <pt x="122" y="268" on="0"/>
        <pt x="122" y="224" on="1"/>
      </contour>
    </TTGlyph>
    <TTGlyph name="invcircle" xMin="0" yMin="0" xMax="448" yMax="448">
      <contour>
        <pt x="267" y="328" on="0"/>
        <pt x="324" y="268" on="0"/>
        <pt x="324" y="224" on="1"/>
        <pt x="324" y="180" on="0"/>
        <pt x="267" y="120" on="0"/>
        <pt x="224" y="120" on="1"/>
        <pt x="181" y="120" on="0"/>
        <pt x="124" y="180" on="0"/>
        <pt x="124" y="224" on="1"/>
        <pt x="124" y="268" on="0"/>
        <pt x="181" y="328" on="0"/>
        <pt x="224" y="328" on="1"/>
      </contour>
      <contour>
        <pt x="0" y="448" on="1"/>
        <pt x="448" y="448" on="1"/>
        <pt x="448" y="0" on="1"/>
        <pt x="0" y="0" on="1"/>
      </contour>
      <contour>
        <pt x="54" y="177" on="0"/>
        <pt x="99" y="100" on="0"/>
        <pt x="177" y="56" on="0"/>
        <pt x="224" y="56" on="1"/>
        <pt x="271" y="56" on="0"/>
        <pt x="349" y="100" on="0"/>
        <pt x="394" y="177" on="0"/>
        <pt x="394" y="224" on="1"/>
        <pt x="394" y="271" on="0"/>
        <pt x="349" y="348" on="0"/>
        <pt x="271" y="392" on="0"/>
        <pt x="224" y="392" on="1"/>
        <pt x="177" y="392" on="0"/>
        <pt x="99" y="348" on="0"/>
        <pt x="54" y="271" on="0"/>
        <pt x="54" y="224" on="1"/>
      </contour>
    </TTGlyph>
    <TTGlyph name="invsmileface" xMin="20" yMin="56" xMax="428" yMax="520">
      <contour>
        <pt x="170" y="182" on="0"/>
        <pt x="224" y="182" on="1"/>
        <pt x="279" y="182" on="0"/>
        <pt x="331" y="208" on="1"/>
        <pt x="320" y="242" on="1"/>
        <pt x="276" y="231" on="0"/>
        <pt x="224" y="231" on="1"/>
        <pt x="172" y="231" on="0"/>
        <pt x="128" y="242" on="1"/>
        <pt x="118" y="208" on="1"/>
      </contour>
      <contour>
        <pt x="20" y="393" on="0"/>
        <pt x="127" y="520" on="0"/>
        <pt x="223" y="520" on="1"/>
        <pt x="319" y="520" on="0"/>
        <pt x="428" y="392" on="0"/>
        <pt x="428" y="288" on="1"/>
        <pt x="428" y="184" on="0"/>
        <pt x="319" y="56" on="0"/>
        <pt x="223" y="56" on="1"/>
        <pt x="127" y="56" on="0"/>
        <pt x="20" y="183" on="0"/>
        <pt x="20" y="288" on="1"/>
      </contour>
      <contour>
        <pt x="136" y="324" on="0"/>
        <pt x="153" y="302" on="0"/>
        <pt x="168" y="302" on="1"/>
        <pt x="183" y="302" on="0"/>
        <pt x="200" y="324" on="0"/>
        <pt x="200" y="344" on="1"/>
        <pt x="200" y="364" on="0"/>
        <pt x="183" y="386" on="0"/>
        <pt x="168" y="386" on="1"/>
        <pt x="153" y="386" on="0"/>
        <pt x="136" y="364" on="0"/>
        <pt x="136" y="344" on="1"/>
      </contour>
      <contour>
        <pt x="248" y="324" on="0"/>
        <pt x="265" y="302" on="0"/>
        <pt x="280" y="302" on="1"/>
        <pt x="295" y="302" on="0"/>
        <pt x="312" y="324" on="0"/>
        <pt x="312" y="344" on="1"/>
        <pt x="312" y="364" on="0"/>
        <pt x="295" y="386" on="0"/>
        <pt x="280" y="386" on="1"/>
        <pt x="265" y="386" on="0"/>
        <pt x="248" y="364" on="0"/>
        <pt x="248" y="344" on="1"/>
      </contour>
    </TTGlyph>
    <TTGlyph name="iogonek" xMin="67" yMin="-197" xMax="300" yMax="654">
      <component glyphName="dotlessi" x="0" y="0" flags="0x0"/>
      <component glyphName="uni0307" x="9" y="0" flags="0x0"/>
      <component glyphName="uni0328" x="-101" y="0" flags="0x0"/>
    </TTGlyph>
    <TTGlyph name="iota" xMin="90" yMin="-4" xMax="379" yMax="448">
      <contour>
        <pt x="257" y="448" on="1"/>
        <pt x="257" y="128" on="1"/>
        <pt x="257" y="68" on="0"/>
        <pt x="320" y="68" on="1"/>
        <pt x="343" y="68" on="0"/>
        <pt x="373" y="71" on="1"/>
        <pt x="379" y="1" on="1"/>
        <pt x="348" y="-4" on="0"/>
        <pt x="312" y="-4" on="1"/>
        <pt x="245" y="-4" on="0"/>
        <pt x="165" y="59" on="0"/>
        <pt x="165" y="132" on="1"/>
        <pt x="165" y="376" on="1"/>
        <pt x="90" y="382" on="1"/>
        <pt x="90" y="448" on="1"/>
      </contour>
    </TTGlyph>
    <TTGlyph name="iotadieresis" xMin="81" yMin="-4" xMax="379" yMax="653">
      <component glyphName="iota" x="0" y="0" flags="0x0"/>
      <component glyphName="uni0308" x="0" y="0" flags="0x0"/>
    </TTGlyph>
    <TTGlyph name="iotadieresistonos" xMin="58" yMin="-4" xMax="390" yMax="704">
      <component glyphName="iota" x="0" y="0" flags="0x0"/>
      <component glyphName="uni0344" x="0" y="0" flags="0x0"/>
    </TTGlyph>
    <TTGlyph name="iotatonos" xMin="90" yMin="-4" xMax="379" yMax="704">
      <component glyphName="iota" x="0" y="0" flags="0x0"/>
      <component glyphName="tonos" x="0" y="0" flags="0x0"/>
    </TTGlyph>
    <TTGlyph name="itilde" xMin="67" yMin="0" xMax="391" yMax="648">
      <component glyphName="dotlessi" x="0" y="0" flags="0x0"/>
      <component glyphName="tildecomb" x="9" y="0" flags="0x0"/>
    </TTGlyph>
    <TTGlyph name="j" xMin="35" yMin="-200" xMax="292" yMax="654">
      <component glyphName="uni0237" x="0" y="0" flags="0x0"/>
      <component glyphName="uni0307" x="4" y="0" flags="0x0"/>
    </TTGlyph>
    <TTGlyph name="jcircumflex" xMin="35" yMin="-200" xMax="377" yMax="650">
      <component glyphName="uni0237" x="0" y="0" flags="0x0"/>
      <component glyphName="uni0302" x="4" y="0" flags="0x0"/>
    </TTGlyph>
    <TTGlyph name="k" xMin="55" yMin="0" xMax="432" yMax="640">
      <contour>
        <pt x="422" y="448" on="1"/>
        <pt x="242" y="239" on="1"/>
        <pt x="432" y="0" on="1"/>
        <pt x="316" y="0" on="1"/>
        <pt x="163" y="202" on="1"/>
        <pt x="147" y="202" on="1"/>
        <pt x="147" y="0" on="1"/>
        <pt x="55" y="0" on="1"/>
        <pt x="55" y="640" on="1"/>
        <pt x="147" y="640" on="1"/>
        <pt x="147" y="275" on="1"/>
        <pt x="166" y="275" on="1"/>
        <pt x="307" y="448" on="1"/>
      </contour>
    </TTGlyph>
    <TTGlyph name="kappa" xMin="55" yMin="0" xMax="432" yMax="448">
      <component glyphName="kgreenlandic" x="0" y="0" flags="0x0"/>
    </TTGlyph>
    <TTGlyph name="kgreenlandic" xMin="55" yMin="0" xMax="432" yMax="448">
      <contour>
        <pt x="422" y="448" on="1"/>
        <pt x="242" y="239" on="1"/>
        <pt x="432" y="0" on="1"/>
        <pt x="316" y="0" on="1"/>
        <pt x="163" y="202" on="1"/>
        <pt x="147" y="202" on="1"/>
        <pt x="147" y="0" on="1"/>
        <pt x="55" y="0" on="1"/>
        <pt x="55" y="448" on="1"/>
        <pt x="147" y="448" on="1"/>
        <pt x="147" y="275" on="1"/>
        <pt x="166" y="275" on="1"/>
        <pt x="307" y="448" on="1"/>
      </contour>
    </TTGlyph>
</ttFont>
